SplineFontDB: 3.0
FontName: AV-Merrow-BoldItalic
FullName: AV Merrow Bold Italic
FamilyName: AV Merrow
Weight: Bold
Copyright: Copyright 2018,  Avante Vangard Type Foundry (https://github.com/Avante-Vangard). 
Version: 2018.001
ItalicAngle: 0
UnderlinePosition: -133
UnderlineWidth: 20
Ascent: 800
Descent: 200
InvalidEm: 0
sfntRevision: 0x07e20000
LayerCount: 2
Layer: 0 0 "Back" 1
Layer: 1 0 "Fore" 0
XUID: [1021 894 1065283359 14767427]
StyleMap: 0x0021
FSType: 0
OS2Version: 3
OS2_WeightWidthSlopeOnly: 0
OS2_UseTypoMetrics: 0
CreationTime: 1324052797
ModificationTime: 1540930380
PfmFamily: 33
TTFWeight: 700
TTFWidth: 5
LineGap: 0
VLineGap: 0
Panose: 2 11 8 3 4 0 3 9 0 4
OS2TypoAscent: 966
OS2TypoAOffset: 0
OS2TypoDescent: -254
OS2TypoDOffset: 0
OS2TypoLinegap: 0
OS2WinAscent: 966
OS2WinAOffset: 0
OS2WinDescent: 254
OS2WinDOffset: 0
HheadAscent: 966
HheadAOffset: 0
HheadDescent: -254
HheadDOffset: 0
OS2SubXSize: 700
OS2SubYSize: 650
OS2SubXOff: 0
OS2SubYOff: 140
OS2SupXSize: 700
OS2SupYSize: 650
OS2SupXOff: 0
OS2SupYOff: 477
OS2StrikeYSize: 50
OS2StrikeYPos: 250
OS2CapHeight: 664
OS2XHeight: 474
OS2Vendor: 'pyrs'
OS2CodePages: 20000001.00000000
OS2UnicodeRanges: 800000af.4000204b.00000000.00000000
Lookup: 1 0 0 "'c2sc' Capitals to Small Capitals in Latin lookup 0" { "'c2sc' Capitals to Small Capitals in Latin lookup 0 subtable"  } ['c2sc' ('DFLT' <'dflt' > 'latn' <'dflt' > ) ]
Lookup: 1 0 0 "'smcp' Lowercase to Small Capitals in Latin lookup 0" { "'smcp' Lowercase to Small Capitals in Latin lookup 0 subtable"  } ['smcp' ('DFLT' <'dflt' > 'latn' <'dflt' > ) ]
Lookup: 1 0 0 "'sups' Superscript lookup 4" { "'sups' Superscript lookup 4-1" ("superior") } ['sups' ('DFLT' <'dflt' > 'grek' <'dflt' > 'latn' <'dflt' > ) ]
Lookup: 4 0 1 "'liga' Standard Ligatures lookup 0" { "'liga' Standard Ligatures lookup 0-1"  } ['liga' ('DFLT' <'dflt' > 'grek' <'dflt' > 'latn' <'dflt' > ) ]

StartChar: exclam
Encoding: 33 33 2
Width: 262
GlyphClass: 2
Flags: W
HStem: -10 153<76.3564 157.932>
VStem: 47 138<17.6054 113.141> 80 100<209.922 411.922> 124 123<533.369 677.193>
LayerCount: 2
Fore
SplineSet
107 -10 m 0xc0
 90 -10 76 -4 64 8 c 0
 53 19 47 35 47 54 c 0
 47 77 55 98 71 116 c 0
 87 134 106 143 127 143 c 0
 144 143 158 137 168 124 c 0
 180 112 185 97 185 78 c 0
 185 54 178 33 162 16 c 0
 148 -1 129 -10 107 -10 c 0xc0
247 640 m 0x90
 247 622 241 592 230 550 c 0
 221 517 210 467 198 402 c 0
 186 337 180 290 180 262 c 0
 180 246 181 232 184 219 c 1
 162 210 144 205 130 205 c 0
 97 205 80 219 80 246 c 0xa0
 80 251 84 285 93 350 c 0
 114 499 124 597 124 644 c 0
 124 653 124 662 123 671 c 1
 150 680 173 684 190 684 c 0
 228 684 247 669 247 640 c 0x90
EndSplineSet
Validated: 1
Substitution2: "'c2sc' Capitals to Small Capitals in Latin lookup 0 subtable" exclam.sc
EndChar

StartChar: quotedbl
Encoding: 34 34 3
Width: 399
GlyphClass: 2
Flags: W
HStem: 475 260<115.462 163.391 312.462 360.391>
VStem: 113 110<603.956 723.622> 310 110<603.956 723.622>
LayerCount: 2
Fore
SplineSet
310 706 m 0
 314 725 331 735 362 735 c 0
 378 735 392 731 403 724 c 0
 414 716 420 704 420 689 c 0
 420 680 414 656 402 615 c 0
 390 574 379 541 369 514 c 0
 359 488 343 475 322 475 c 0
 312 475 297 480 277 490 c 1
 286 513 294 554 300 612 c 0
 306 670 309 701 310 706 c 0
113 706 m 0
 117 725 134 735 165 735 c 0
 181 735 195 731 206 724 c 0
 217 716 223 704 223 689 c 0
 223 680 217 656 205 615 c 0
 193 574 182 541 172 514 c 0
 162 488 146 475 125 475 c 0
 115 475 100 480 80 490 c 1
 89 513 97 554 103 612 c 0
 109 670 112 701 113 706 c 0
EndSplineSet
Validated: 1
Substitution2: "'c2sc' Capitals to Small Capitals in Latin lookup 0 subtable" quotedbl.sc
EndChar

StartChar: numbersign
Encoding: 35 35 4
Width: 574
GlyphClass: 2
Flags: W
HStem: 205 65<21.6621 130 310 331 390 508.573> 391 66<75.6621 184 364 381 446 561.573>
VStem: 92 70<30.7018 143.781> 240 66<525.03 621.575> 272 70<30.7018 145.75> 419 66<525.68 621.575>
LayerCount: 2
Fore
SplineSet
446 459 m 1xf4
 527 462 570 464 576 465 c 1
 577 460 577 455 577 452 c 0
 577 432 572 416 562 403 c 0
 553 390 537 383 516 383 c 0
 491 383 460 385 423 388 c 1
 416 368 405 329 390 271 c 1
 439 273 484 276 523 279 c 1
 524 274 524 269 524 266 c 0
 524 246 519 230 509 217 c 0
 500 204 484 197 463 197 c 0
 438 197 407 199 370 202 c 1
 359 160 351 127 348 104 c 0
 345 82 343 60 342 39 c 1
 327 32 314 28 303 28 c 0
 282 28 272 38 272 58 c 0xec
 272 67 285 116 310 205 c 1
 192 205 l 1
 179 155 171 121 168 104 c 0
 165 82 163 60 162 39 c 1
 147 32 134 28 123 28 c 0
 102 28 92 38 92 58 c 0
 92 65 105 114 130 203 c 1
 87 200 45 193 4 182 c 1
 1 193 0 203 0 213 c 0
 0 234 7 249 21 258 c 0
 35 267 57 272 87 272 c 2
 152 272 l 1
 160 304 171 343 184 388 c 1
 141 385 99 378 58 367 c 1
 55 378 54 388 54 398 c 0
 54 419 61 434 75 443 c 0
 89 452 111 457 141 457 c 2
 202 457 l 1
 204 466 208 483 214 507 c 0
 220 531 225 553 230 573 c 0
 235 593 238 608 240 619 c 1
 250 622 260 623 271 623 c 0
 294 623 306 613 306 594 c 0
 306 587 293 542 266 457 c 1
 381 457 l 1
 383 466 387 483 393 507 c 0
 399 531 404 553 409 573 c 0
 414 593 417 608 419 619 c 1
 429 622 439 623 450 623 c 0
 473 623 485 613 485 594 c 0
 485 587 472 542 446 459 c 1xf4
210 270 m 1
 331 270 l 1
 364 391 l 1
 246 391 l 1
 225 322 213 282 210 270 c 1
EndSplineSet
Validated: 1
EndChar

StartChar: dollar
Encoding: 36 36 5
Width: 574
GlyphClass: 2
Flags: W
HStem: -7 76<269 320.441> 719 20G<322.5 335.5>
VStem: 110 96<436.26 548.834> 197 56<-76 -11.3491> 302 54<673 738.466> 363 97<125.917 241.172>
LayerCount: 2
Fore
SplineSet
204 -10 m 1xdc
 159 -9 121 1 89 19 c 0
 56 37 40 59 40 84 c 0
 40 113 63 138 108 159 c 1
 115 138 128 119 148 104 c 0
 168 89 190 79 214 75 c 1
 243 286 l 1
 202 300 169 318 146 341 c 0
 122 364 110 398 110 445 c 0xec
 110 503 126 551 158 590 c 0
 190 629 237 654 298 665 c 1
 299 680 301 704 302 736 c 1
 312 738 320 739 325 739 c 0
 346 739 356 732 356 717 c 0
 356 715 354 700 351 673 c 1
 388 672 422 663 452 647 c 0
 484 631 499 610 499 583 c 0
 499 544 472 519 417 508 c 1
 413 531 404 550 390 566 c 0
 376 582 360 592 343 597 c 1
 315 396 l 1
 334 389 348 384 358 380 c 0
 366 376 379 369 394 360 c 0
 410 351 422 342 430 332 c 0
 437 323 444 310 451 294 c 0
 457 278 460 260 460 240 c 0
 460 175 443 120 408 73 c 0
 373 27 324 0 259 -7 c 1
 255 -48 253 -71 253 -76 c 1
 233 -78 l 2
 209 -78 197 -71 197 -56 c 0
 197 -54 199 -39 204 -10 c 1xdc
296 268 m 1
 269 69 l 1
 298 72 321 85 338 108 c 0
 355 131 363 159 363 190 c 0
 363 210 357 226 346 237 c 0
 334 249 317 259 296 268 c 1
262 415 m 1
 288 594 l 1
 263 589 244 577 229 556 c 0
 214 535 206 511 206 483 c 0
 206 453 225 430 262 415 c 1
EndSplineSet
Validated: 1
Substitution2: "'onum' Oldstyle Figures lookup 5-1" dollar.oldstyle
EndChar

StartChar: percent
Encoding: 37 37 6
Width: 776
GlyphClass: 2
Flags: W
HStem: -10 63<516.518 585.338> 268 61<535.631 605.105> 326 63<170.518 239.001> 604 62<189.613 259.273>
VStem: 66 92<406.648 565.956> 271 93<426.53 596.727> 412 92<70.8935 228.847> 617 93<89.9226 260.916>
LayerCount: 2
Fore
SplineSet
231 604 m 0xbf
 210 604 192 591 178 565 c 0
 165 539 158 510 158 478 c 0
 158 453 162 432 168 415 c 0
 176 398 186 389 200 389 c 0
 221 389 238 402 251 429 c 0
 264 456 271 486 271 519 c 0
 271 543 268 563 261 580 c 0
 254 596 244 604 231 604 c 0xbf
577 268 m 0xdf
 556 268 538 255 524 229 c 0
 511 203 504 174 504 142 c 0
 504 117 508 96 514 79 c 0
 522 62 532 53 546 53 c 0
 567 53 584 66 597 93 c 0
 610 120 617 149 617 182 c 0
 617 206 614 226 607 243 c 0
 600 260 590 268 577 268 c 0xdf
180 -31 m 1
 163 -31 149 -28 136 -20 c 0
 123 -14 117 -5 117 6 c 0
 117 13 124 26 136 46 c 0
 150 64 187 116 248 199 c 0
 328 308 400 406 464 493 c 0
 507 553 553 620 602 693 c 1
 619 693 633 690 646 682 c 0
 659 676 665 667 665 656 c 0
 665 653 664 649 662 644 c 0
 660 639 656 633 650 624 c 0
 644 615 638 607 633 599 c 0
 627 592 618 579 605 562 c 0
 592 545 580 528 569 513 c 2
 320 171 l 2
 275 110 229 43 180 -31 c 1
540 -10 m 0
 500 -10 469 2 446 26 c 0
 423 51 412 84 412 126 c 0
 412 183 428 231 460 270 c 0
 491 309 532 329 583 329 c 0
 623 329 654 317 677 293 c 0
 699 269 710 236 710 194 c 0
 710 137 694 88 663 49 c 0
 632 10 591 -10 540 -10 c 0
194 326 m 0xbf
 154 326 123 338 100 363 c 0
 77 388 66 421 66 463 c 0
 66 520 82 568 113 607 c 0
 145 646 186 666 237 666 c 0
 277 666 308 654 330 630 c 0
 353 606 364 573 364 530 c 0
 364 473 348 424 316 385 c 0
 285 346 244 326 194 326 c 0xbf
EndSplineSet
Validated: 1
Substitution2: "'onum' Oldstyle Figures lookup 5-1" percent.oldstyle
EndChar

StartChar: ampersand
Encoding: 38 38 7
Width: 717
GlyphClass: 2
Flags: W
HStem: -11 75<210.403 384.845> 283 75<580.123 660.857> 314 74<432.697 488.413> 356 70<243.712 321.537> 600 75<248.691 364.838>
VStem: 37 115<122.91 261.077> 106 110<453.645 567.46> 344 81<217.947 306.125> 489 92<186.969 288> 665 83<361.706 453.507>
LayerCount: 2
Fore
SplineSet
472 388 m 0xadc0
 490 388 517 383 553 373 c 0
 588 363 612 358 624 358 c 0
 651 358 665 373 665 402 c 0
 665 417 661 432 652 445 c 1
 661 465 680 475 709 475 c 0
 722 475 732 471 738 463 c 0
 745 455 748 446 748 435 c 0
 748 404 735 371 710 336 c 0
 685 301 655 283 621 283 c 0
 610 283 596 285 581 288 c 1
 576 235 563 188 544 149 c 0
 524 109 499 78 470 55 c 0
 440 32 408 16 374 5 c 0
 339 -6 302 -11 263 -11 c 0
 194 -11 140 8 99 45 c 0
 58 82 37 127 37 179 c 0xcdc0
 37 218 51 256 78 291 c 0
 105 326 144 354 196 375 c 1
 136 402 106 441 106 492 c 0
 106 541 127 584 169 621 c 0
 211 657 263 675 324 675 c 0
 364 675 398 666 427 649 c 0
 456 631 470 611 470 590 c 0
 470 574 463 561 449 551 c 0
 435 540 416 534 391 531 c 1
 376 577 350 600 311 600 c 0
 284 600 261 591 243 574 c 0
 225 556 216 533 216 504 c 0
 216 485 224 468 240 451 c 0
 257 434 278 426 305 426 c 0x9bc0
 313 426 319 426 324 427 c 1
 325 415 326 407 326 404 c 0
 326 398 326 393 325 389 c 0
 324 384 323 380 321 377 c 0
 319 374 317 371 316 370 c 0
 315 368 312 366 308 365 c 0
 305 363 302 362 301 361 c 0
 300 360 297 359 292 358 c 0xcbc0
 287 357 284 356 283 356 c 0x9bc0
 244 346 212 326 188 296 c 0
 164 266 152 234 152 199 c 0
 152 162 164 131 188 104 c 0
 213 77 246 64 289 64 c 0
 348 64 396 83 433 122 c 0
 470 161 489 224 489 311 c 1
 480 313 471 314 463 314 c 0
 451 314 442 310 435 302 c 0
 428 293 425 283 425 270 c 0
 425 252 430 238 439 227 c 1
 429 206 411 196 384 196 c 0
 370 196 360 200 354 208 c 0
 347 216 344 225 344 236 c 0
 344 269 356 302 382 336 c 0
 406 371 437 388 472 388 c 0xadc0
EndSplineSet
Validated: 1
EndChar

StartChar: quotesingle
Encoding: 39 39 8
Width: 202
GlyphClass: 2
Flags: W
HStem: 475 260<115.462 163.391>
VStem: 113 110<603.956 723.622>
LayerCount: 2
Fore
SplineSet
113 706 m 0
 117 725 134 735 165 735 c 0
 181 735 195 731 206 724 c 0
 217 716 223 704 223 689 c 0
 223 680 217 656 205 615 c 0
 193 574 182 541 172 514 c 0
 162 488 146 475 125 475 c 0
 115 475 100 480 80 490 c 1
 89 513 97 554 103 612 c 0
 109 670 112 701 113 706 c 0
EndSplineSet
Validated: 1
Substitution2: "'c2sc' Capitals to Small Capitals in Latin lookup 0 subtable" quotesingle.sc
EndChar

StartChar: parenleft
Encoding: 40 40 9
Width: 353
GlyphClass: 2
Flags: W
HStem: 710 20G<329.5 347.5>
VStem: 78 102<-13.0768 332.707>
LayerCount: 2
Fore
SplineSet
258 -166 m 1
 257 -174 l 1
 242 -191 227 -199 210 -199 c 0
 198 -199 184 -189 169 -170 c 0
 154 -151 139 -125 126 -94 c 0
 113 -63 101 -24 92 22 c 0
 83 68 78 115 78 162 c 0
 78 228 88 297 109 368 c 0
 130 439 155 501 184 552 c 0
 213 603 241 646 270 680 c 0
 299 713 321 730 338 730 c 0
 357 730 373 720 384 701 c 1
 323 638 273 556 236 454 c 0
 199 353 180 251 180 150 c 0
 180 11 206 -94 258 -166 c 1
EndSplineSet
Validated: 1
Substitution2: "'sups' Superscript lookup 4-1" parenleft.superior
Substitution2: "'c2sc' Capitals to Small Capitals in Latin lookup 0 subtable" parenleft.sc
EndChar

StartChar: parenright
Encoding: 41 41 10
Width: 353
GlyphClass: 2
Flags: W
HStem: 710 20G<132.5 147>
VStem: 173 101<195.159 541.155>
LayerCount: 2
Fore
SplineSet
93 697 m 1
 94 705 l 1
 108 722 124 730 141 730 c 0
 153 730 167 720 182 700 c 0
 197 680 212 654 226 622 c 0
 239 591 251 552 260 506 c 0
 269 460 274 414 274 367 c 0
 274 298 263 227 242 154 c 0
 220 82 194 21 165 -28 c 0
 135 -78 106 -119 78 -151 c 0
 50 -183 29 -199 14 -199 c 0
 -5 -199 -20 -189 -31 -170 c 1
 30 -106 80 -24 117 78 c 0
 154 178 173 279 173 378 c 0
 173 442 166 503 152 560 c 0
 138 617 118 663 93 697 c 1
EndSplineSet
Validated: 1
Substitution2: "'sups' Superscript lookup 4-1" parenright.superior
Substitution2: "'c2sc' Capitals to Small Capitals in Latin lookup 0 subtable" parenright.sc
EndChar

StartChar: asterisk
Encoding: 42 42 11
Width: 468
GlyphClass: 2
Flags: W
HStem: 594 69<121.347 152.873> 722 20G<279 305.5>
VStem: 239 104<628.807 736.109>
LayerCount: 2
Fore
SplineSet
322 623 m 1
 370 655 401 676 414 686 c 1
 437 664 449 644 449 625 c 0
 449 608 440 595 422 586 c 0
 404 576 371 563 324 548 c 1
 347 521 376 491 412 456 c 1
 390 425 365 409 338 409 c 0
 325 409 314 413 304 421 c 0
 295 429 287 438 282 448 c 0
 277 458 269 475 258 499 c 1
 231 465 204 429 179 392 c 1
 162 399 146 407 133 418 c 0
 120 429 113 440 113 451 c 0
 113 456 115 462 120 469 c 0
 125 476 133 484 144 495 c 0
 155 505 165 513 172 520 c 0
 180 526 192 536 209 550 c 1
 190 559 152 573 94 594 c 1
 99 611 108 627 122 642 c 0
 134 656 149 663 165 663 c 0
 182 663 207 651 239 627 c 1
 240 647 241 664 241 679 c 0
 241 686 240 703 239 730 c 1
 255 738 271 742 287 742 c 0
 324 742 343 729 343 704 c 0
 343 692 336 665 322 623 c 1
EndSplineSet
Validated: 1
EndChar

StartChar: plus
Encoding: 43 43 12
Width: 574
GlyphClass: 2
Flags: W
HStem: 211 88<68.4248 238.095 334.228 501.575> 466 20G<271.5 288.5>
VStem: 234 105<33.3311 214.816 293.461 476.481> 242 89<66.7559 218 290 442.335>
LayerCount: 2
Fore
SplineSet
280 486 m 0xd0
 297 486 310 482 321 474 c 0
 332 466 338 456 338 443 c 0
 338 429 337 403 334 364 c 0
 332 326 331 301 331 289 c 1xd0
 400 289 460 292 511 299 c 1
 515 288 517 275 517 260 c 0
 517 247 512 235 502 225 c 0
 493 216 480 211 465 211 c 0
 452 211 429 212 395 214 c 0
 361 217 339 218 330 218 c 1
 330 150 333 87 339 28 c 1
 320 24 304 22 292 22 c 0
 277 22 263 26 251 33 c 0
 240 40 234 51 234 66 c 0xe0
 234 82 235 106 237 139 c 0
 240 172 241 198 241 219 c 1
 179 218 119 215 60 210 c 1
 57 223 56 236 56 248 c 0
 56 261 60 272 68 282 c 0
 77 292 90 297 108 297 c 0
 123 297 144 296 172 294 c 0
 199 291 223 290 242 290 c 1
 242 364 239 427 233 479 c 1
 247 484 263 486 280 486 c 0xd0
EndSplineSet
Validated: 1
Substitution2: "'sups' Superscript lookup 4-1" plus.superior
EndChar

StartChar: comma
Encoding: 44 44 13
Width: 215
GlyphClass: 2
Flags: W
HStem: -154 53<-15.7142 40.1922>
VStem: 68 90<-44.718 57.5>
LayerCount: 2
Fore
SplineSet
98 120 m 0
 115 120 129 114 140 101 c 0
 152 89 158 70 158 45 c 0
 158 3 143 -41 113 -86 c 0
 83 -131 48 -154 7 -154 c 0
 -8 -154 -16 -145 -16 -127 c 0
 -16 -117 -15 -108 -12 -101 c 1
 -8 -101 l 2
 11 -101 29 -93 44 -76 c 0
 60 -59 68 -42 68 -23 c 0
 68 4 55 20 30 25 c 1
 27 35 25 44 25 51 c 0
 25 70 32 86 46 99 c 0
 59 112 77 119 98 120 c 0
EndSplineSet
Validated: 1
EndChar

StartChar: hyphen
Encoding: 45 45 14
Width: 251
GlyphClass: 2
Flags: W
HStem: 228 75<36.7218 231.574>
VStem: 25 221<241.565 292.87>
LayerCount: 2
Fore
SplineSet
243 309 m 1
 245 301 246 293 246 286 c 0
 246 268 241 253 232 241 c 0
 223 229 209 223 190 223 c 0
 183 223 171 224 156 226 c 0
 141 227 128 228 117 228 c 0
 89 228 59 224 26 217 c 1
 25 221 25 227 25 236 c 0
 25 281 44 303 81 303 c 0
 86 303 97 302 114 301 c 0
 132 300 147 299 159 299 c 0
 189 299 217 302 243 309 c 1
EndSplineSet
Validated: 1
Substitution2: "'sups' Superscript lookup 4-1" hyphen.superior
EndChar

StartChar: period
Encoding: 46 46 15
Width: 223
GlyphClass: 2
Flags: W
HStem: -10 153<58.3564 139.932>
VStem: 29 138<17.6054 113.141>
LayerCount: 2
Fore
SplineSet
89 -10 m 0
 72 -10 58 -4 46 8 c 0
 35 19 29 35 29 54 c 0
 29 77 37 98 53 116 c 0
 69 134 88 143 109 143 c 0
 126 143 140 137 150 124 c 0
 162 112 167 97 167 78 c 0
 167 54 160 33 144 16 c 0
 130 -1 111 -10 89 -10 c 0
EndSplineSet
Validated: 1
EndChar

StartChar: slash
Encoding: 47 47 16
Width: 261
GlyphClass: 2
Flags: W
HStem: 722 20G<225 270>
VStem: -15 72<-120.516 -28.6968> 225 73<651.006 737>
LayerCount: 2
Fore
SplineSet
256 742 m 1
 284 742 298 735 298 721 c 0
 298 714 287 671 264 593 c 0
 241 514 218 440 197 369 c 0
 175 298 163 260 161 254 c 0
 108 87 74 -36 57 -117 c 1
 42 -120 31 -122 23 -122 c 0
 -2 -122 -15 -114 -15 -99 c 0
 -15 -91 44 111 162 507 c 0
 192 608 213 685 225 737 c 1
 256 742 l 1
EndSplineSet
Validated: 1
EndChar

StartChar: zero
Encoding: 48 48 17
Width: 574
GlyphClass: 2
Flags: W
HStem: -10 74<202.137 313.096> 599 74<261.743 375.61>
VStem: 40 114<130.585 410.34> 423 110<252.873 532.121>
LayerCount: 2
Fore
SplineSet
241 -10 m 0
 180 -10 132 13 95 59 c 0
 58 105 40 167 40 246 c 0
 40 320 52 389 76 454 c 0
 101 519 136 571 181 612 c 0
 227 653 278 673 335 673 c 0
 396 673 444 650 479 604 c 0
 515 559 533 496 533 417 c 0
 533 344 521 275 498 210 c 0
 475 145 440 92 395 52 c 0
 350 10 298 -10 241 -10 c 0
154 275 m 0
 154 214 162 164 178 124 c 0
 194 84 218 64 250 64 c 0
 284 64 314 80 341 112 c 0
 368 144 389 185 402 234 c 0
 416 283 423 335 423 390 c 0
 423 449 415 498 399 538 c 0
 383 579 359 599 326 599 c 0
 277 599 236 567 203 504 c 0
 170 441 154 364 154 275 c 0
EndSplineSet
Validated: 1
Substitution2: "'onum' Oldstyle Figures lookup 5-1" zero.oldstyle
Substitution2: "'sups' Superscript lookup 4-1" zero.superior
Substitution2: "'c2sc' Capitals to Small Capitals in Latin lookup 0 subtable" zero.sc
EndChar

StartChar: one
Encoding: 49 49 18
Width: 574
GlyphClass: 2
Flags: W
HStem: -1 72<109.703 227.844 329 414.668> 577 80<188.332 289.665> 653 20G<357.5 380.5>
VStem: 102 324<13.5171 62.516>
LayerCount: 2
Fore
SplineSet
329 68 m 1xb0
 371 68 403 69 424 72 c 1
 425 64 426 57 426 52 c 0
 426 37 422 24 415 13 c 0
 408 3 396 -2 380 -2 c 0
 375 -2 353 -2 314 -1 c 0
 275 -0 241 -0 212 -0 c 0
 161 -0 125 -0 104 -1 c 1
 103 8 102 15 102 19 c 0
 102 54 122 71 161 71 c 2
 225 71 l 1
 226 76 238 170 263 353 c 0
 280 484 289 563 292 590 c 1
 242 587 204 582 178 577 c 1
 178 604 181 623 188 635 c 0
 195 647 207 654 226 657 c 0xd0
 299 668 347 673 368 673 c 0
 393 673 406 663 406 643 c 0
 406 638 403 620 398 590 c 0
 393 559 386 518 377 467 c 0
 368 415 361 366 355 319 c 0
 339 191 330 107 329 68 c 1xb0
EndSplineSet
Validated: 1
Substitution2: "'onum' Oldstyle Figures lookup 5-1" one.oldstyle
Substitution2: "'sups' Superscript lookup 4-1" one.superior
Substitution2: "'c2sc' Capitals to Small Capitals in Latin lookup 0 subtable" one.sc
EndChar

StartChar: two
Encoding: 50 50 19
Width: 574
GlyphClass: 2
Flags: W
HStem: -2 78<146 430.714> 598 75<226.6 354.625>
VStem: 384 107<415.177 568.35>
LayerCount: 2
Fore
SplineSet
155 513 m 1
 124 518 109 533 109 557 c 0
 109 584 132 610 178 635 c 0
 225 660 272 673 321 673 c 0
 368 673 408 660 441 633 c 0
 474 606 491 569 491 520 c 0
 491 501 488 482 483 462 c 0
 478 443 473 425 467 409 c 0
 461 394 451 376 436 355 c 0
 421 335 410 319 401 306 c 0
 392 294 377 277 354 256 c 0
 332 235 316 220 307 210 c 0
 298 202 280 186 253 164 c 0
 226 141 208 127 201 121 c 0
 194 115 175 100 146 77 c 1
 159 76 181 76 213 76 c 0
 279 76 328 78 359 81 c 0
 390 84 422 92 455 104 c 1
 460 85 462 68 462 52 c 0
 462 32 452 19 432 12 c 0
 405 3 350 -2 269 -2 c 0
 243 -2 206 -2 159 -1 c 0
 112 -0 79 0 60 0 c 0
 34 -0 21 12 21 37 c 0
 21 43 22 51 24 60 c 1
 52 87 87 119 130 156 c 0
 173 193 206 223 232 246 c 0
 256 269 282 295 308 324 c 0
 335 353 354 382 366 410 c 0
 378 438 384 467 384 498 c 0
 384 529 376 553 360 571 c 0
 343 589 323 598 298 598 c 0
 274 598 249 590 223 574 c 0
 197 559 174 538 155 513 c 1
EndSplineSet
Validated: 1
Substitution2: "'onum' Oldstyle Figures lookup 5-1" two.oldstyle
Substitution2: "'sups' Superscript lookup 4-1" two.superior
Substitution2: "'c2sc' Capitals to Small Capitals in Latin lookup 0 subtable" two.sc
EndChar

StartChar: three
Encoding: 51 51 20
Width: 574
GlyphClass: 2
Flags: W
HStem: -11 75<110.414 270.905> 320 60<169.943 282.834> 599 74<220.079 341.368>
VStem: 341 112<134.196 271.405> 364 111<463.004 576.182>
LayerCount: 2
Fore
SplineSet
337 364 m 1xe8
 376 349 405 328 424 301 c 0
 443 274 453 245 453 214 c 0
 453 157 427 106 375 59 c 0
 323 12 259 -11 182 -11 c 0
 135 -11 99 -5 75 7 c 0
 52 18 40 32 40 47 c 0
 40 62 45 75 56 86 c 0
 67 96 79 102 94 104 c 1
 111 77 143 64 189 64 c 0
 235 64 272 79 299 108 c 0
 327 137 341 169 341 206 c 0xf0
 341 239 329 266 304 288 c 0
 280 309 244 320 195 320 c 0
 178 320 169 331 169 352 c 0
 169 360 170 369 173 380 c 1
 234 380 281 394 314 421 c 0
 347 448 364 481 364 518 c 0
 364 541 357 561 343 576 c 0
 330 591 311 599 287 599 c 0
 266 599 244 592 223 579 c 0
 202 566 183 546 168 521 c 1
 153 521 142 525 134 534 c 0
 126 542 122 552 122 564 c 0
 122 588 142 612 183 637 c 0
 224 661 267 673 314 673 c 0
 364 673 403 660 432 635 c 0
 461 609 475 578 475 541 c 0
 475 470 429 411 337 364 c 1xe8
EndSplineSet
Validated: 1
Substitution2: "'onum' Oldstyle Figures lookup 5-1" three.oldstyle
Substitution2: "'sups' Superscript lookup 4-1" three.superior
Substitution2: "'c2sc' Capitals to Small Capitals in Latin lookup 0 subtable" three.sc
EndChar

StartChar: four
Encoding: 52 52 21
Width: 574
GlyphClass: 2
Flags: W
HStem: -10 21G<321.5 345> 200 77<138.758 304 412 500.301> 654 20G<405.5 432.5>
VStem: 281 109<-0.958738 191.85>
LayerCount: 2
Fore
SplineSet
349 548 m 1
 278 469 207 379 136 278 c 1
 150 277 171 277 200 277 c 0
 241 277 279 278 315 280 c 1
 332 420 l 2
 340 481 346 524 349 548 c 1
356 661 m 0
 370 670 391 674 420 674 c 0
 445 674 463 673 474 671 c 1
 471 655 467 629 460 592 c 0
 453 555 448 525 444 500 c 0
 439 475 434 443 428 403 c 0
 422 363 417 323 412 283 c 1
 460 287 492 293 508 300 c 1
 511 285 513 273 513 262 c 0
 513 253 512 245 511 238 c 0
 509 231 506 226 501 222 c 0
 496 217 492 214 488 211 c 0
 485 208 479 207 470 206 c 0
 461 205 455 204 450 203 c 0
 446 202 438 202 427 202 c 0
 416 201 408 201 403 201 c 1
 394 144 390 96 390 57 c 0
 390 34 391 15 394 -2 c 1
 380 -7 359 -10 331 -10 c 0
 312 -10 299 -7 292 -1 c 0
 285 5 281 15 281 28 c 0
 281 41 289 99 304 200 c 1
 172 200 89 202 54 207 c 0
 43 209 37 220 37 239 c 0
 37 255 39 270 44 284 c 0
 77 334 130 403 202 490 c 0
 274 578 325 635 356 661 c 0
EndSplineSet
Validated: 1
Substitution2: "'onum' Oldstyle Figures lookup 5-1" four.oldstyle
Substitution2: "'sups' Superscript lookup 4-1" four.superior
Substitution2: "'c2sc' Capitals to Small Capitals in Latin lookup 0 subtable" four.sc
EndChar

StartChar: five
Encoding: 53 53 22
Width: 574
GlyphClass: 2
Flags: W
HStem: -10 74<121.823 267.106> 364 72<211 293.912> 577 85<246 485.631> 650 20G<479.5 495.5>
VStem: 350 111<155.146 307.864>
LayerCount: 2
Fore
SplineSet
417 577 m 0xe8
 373 577 316 579 246 582 c 1
 211 432 l 1
 228 435 247 436 268 436 c 0
 332 436 380 420 412 389 c 0
 445 358 461 316 461 263 c 0
 461 189 435 125 383 71 c 0
 332 17 266 -10 186 -10 c 0
 139 -10 103 -4 79 8 c 0
 56 20 44 34 44 49 c 0
 44 78 62 97 98 105 c 1
 107 90 118 80 129 73 c 0
 140 67 159 64 186 64 c 0
 234 64 273 81 304 116 c 0
 335 151 350 191 350 234 c 0
 350 271 338 302 313 327 c 0
 288 352 253 364 208 364 c 0
 181 364 156 362 133 359 c 1
 129 366 127 377 127 394 c 0
 127 395 143 485 174 664 c 1
 193 663 262 662 381 662 c 0xe8
 428 662 465 665 494 670 c 1xd8
 497 661 499 647 499 629 c 0
 496 594 468 577 417 577 c 0xe8
EndSplineSet
Validated: 1
Substitution2: "'onum' Oldstyle Figures lookup 5-1" five.oldstyle
Substitution2: "'sups' Superscript lookup 4-1" five.superior
Substitution2: "'c2sc' Capitals to Small Capitals in Latin lookup 0 subtable" five.sc
EndChar

StartChar: six
Encoding: 54 54 23
Width: 574
GlyphClass: 2
Flags: W
HStem: -10 75<209.065 326.45> 327 74<244.808 347.493> 598 75<348.105 483.46>
VStem: 66 109<101.402 289.582> 381 110<139.294 292.86>
LayerCount: 2
Fore
SplineSet
286 327 m 0
 253 327 218 313 182 285 c 1
 177 262 175 235 175 204 c 0
 175 111 205 65 265 65 c 0
 300 65 328 81 350 112 c 0
 370 143 381 179 381 220 c 0
 381 253 372 280 355 298 c 0
 338 318 315 327 286 327 c 0
245 -10 m 0
 184 -10 138 9 110 48 c 0
 80 87 66 137 66 198 c 0
 66 252 75 307 94 363 c 0
 113 419 138 470 170 516 c 0
 202 562 243 600 292 629 c 0
 341 658 394 673 450 673 c 0
 474 673 486 661 486 638 c 0
 486 623 481 608 472 594 c 1
 459 597 449 598 442 598 c 0
 379 598 326 574 282 526 c 0
 238 477 208 418 193 348 c 1
 242 383 288 401 333 401 c 0
 378 401 416 386 446 356 c 0
 476 325 491 285 491 235 c 0
 491 174 467 118 420 66 c 0
 372 16 314 -10 245 -10 c 0
EndSplineSet
Validated: 1
Substitution2: "'onum' Oldstyle Figures lookup 5-1" six.oldstyle
Substitution2: "'sups' Superscript lookup 4-1" six.superior
Substitution2: "'c2sc' Capitals to Small Capitals in Latin lookup 0 subtable" six.sc
EndChar

StartChar: seven
Encoding: 55 55 24
Width: 574
GlyphClass: 2
Flags: W
HStem: -10 21G<107.5 128.5> 574 88<115.504 417> 650 20G<109.5 130>
LayerCount: 2
Fore
SplineSet
47 44 m 1xc0
 110 99 177 180 247 287 c 0
 317 393 374 490 417 578 c 1
 336 575 252 574 165 574 c 0xc0
 122 574 101 590 101 622 c 0
 101 638 105 654 114 670 c 1xa0
 146 665 183 662 224 662 c 0
 397 662 500 663 533 664 c 1
 535 655 536 646 536 637 c 0
 536 619 532 603 525 589 c 0
 519 574 507 551 489 520 c 0
 470 488 447 450 420 405 c 0
 392 360 367 320 344 285 c 0
 321 249 294 206 262 157 c 0
 231 107 210 74 200 59 c 0
 182 30 167 12 156 3 c 0
 145 -6 134 -10 123 -10 c 0
 92 -10 67 8 47 44 c 1xc0
EndSplineSet
Validated: 1
Substitution2: "'onum' Oldstyle Figures lookup 5-1" seven.oldstyle
Substitution2: "'sups' Superscript lookup 4-1" seven.superior
Substitution2: "'c2sc' Capitals to Small Capitals in Latin lookup 0 subtable" seven.sc
EndChar

StartChar: eight
Encoding: 56 56 25
Width: 574
GlyphClass: 2
Flags: W
HStem: -10 74<198.846 331.434> 599 74<266.731 389.635>
VStem: 57 108<98.1243 243.704> 131 104<455.914 568.259> 385 109<120.903 263.962> 411 102<467.613 580.015>
LayerCount: 2
Fore
SplineSet
235 513 m 0xd4
 235 471 263 437 319 412 c 1
 380 443 411 483 411 534 c 0
 411 553 403 569 388 581 c 0
 373 593 354 599 331 599 c 0
 304 599 282 591 263 575 c 0
 244 559 235 538 235 513 c 0xd4
385 199 m 0xe8
 385 226 377 249 360 268 c 0
 343 286 316 304 280 321 c 1
 203 284 165 232 165 164 c 0
 165 136 174 112 191 93 c 0
 208 74 231 64 261 64 c 0
 298 64 328 77 351 104 c 0
 374 131 385 163 385 199 c 0xe8
57 148 m 0
 57 199 71 243 99 280 c 0
 126 317 163 344 208 363 c 1
 157 397 131 442 131 498 c 0
 131 549 152 591 193 624 c 0
 234 657 283 673 342 673 c 0
 397 673 439 660 469 635 c 0
 498 610 513 578 513 540 c 0xd4
 513 509 503 478 482 448 c 0
 461 418 431 392 392 370 c 1
 425 349 451 326 468 302 c 0
 485 278 494 247 494 208 c 0
 494 149 472 98 429 55 c 0
 386 12 326 -10 250 -10 c 0
 189 -10 141 5 108 36 c 0
 74 67 57 104 57 148 c 0
EndSplineSet
Validated: 1
Substitution2: "'onum' Oldstyle Figures lookup 5-1" eight.oldstyle
Substitution2: "'sups' Superscript lookup 4-1" eight.superior
Substitution2: "'c2sc' Capitals to Small Capitals in Latin lookup 0 subtable" eight.sc
EndChar

StartChar: nine
Encoding: 57 57 26
Width: 574
GlyphClass: 2
Flags: W
HStem: -10 76<96.54 232.499> 262 75<232.951 341.544> 598 76<253.55 370.885>
VStem: 89 110<371.14 525.282> 405 108<375.176 560.708>
LayerCount: 2
Fore
SplineSet
294 337 m 0
 327 337 362 351 398 379 c 1
 403 402 405 428 405 458 c 0
 405 551 375 598 315 598 c 0
 280 598 252 582 230 552 c 0
 210 520 199 485 199 444 c 0
 199 411 208 384 225 366 c 0
 242 346 265 337 294 337 c 0
335 674 m 0
 396 674 441 655 470 616 c 0
 499 577 513 527 513 466 c 0
 513 393 498 320 467 248 c 0
 436 176 391 115 331 65 c 0
 271 15 204 -10 130 -10 c 0
 106 -10 94 2 94 26 c 0
 94 41 99 56 108 70 c 1
 121 67 131 66 138 66 c 0
 199 66 251 89 294 135 c 0
 337 181 367 239 386 308 c 1
 337 277 293 262 252 262 c 0
 207 262 168 277 136 308 c 0
 105 339 89 379 89 429 c 0
 89 490 113 546 160 598 c 0
 208 648 266 674 335 674 c 0
EndSplineSet
Validated: 1
Substitution2: "'onum' Oldstyle Figures lookup 5-1" nine.oldstyle
Substitution2: "'sups' Superscript lookup 4-1" nine.superior
Substitution2: "'c2sc' Capitals to Small Capitals in Latin lookup 0 subtable" nine.sc
EndChar

StartChar: colon
Encoding: 58 58 27
Width: 244
GlyphClass: 2
Flags: W
HStem: -10 153<58.3564 140.677> 331 153<105.356 187.446>
VStem: 29 138<16.7998 113.141> 76 138<357.8 454.449>
LayerCount: 2
Fore
SplineSet
136 331 m 0xd0
 119 331 105 337 94 348 c 0
 82 360 76 376 76 395 c 0
 76 418 84 439 100 457 c 0
 116 475 135 484 156 484 c 0
 173 484 186 478 198 466 c 0
 208 453 214 438 214 419 c 0
 214 395 206 374 192 357 c 0
 176 340 158 331 136 331 c 0xd0
89 -10 m 0
 72 -10 58 -4 47 8 c 0
 35 19 29 35 29 54 c 0
 29 77 37 98 53 116 c 0
 69 134 88 143 109 143 c 0
 126 143 140 137 151 124 c 0
 162 112 167 97 167 78 c 0xe0
 167 54 160 33 145 16 c 0
 130 -1 111 -10 89 -10 c 0
EndSplineSet
Validated: 1
EndChar

StartChar: semicolon
Encoding: 59 59 28
Width: 231
GlyphClass: 2
Flags: W
HStem: -154 53<-15.7142 40.1922> 331 153<77.3564 158.701>
VStem: 48 138<358.605 454.141> 68 90<-44.718 57.5>
LayerCount: 2
Fore
SplineSet
98 120 m 0xd0
 115 120 129 114 140 101 c 0
 152 89 158 70 158 45 c 0
 158 3 143 -41 113 -86 c 0
 83 -131 48 -154 7 -154 c 0
 -8 -154 -16 -145 -16 -127 c 0
 -16 -117 -15 -108 -12 -101 c 1
 -8 -101 l 2
 11 -101 29 -93 44 -76 c 0
 60 -59 68 -42 68 -23 c 0
 68 4 55 20 30 25 c 1
 27 35 25 44 25 51 c 0
 25 70 32 86 46 99 c 0
 59 112 77 119 98 120 c 0xd0
108 331 m 0
 91 331 77 337 65 348 c 0
 54 360 48 376 48 395 c 0
 48 418 56 439 72 457 c 0
 88 475 107 484 128 484 c 0
 145 484 158 478 169 465 c 0
 180 453 186 438 186 419 c 0xe0
 186 395 178 374 163 357 c 0
 148 340 130 331 108 331 c 0
EndSplineSet
Validated: 1
EndChar

StartChar: less
Encoding: 60 60 29
Width: 574
GlyphClass: 2
Flags: W
LayerCount: 2
Fore
SplineSet
456 436 m 1
 217 252 l 1
 285 178 347 113 402 58 c 1
 385 31 362 18 334 18 c 0
 319 18 308 22 299 31 c 2
 111 253 l 1
 361 465 l 2
 372 474 384 478 397 478 c 0
 424 478 443 464 456 436 c 1
EndSplineSet
Validated: 1
EndChar

StartChar: equal
Encoding: 61 61 30
Width: 574
GlyphClass: 2
Flags: W
HStem: 113 88<91.4248 287.824 292.971 481.529> 113 79<197 481.529> 121 71<131.339 443.057> 309 88<91.4248 287.824 292.971 481.529> 309 79<197 481.529> 317 71<131.339 443.057>
LayerCount: 2
Fore
SplineSet
496 162 m 0x80
 496 148 491 136 482 127 c 0
 472 118 459 113 444 113 c 0x80
 424 113 397 114 364 117 c 0
 330 120 306 121 291 121 c 0x20
 225 121 156 118 84 111 c 1
 81 127 79 140 79 150 c 0
 79 163 83 174 91 184 c 0
 100 194 113 199 131 199 c 0
 138 199 160 198 197 196 c 0
 234 193 264 192 289 192 c 0x40
 374 192 441 195 490 201 c 1
 494 189 496 176 496 162 c 0x80
496 358 m 0
 496 344 491 332 482 323 c 0
 472 314 459 309 444 309 c 0x10
 424 309 397 310 364 313 c 0
 330 316 306 317 291 317 c 0x04
 225 317 156 314 84 307 c 1
 81 323 79 336 79 346 c 0
 79 359 83 370 91 380 c 0
 100 390 113 395 131 395 c 0
 138 395 160 394 197 392 c 0
 234 389 264 388 289 388 c 0x08
 374 388 441 391 490 397 c 1x10
 494 385 496 372 496 358 c 0
EndSplineSet
Validated: 1
EndChar

StartChar: greater
Encoding: 62 62 31
Width: 574
GlyphClass: 2
Flags: W
LayerCount: 2
Fore
SplineSet
109 60 m 1
 348 244 l 1
 280 318 218 383 163 438 c 1
 180 465 203 478 231 478 c 0
 246 478 257 474 266 465 c 2
 454 243 l 1
 204 31 l 2
 193 22 181 18 168 18 c 0
 141 18 122 32 109 60 c 1
EndSplineSet
Validated: 1
EndChar

StartChar: question
Encoding: 63 63 32
Width: 382
GlyphClass: 2
Flags: W
HStem: -10 153<105.356 187.446> 616 68<166.602 271.134>
VStem: 76 138<16.7998 113.141> 97 103<219.5 329.377> 282 103<498.212 605.086>
LayerCount: 2
Fore
SplineSet
136 -10 m 0xe8
 119 -10 105 -4 94 8 c 0
 82 19 76 35 76 54 c 0
 76 77 84 98 100 116 c 0
 116 134 135 143 156 143 c 0
 173 143 186 137 198 124 c 0
 208 112 214 97 214 78 c 0
 214 54 206 33 192 16 c 0
 176 -1 158 -10 136 -10 c 0xe8
204 223 m 1
 194 216 l 2
 179 209 164 205 149 205 c 0
 114 205 97 222 97 257 c 0xd8
 97 286 105 313 121 337 c 0
 138 361 162 388 193 418 c 0
 212 436 226 450 235 461 c 0
 245 472 255 488 266 507 c 0
 277 527 282 546 282 565 c 0
 282 582 277 595 268 603 c 0
 258 612 245 616 230 616 c 0
 209 616 188 609 166 594 c 0
 146 579 131 561 124 539 c 1
 79 548 57 563 57 585 c 0
 57 614 74 637 108 656 c 0
 141 675 180 684 223 684 c 0
 268 684 307 674 338 654 c 0
 369 633 385 602 385 561 c 0
 385 510 351 454 282 393 c 0
 263 376 249 364 240 355 c 0
 232 346 223 333 214 315 c 0xe8
 205 297 200 278 200 258 c 0xd8
 200 246 201 234 204 223 c 1
EndSplineSet
Validated: 1
Substitution2: "'c2sc' Capitals to Small Capitals in Latin lookup 0 subtable" question.sc
EndChar

StartChar: at
Encoding: 64 64 33
Width: 862
GlyphClass: 2
Flags: W
HStem: -109 77<270.849 472.697> 54 76<334.5 418.171> 69 64<546.5 623.47> 375 68<414.659 504.601> 518 72<414.087 617.96>
VStem: 85 99<54.052 256.1> 256 106<131.486 275.82> 689 107<268.142 449.009>
LayerCount: 2
Fore
SplineSet
349 54 m 0xdf
 320 54 298 63 281 82 c 0
 264 101 256 128 256 164 c 0
 256 233 279 297 324 356 c 0
 370 414 422 443 479 443 c 0
 540 443 589 428 627 397 c 1
 582 286 560 210 560 170 c 0
 560 145 568 133 583 133 c 0
 608 133 631 155 654 200 c 0
 677 245 689 297 689 356 c 0
 689 464 631 518 514 518 c 0
 455 518 399 498 347 459 c 0
 295 420 255 372 226 314 c 0
 198 258 184 201 184 146 c 0
 184 93 200 50 232 18 c 0
 264 -16 312 -32 376 -32 c 0
 449 -32 497 -8 520 41 c 1
 556 30 574 13 574 -10 c 0
 574 -39 552 -63 508 -81 c 0
 465 -100 414 -109 356 -109 c 0
 266 -109 198 -86 153 -41 c 0
 108 4 85 61 85 132 c 0
 85 184 97 237 120 292 c 0
 143 346 175 395 215 439 c 0
 255 483 304 519 363 548 c 0
 422 576 483 590 548 590 c 0
 625 590 686 570 730 531 c 0
 774 491 796 439 796 376 c 0
 796 325 782 276 755 227 c 0
 728 178 696 140 659 112 c 0
 622 83 587 69 556 69 c 0xbf
 537 69 521 76 508 88 c 0
 496 102 489 121 486 146 c 1
 469 117 448 95 422 78 c 0
 398 62 373 54 349 54 c 0xdf
464 194 m 0
 469 211 478 241 489 283 c 0
 501 325 507 347 508 350 c 0
 493 367 477 375 460 375 c 0
 434 375 411 357 391 320 c 0
 372 283 362 240 362 193 c 0
 362 151 372 130 392 130 c 0xdf
 421 130 445 151 464 194 c 0
EndSplineSet
Validated: 1
EndChar

StartChar: A
Encoding: 65 65 34
Width: 541
GlyphClass: 2
Flags: W
HStem: -13 21G<61 80 440.5 465> 199 75<205 353>
VStem: -10 87<0.329597 38.1549>
LayerCount: 2
Fore
SplineSet
353 275 m 1
 332 362 317 442 308 514 c 1
 271 421 237 341 205 276 c 1
 241 275 271 274 294 274 c 0
 321 274 340 274 353 275 c 1
269 199 m 0
 254 199 221 200 170 201 c 1
 114 76 83 5 77 -13 c 1
 45 -10 22 -6 9 0 c 0
 -4 7 -10 16 -10 29 c 0
 -10 40 -4 58 9 85 c 0
 22 112 43 154 72 210 c 0
 101 267 127 321 150 374 c 0
 155 385 166 409 183 446 c 0
 201 483 217 518 230 550 c 0
 244 582 258 617 271 656 c 1
 290 661 310 663 329 663 c 0
 347 663 360 659 369 652 c 0
 378 645 385 631 389 610 c 0
 390 608 398 564 414 479 c 0
 429 394 443 328 454 280 c 0
 483 151 507 61 525 10 c 1
 500 -3 476 -10 454 -10 c 0
 427 -10 411 2 406 27 c 0
 385 124 373 182 370 201 c 1
 315 200 282 199 269 199 c 0
EndSplineSet
Validated: 1
Substitution2: "'c2sc' Capitals to Small Capitals in Latin lookup 0 subtable" a.sc
EndChar

StartChar: B
Encoding: 66 66 35
Width: 525
GlyphClass: 2
Flags: W
HStem: -10 69<177.386 310.811> 323 66<210.7 329.634> 596 77<231.881 358.079>
VStem: 368 115<119.77 284.761> 385 115<436.59 569.619>
LayerCount: 2
Fore
SplineSet
279 596 m 0xe8
 268 596 252 595 232 592 c 1
 221 488 214 421 210 391 c 1
 225 390 236 389 245 389 c 0
 338 389 385 429 385 509 c 0
 385 567 350 596 279 596 c 0xe8
245 59 m 0
 279 59 308 73 332 100 c 0
 356 128 368 165 368 210 c 0xf0
 368 247 358 275 338 294 c 0
 319 313 294 323 265 323 c 0
 235 323 213 321 200 318 c 1
 191 255 178 181 160 95 c 1
 168 86 180 77 197 70 c 0
 214 63 230 59 245 59 c 0
48 56 m 1
 67 130 85 240 104 387 c 0
 120 510 128 601 128 660 c 1
 177 669 229 673 284 673 c 0
 325 673 360 669 391 661 c 0
 422 653 448 638 468 615 c 0
 490 593 500 565 500 530 c 0xe8
 500 448 464 392 393 362 c 1
 426 346 450 328 463 307 c 0
 476 287 483 260 483 227 c 0
 483 156 460 98 415 55 c 0
 370 12 315 -10 251 -10 c 0
 158 -10 90 12 48 56 c 1
EndSplineSet
Validated: 1
Substitution2: "'c2sc' Capitals to Small Capitals in Latin lookup 0 subtable" b.sc
EndChar

StartChar: C
Encoding: 67 67 36
Width: 535
GlyphClass: 2
Flags: W
HStem: -10 77<233.605 369.408> 596 77<283.116 421.6>
VStem: 46 116<157.847 419.874>
LayerCount: 2
Fore
SplineSet
423 150 m 1
 466 134 488 113 488 87 c 0
 488 62 468 39 430 20 c 0
 390 -0 344 -10 291 -10 c 0
 215 -10 155 15 112 64 c 0
 68 114 46 181 46 264 c 0
 46 385 78 483 142 559 c 0
 206 635 289 673 390 673 c 0
 436 673 474 664 504 644 c 0
 535 626 550 602 550 574 c 0
 550 553 542 536 526 523 c 0
 510 510 489 501 464 498 c 1
 458 531 445 555 425 572 c 0
 405 588 383 596 358 596 c 0
 301 596 254 565 217 504 c 0
 180 442 162 371 162 290 c 0
 162 224 174 170 198 129 c 0
 221 88 256 67 301 67 c 0
 351 67 392 95 423 150 c 1
EndSplineSet
Validated: 1
Substitution2: "'c2sc' Capitals to Small Capitals in Latin lookup 0 subtable" c.sc
EndChar

StartChar: D
Encoding: 68 68 37
Width: 598
GlyphClass: 2
Flags: W
HStem: -10 77<181.808 343.61> 596 77<234.155 374.143>
VStem: 463 117<250.479 502.177>
LayerCount: 2
Fore
SplineSet
48 53 m 1
 67 142 85 244 101 359 c 0
 117 474 126 575 128 661 c 1
 166 669 216 673 277 673 c 0
 479 673 580 583 580 404 c 0
 580 332 567 265 542 204 c 0
 516 142 476 91 424 50 c 0
 370 10 309 -10 239 -10 c 0
 154 -10 90 11 48 53 c 1
234 592 m 1
 220 423 197 260 164 103 c 1
 188 79 220 67 261 67 c 0
 298 67 330 77 357 98 c 0
 384 118 405 144 420 177 c 0
 435 210 446 243 452 277 c 0
 460 311 463 345 463 379 c 0
 463 451 448 505 416 542 c 0
 386 578 341 596 284 596 c 0
 272 596 255 595 234 592 c 1
EndSplineSet
Validated: 1
Substitution2: "'c2sc' Capitals to Small Capitals in Latin lookup 0 subtable" d.sc
EndChar

StartChar: E
Encoding: 69 69 38
Width: 470
GlyphClass: 2
Flags: W
HStem: -3 80<172 404.476> 315 79<209 363.068> 585 80<232.385 470.564>
VStem: 57 115<77 220.719> 124 107<398.529 583.241>
LayerCount: 2
Fore
SplineSet
463 564 m 1xe8
 435 578 386 585 315 585 c 0
 291 585 263 584 231 582 c 1xe8
 230 550 222 487 209 394 c 1
 295 394 348 395 368 398 c 1
 369 389 370 379 370 370 c 0
 370 336 356 318 328 316 c 0
 313 315 270 315 198 315 c 1
 181 174 172 94 172 77 c 1
 189 76 211 75 237 75 c 0
 270 75 304 77 338 82 c 0
 372 87 394 92 405 99 c 1
 414 75 418 55 418 40 c 0
 418 21 407 9 384 4 c 0
 362 -1 320 -3 257 -3 c 0
 168 -3 114 -2 95 -1 c 0
 81 -0 71 3 65 8 c 0
 60 14 57 23 57 34 c 0xf0
 57 53 68 143 90 306 c 0
 113 469 124 577 124 631 c 0
 124 643 124 651 123 656 c 1
 192 662 260 665 328 665 c 0
 419 665 469 660 480 650 c 0
 483 643 485 633 485 622 c 0
 485 602 478 583 463 564 c 1xe8
EndSplineSet
Validated: 1
Substitution2: "'c2sc' Capitals to Small Capitals in Latin lookup 0 subtable" e.sc
EndChar

StartChar: F
Encoding: 70 70 39
Width: 448
GlyphClass: 2
Flags: W
HStem: -3 21G<96.5 124.5> 315 79<209 363.068> 582 83<231 466.672>
VStem: 57 115<5.48404 220.533> 124 107<398.607 582>
LayerCount: 2
Fore
SplineSet
231 582 m 1xe8
 230 550 222 487 209 394 c 1
 295 394 348 395 368 398 c 1
 369 389 370 379 370 370 c 0
 370 336 356 318 328 316 c 0
 313 315 270 315 198 315 c 1
 196 298 193 273 189 242 c 0
 185 211 182 188 180 173 c 0
 178 158 176 140 174 120 c 0
 173 99 172 81 172 66 c 0
 172 43 173 23 176 5 c 1
 153 -0 133 -3 116 -3 c 0
 77 -3 57 14 57 49 c 0xf0
 57 54 68 140 90 305 c 0
 113 470 124 579 124 631 c 0
 124 643 124 651 123 656 c 1
 192 662 262 665 333 665 c 0
 424 665 474 660 485 650 c 1
 488 640 490 631 490 622 c 0
 490 601 483 582 468 564 c 1
 440 578 391 585 320 585 c 0
 293 585 263 584 231 582 c 1xe8
EndSplineSet
Validated: 1
Substitution2: "'c2sc' Capitals to Small Capitals in Latin lookup 0 subtable" f.sc
EndChar

StartChar: G
Encoding: 71 71 40
Width: 566
GlyphClass: 2
Flags: W
HStem: -10 77<233.105 373.288> 596 77<283.116 421.606>
VStem: 46 116<157.898 419.874> 416 111<144.559 312.145>
LayerCount: 2
Fore
SplineSet
416 317 m 1
 433 319 450 320 467 320 c 0
 507 320 527 304 527 273 c 0
 527 269 525 258 522 241 c 0
 519 224 515 200 510 171 c 0
 505 141 500 112 497 85 c 0
 492 58 470 35 431 17 c 0
 392 -1 345 -10 291 -10 c 0
 215 -10 155 15 112 65 c 0
 68 114 46 181 46 264 c 0
 46 385 78 483 142 559 c 0
 206 635 289 673 390 673 c 0
 436 673 474 664 505 645 c 0
 535 626 550 602 550 574 c 0
 550 553 542 537 526 524 c 0
 510 511 489 502 464 499 c 1
 458 531 445 555 425 572 c 0
 405 588 383 596 358 596 c 0
 301 596 254 565 217 504 c 0
 180 442 162 371 162 290 c 0
 162 224 174 170 197 129 c 0
 220 88 255 67 300 67 c 0
 337 67 369 80 396 107 c 1
 405 189 412 259 416 317 c 1
EndSplineSet
Validated: 1
Substitution2: "'c2sc' Capitals to Small Capitals in Latin lookup 0 subtable" g.sc
EndChar

StartChar: H
Encoding: 72 72 41
Width: 613
GlyphClass: 2
Flags: W
HStem: -3 21G<96.5 124.5 450.5 478.5> 323 75<209 447> 646 20G<175 203 528.5 557>
VStem: 57 115<5.48404 213.127> 130 113<484.831 659.001> 411 115<5.48404 215.543> 484 113<488.781 659.001>
LayerCount: 2
Fore
SplineSet
484 663 m 1xea
 503 665 520 666 537 666 c 0
 577 666 597 652 597 623 c 0xea
 597 620 596 610 593 593 c 0
 590 576 585 550 580 515 c 0
 574 480 569 443 564 404 c 2
 538 203 l 2
 530 144 526 99 526 66 c 0
 526 43 527 23 530 5 c 1
 507 -0 487 -3 470 -3 c 0
 431 -3 411 14 411 49 c 0
 411 53 412 64 414 81 c 0
 417 98 421 129 427 176 c 0
 434 222 440 271 447 323 c 1
 422 322 385 321 338 321 c 0
 293 321 247 322 199 323 c 1
 184 203 l 2
 176 144 172 99 172 66 c 0
 172 43 173 23 176 5 c 1
 153 -0 133 -3 116 -3 c 0
 77 -3 57 14 57 49 c 0xf4
 57 54 58 67 62 90 c 0
 64 113 70 156 80 221 c 0
 88 285 98 355 107 431 c 0
 120 531 127 608 130 663 c 1
 149 665 167 666 183 666 c 0
 223 666 243 652 243 623 c 0
 243 620 242 610 239 593 c 0
 236 576 231 549 226 513 c 0
 220 476 214 438 209 398 c 1
 276 397 321 396 345 396 c 0
 374 396 412 397 457 398 c 1
 473 521 482 610 484 663 c 1xea
EndSplineSet
Validated: 1
Substitution2: "'c2sc' Capitals to Small Capitals in Latin lookup 0 subtable" h.sc
EndChar

StartChar: I
Encoding: 73 73 42
Width: 259
GlyphClass: 2
Flags: W
HStem: -3 21G<96.5 124.5> 646 20G<175 203>
VStem: 57 115<5.48404 219.342> 130 113<484.994 659.001>
LayerCount: 2
Fore
SplineSet
130 663 m 1xd0
 149 665 167 666 183 666 c 0
 223 666 243 652 243 623 c 0xd0
 243 620 242 610 238 593 c 0
 236 576 231 550 226 515 c 0
 220 480 215 443 210 404 c 2
 184 203 l 2
 176 144 172 99 172 66 c 0
 172 43 173 23 176 5 c 1
 153 -0 133 -3 116 -3 c 0
 77 -3 57 14 57 49 c 0xe0
 57 54 58 67 61 90 c 0
 64 113 70 156 79 220 c 0
 88 285 98 355 107 431 c 0
 120 531 127 608 130 663 c 1xd0
EndSplineSet
Validated: 1
Substitution2: "'c2sc' Capitals to Small Capitals in Latin lookup 0 subtable" i.sc
EndChar

StartChar: J
Encoding: 74 74 43
Width: 327
GlyphClass: 2
Flags: W
HStem: -119 79<4.19897 71.012> 646 20G<241.5 270.5>
VStem: 198 113<504.737 659.135>
LayerCount: 2
Fore
SplineSet
39 -119 m 0
 13 -119 -0 -103 -0 -72 c 0
 -0 -59 1 -48 3 -40 c 1
 23 -38 40 -34 54 -27 c 0
 68 -21 79 -14 88 -6 c 0
 97 3 104 16 110 33 c 0
 115 50 120 66 122 81 c 0
 126 96 129 119 133 148 c 2
 173 436 l 2
 186 526 194 602 198 663 c 1
 216 665 233 666 250 666 c 0
 291 666 311 652 311 625 c 0
 311 618 309 606 306 587 c 0
 302 569 297 544 291 512 c 0
 285 481 280 450 276 421 c 2
 233 114 l 2
 227 69 215 30 197 -3 c 0
 179 -36 159 -61 138 -76 c 0
 117 -91 98 -102 81 -109 c 0
 64 -116 50 -119 39 -119 c 0
EndSplineSet
Validated: 1
Substitution2: "'c2sc' Capitals to Small Capitals in Latin lookup 0 subtable" j.sc
EndChar

StartChar: K
Encoding: 75 75 44
Width: 527
GlyphClass: 2
Flags: W
HStem: -10 81<444.171 510.546> -3 21G<96.5 124.5> 646 20G<175 203 430 463.5>
VStem: 57 115<5.48404 219.694> 130 113<480.695 659.001>
LayerCount: 2
Fore
SplineSet
130 663 m 1x68
 149 665 167 666 183 666 c 0
 223 666 243 652 243 623 c 0
 243 620 242 610 239 593 c 0
 236 576 232 550 226 515 c 0
 221 479 215 441 210 402 c 1
 286 463 340 513 371 553 c 0
 402 593 424 631 436 668 c 1
 491 667 518 650 518 616 c 0
 518 595 496 561 453 513 c 0
 410 465 358 415 298 363 c 1
 367 210 418 117 452 84 c 0
 462 75 477 71 496 71 c 0
 510 71 519 72 523 74 c 1
 526 63 527 53 527 42 c 0
 527 24 520 11 505 2 c 0
 491 -6 475 -10 456 -10 c 0xa8
 421 -10 389 9 360 47 c 0
 342 71 319 108 290 160 c 0
 261 210 237 257 218 298 c 1
 194 278 l 1
 184 203 l 2
 176 144 172 99 172 66 c 0
 172 43 173 23 176 5 c 1
 153 -0 133 -3 116 -3 c 0
 77 -3 57 14 57 49 c 0x70
 57 54 58 67 61 90 c 0
 64 113 70 156 79 220 c 0
 88 285 98 355 107 431 c 0
 120 531 127 608 130 663 c 1x68
EndSplineSet
Validated: 1
Substitution2: "'c2sc' Capitals to Small Capitals in Latin lookup 0 subtable" k.sc
EndChar

StartChar: L
Encoding: 76 76 45
Width: 403
GlyphClass: 2
Flags: W
HStem: -3 78<172 385.995> 646 20G<175.5 206.5>
VStem: 130 115<489.417 660.965>
LayerCount: 2
Fore
SplineSet
390 99 m 1
 399 75 403 55 403 40 c 0
 403 21 392 9 370 4 c 0
 347 -1 305 -3 242 -3 c 0
 163 -3 114 -2 95 -1 c 0
 81 -0 71 3 66 8 c 0
 60 14 57 23 57 34 c 0
 57 57 69 156 94 331 c 0
 118 507 130 618 130 663 c 1
 145 665 164 666 187 666 c 0
 226 666 245 655 245 633 c 0
 245 624 240 587 229 521 c 0
 218 455 207 378 194 291 c 0
 182 204 175 132 172 77 c 1
 189 76 206 75 222 75 c 0
 255 75 289 77 323 82 c 0
 357 87 379 92 390 99 c 1
EndSplineSet
Validated: 1
Substitution2: "'c2sc' Capitals to Small Capitals in Latin lookup 0 subtable" l.sc
EndChar

StartChar: M
Encoding: 77 77 46
Width: 776
GlyphClass: 2
Flags: W
HStem: -3 21G<91 112 343 369.5 585.5 618> 647 20G<187.5 217.5 677 711.5>
VStem: 57 101<6.2373 187.305> 549 117<2.43164 185.713>
LayerCount: 2
Fore
SplineSet
713 436 m 2
 680 203 l 2
 671 142 666 94 666 59 c 0
 666 46 667 28 670 5 c 1
 654 -0 632 -3 604 -3 c 0
 567 -3 549 10 549 35 c 0
 549 38 552 59 558 98 c 0
 564 137 572 193 582 265 c 0
 593 336 602 404 611 469 c 1
 544 336 474 181 402 2 c 1
 393 -1 379 -2 360 -2 c 0
 326 -2 307 7 302 24 c 0
 290 65 274 139 255 244 c 0
 236 349 221 427 209 477 c 1
 175 240 158 101 158 59 c 0
 158 46 159 28 162 5 c 1
 146 -0 125 -3 99 -3 c 0
 83 -3 72 -0 66 6 c 0
 60 11 57 20 57 32 c 0
 57 37 66 104 85 231 c 2
 121 483 l 2
 128 531 131 573 131 610 c 0
 131 627 130 644 128 659 c 1
 153 664 176 667 199 667 c 0
 236 667 260 651 272 619 c 0
 281 596 289 571 297 544 c 0
 306 517 312 496 317 478 c 0
 322 462 328 435 335 399 c 0
 342 363 347 340 349 331 c 0
 351 322 356 295 364 250 c 0
 372 205 376 181 377 177 c 1
 439 336 514 483 603 619 c 0
 624 651 656 667 698 667 c 0
 725 667 745 664 760 659 c 1
 744 619 728 545 713 436 c 2
EndSplineSet
Validated: 1
Substitution2: "'c2sc' Capitals to Small Capitals in Latin lookup 0 subtable" m.sc
EndChar

StartChar: N
Encoding: 78 78 47
Width: 596
GlyphClass: 2
Flags: W
HStem: -3 21G<102.5 121.5 438.5 463.5> 647 20G<168.5 194 515.5 542>
VStem: 57 102<6.28418 202.246> 394 106<3.33472 73.811> 480 100<496.41 660.905>
LayerCount: 2
Fore
SplineSet
500 1 m 1xf0
 487 -2 472 -3 455 -3 c 0
 422 -3 401 6 394 24 c 0xf0
 371 76 338 157 295 268 c 0
 252 378 223 451 208 488 c 1
 205 464 199 424 192 368 c 0
 185 312 179 269 176 238 c 0
 172 207 168 174 164 139 c 0
 161 103 159 76 159 59 c 0
 159 46 160 28 163 5 c 1
 147 -0 130 -3 113 -3 c 0
 92 -3 77 0 69 6 c 0
 61 12 57 22 57 35 c 0
 57 41 58 55 62 76 c 0
 64 97 68 124 72 155 c 0
 77 186 80 212 83 231 c 0
 88 268 93 309 99 355 c 0
 105 401 110 436 112 459 c 0
 116 482 118 507 120 534 c 0
 123 560 124 583 124 604 c 0
 124 625 123 644 120 659 c 1
 137 664 157 667 180 667 c 0
 208 667 229 657 242 638 c 0
 265 603 295 545 331 462 c 0
 368 379 401 296 431 211 c 1
 457 431 l 2
 470 537 477 614 480 663 c 1
 494 665 508 666 523 666 c 0
 561 666 580 655 580 632 c 0xe8
 580 627 578 614 574 592 c 0
 570 571 565 542 560 506 c 0
 554 469 549 435 545 404 c 0
 541 371 535 324 527 262 c 0
 519 201 513 150 509 112 c 0
 505 72 502 36 500 1 c 1xf0
EndSplineSet
Validated: 1
Substitution2: "'c2sc' Capitals to Small Capitals in Latin lookup 0 subtable" n.sc
EndChar

StartChar: O
Encoding: 79 79 48
Width: 645
GlyphClass: 2
Flags: W
HStem: -10 76<234.182 384.472> 596 78<284.131 437.562>
VStem: 46 116<158.528 418.931> 509 118<247.853 505.772>
LayerCount: 2
Fore
SplineSet
290 -10 m 0
 213 -10 154 14 110 63 c 0
 68 112 46 179 46 263 c 0
 46 380 77 477 139 556 c 0
 201 635 281 674 379 674 c 0
 457 674 518 650 562 602 c 0
 605 553 627 487 627 402 c 0
 627 287 596 190 534 110 c 0
 472 30 391 -10 290 -10 c 0
365 596 m 0
 303 596 254 566 217 507 c 0
 180 448 162 376 162 290 c 0
 162 260 165 232 170 206 c 0
 175 180 183 156 194 135 c 0
 205 114 219 97 238 84 c 0
 257 72 280 66 305 66 c 0
 348 66 386 81 417 112 c 0
 449 142 472 180 487 226 c 0
 502 273 509 323 509 378 c 0
 509 441 497 493 474 534 c 0
 451 575 414 596 365 596 c 0
EndSplineSet
Validated: 1
Substitution2: "'c2sc' Capitals to Small Capitals in Latin lookup 0 subtable" o.sc
EndChar

StartChar: P
Encoding: 80 80 49
Width: 514
GlyphClass: 2
Flags: W
HStem: -3 21G<94.5 126.5> 235 77<207.312 334.059> 596 77<231.574 358.297>
VStem: 57 116<4.58044 196.163> 389 115<377.437 564.858>
LayerCount: 2
Fore
SplineSet
267 312 m 0
 307 312 337 328 358 361 c 0
 379 394 389 436 389 487 c 0
 389 528 380 557 362 572 c 0
 343 588 317 596 283 596 c 0
 264 596 247 595 232 592 c 1
 227 531 217 446 202 337 c 1
 222 320 244 312 267 312 c 0
83 231 m 2
 108 431 l 2
 120 534 126 611 126 661 c 1
 173 669 222 673 273 673 c 0
 427 673 504 613 504 493 c 0
 504 414 482 351 439 304 c 0
 396 258 346 235 291 235 c 0
 251 235 218 246 193 267 c 1
 180 168 173 99 173 61 c 0
 173 40 174 21 177 5 c 1
 161 -0 140 -3 113 -3 c 0
 76 -3 57 11 57 39 c 0
 57 45 58 58 62 80 c 0
 64 100 68 126 73 158 c 0
 78 188 81 213 83 231 c 2
EndSplineSet
Validated: 1
Substitution2: "'c2sc' Capitals to Small Capitals in Latin lookup 0 subtable" p.sc
EndChar

StartChar: Q
Encoding: 81 81 50
Width: 640
GlyphClass: 2
Flags: W
HStem: -206 80<431.117 610.114> 596 78<284.131 437.552>
VStem: 46 116<158.652 419.013> 509 118<249.763 505.772>
LayerCount: 2
Fore
SplineSet
365 596 m 0
 303 596 254 566 217 508 c 0
 180 448 162 376 162 290 c 0
 162 260 165 232 170 206 c 0
 175 180 183 156 194 135 c 0
 205 114 219 97 238 85 c 0
 257 72 280 66 305 66 c 0
 348 66 386 81 417 112 c 0
 449 142 472 180 487 226 c 0
 502 273 509 323 509 378 c 0
 509 441 497 493 474 534 c 0
 451 575 414 596 365 596 c 0
660 -43 m 1
 701 -55 722 -77 722 -109 c 0
 722 -131 713 -150 694 -165 c 0
 676 -180 655 -191 631 -197 c 0
 607 -203 583 -206 558 -206 c 0
 487 -206 421 -189 362 -156 c 0
 303 -123 264 -73 246 -7 c 1
 183 2 133 30 98 78 c 0
 63 125 46 187 46 263 c 0
 46 380 77 477 139 556 c 0
 201 635 281 674 379 674 c 0
 457 674 518 650 561 602 c 0
 605 553 627 487 627 402 c 0
 627 297 601 207 549 130 c 0
 497 53 427 8 340 -6 c 1
 353 -43 376 -72 411 -94 c 0
 446 -115 484 -126 526 -126 c 0
 593 -126 637 -98 660 -43 c 1
EndSplineSet
Validated: 1
Substitution2: "'c2sc' Capitals to Small Capitals in Latin lookup 0 subtable" q.sc
EndChar

StartChar: R
Encoding: 82 82 51
Width: 531
GlyphClass: 2
Flags: W
HStem: -10 81<422.621 502.079> -3 21G<94.5 126.5> 596 77<232.919 363.023>
VStem: 57 116<4.58008 198.108> 389 115<394.43 571.167>
LayerCount: 2
Fore
SplineSet
419 97 m 0x78
 431 80 451 71 480 71 c 0
 493 71 503 72 508 74 c 1
 511 62 512 51 512 42 c 0
 512 7 486 -10 433 -10 c 0xb8
 388 -10 354 9 333 47 c 0
 302 101 270 176 236 271 c 1
 225 275 219 283 219 294 c 0
 219 307 225 321 236 334 c 1
 241 331 249 330 258 330 c 0
 281 330 303 336 324 347 c 0
 367 372 389 419 389 489 c 0
 389 532 381 560 364 574 c 0
 348 589 322 596 286 596 c 0
 264 596 246 595 232 592 c 1
 229 533 223 475 215 418 c 2
 185 198 l 2
 177 139 173 93 173 60 c 0
 173 39 174 21 177 5 c 1
 161 -0 140 -3 113 -3 c 0
 76 -3 57 11 57 39 c 0
 57 46 58 59 61 80 c 0
 64 101 68 127 73 158 c 0
 78 189 81 213 83 231 c 2
 108 431 l 2
 120 528 126 605 126 661 c 1
 173 669 222 673 274 673 c 0
 340 673 395 660 438 633 c 0
 482 606 504 562 504 500 c 0
 504 442 488 392 457 351 c 0
 426 310 385 283 336 272 c 1
 346 243 359 211 376 176 c 0
 393 141 407 114 419 97 c 0x78
EndSplineSet
Validated: 1
Substitution2: "'c2sc' Capitals to Small Capitals in Latin lookup 0 subtable" r.sc
EndChar

StartChar: S
Encoding: 83 83 52
Width: 479
GlyphClass: 2
Flags: W
HStem: -10 78<137.135 284.24> 591 80<235.053 368.695>
VStem: 84 106<423.186 547.087> 340 105<120.95 248.279>
LayerCount: 2
Fore
SplineSet
404 523 m 1
 398 542 385 558 366 571 c 0
 347 584 326 591 304 591 c 0
 273 591 246 581 224 561 c 0
 201 541 190 513 190 476 c 0
 190 453 198 435 213 422 c 0
 228 409 251 398 280 387 c 0
 284 386 294 382 311 376 c 0
 328 370 340 366 346 363 c 0
 352 360 362 356 375 349 c 0
 389 342 399 335 404 329 c 0
 410 322 417 314 425 304 c 0
 432 294 438 283 441 270 c 0
 444 257 445 243 445 227 c 0
 445 152 423 94 379 52 c 0
 334 11 275 -10 201 -10 c 0
 154 -10 113 -2 78 16 c 0
 42 32 24 53 24 76 c 0
 24 107 45 131 88 147 c 1
 95 125 111 106 135 91 c 0
 160 76 185 68 210 68 c 0
 245 68 275 79 301 102 c 0
 327 124 340 155 340 195 c 0
 340 220 332 238 316 250 c 0
 300 262 277 273 246 282 c 0
 225 288 209 293 199 296 c 0
 190 299 176 306 158 316 c 0
 140 325 127 335 118 346 c 0
 110 356 102 370 95 389 c 0
 88 408 84 429 84 453 c 0
 84 521 106 574 151 613 c 0
 196 652 253 671 321 671 c 0
 360 671 396 664 429 649 c 0
 462 634 479 614 479 588 c 0
 479 572 473 558 460 546 c 0
 448 533 429 526 404 523 c 1
EndSplineSet
Validated: 1
Substitution2: "'c2sc' Capitals to Small Capitals in Latin lookup 0 subtable" s.sc
EndChar

StartChar: T
Encoding: 84 84 53
Width: 423
GlyphClass: 2
Flags: W
HStem: -3 21G<173.5 205.5> 589 72<54.3325 203 313.429 474.667>
VStem: 135 116<3.40869 209.502>
LayerCount: 2
Fore
SplineSet
438 590 m 0
 421 589 381 589 318 589 c 0
 317 589 l 1
 306 524 296 463 289 404 c 2
 263 203 l 2
 255 144 251 99 251 66 c 0
 251 43 252 23 255 5 c 1
 239 -0 218 -3 193 -3 c 0
 154 -3 135 11 135 39 c 0
 135 44 137 58 140 83 c 0
 143 107 149 152 158 219 c 0
 167 285 177 356 186 431 c 0
 194 494 200 547 203 589 c 1
 134 589 81 588 44 585 c 1
 43 590 43 596 43 603 c 0
 43 623 47 637 54 646 c 0
 61 655 74 659 91 660 c 0
 108 661 142 661 195 661 c 2
 301 661 l 2
 400 661 461 662 484 664 c 1
 485 656 486 648 486 640 c 0
 486 623 482 611 475 604 c 0
 468 596 455 591 438 590 c 0
EndSplineSet
Validated: 1
Substitution2: "'c2sc' Capitals to Small Capitals in Latin lookup 0 subtable" t.sc
EndChar

StartChar: U
Encoding: 85 85 54
Width: 609
GlyphClass: 2
Flags: W
HStem: -10 88<204.271 294.936> -3 21G<444.5 471.5> 646 20G<173 201.5 524.5 543>
VStem: 75 107<104.358 349.065> 130 113<487.5 658.525> 407 115<5.29689 196.088> 480 113<488.228 656.715>
LayerCount: 2
Fore
SplineSet
438 290 m 1xb0
 463 479 477 603 480 663 c 1
 499 665 516 666 533 666 c 0
 553 666 568 663 578 657 c 0
 588 651 593 640 593 623 c 0xb2
 593 621 591 607 586 580 c 0
 581 553 574 505 564 436 c 0
 554 367 544 290 534 203 c 0
 526 130 522 82 522 61 c 0
 522 40 523 21 526 5 c 1
 501 -0 480 -3 463 -3 c 0x64
 426 -3 407 14 407 49 c 0
 407 53 411 81 418 132 c 1
 391 87 358 52 321 27 c 0
 284 2 247 -10 211 -10 c 0
 168 -10 134 6 110 39 c 0
 87 71 75 110 75 157 c 0xb4
 75 174 83 245 100 372 c 0
 117 498 127 595 130 663 c 1
 148 665 165 666 181 666 c 0
 222 666 243 652 243 624 c 0xa8
 243 622 242 613 239 597 c 2
 227 525 l 2
 222 493 217 461 212 429 c 0
 192 286 182 203 182 180 c 0
 182 151 187 127 198 108 c 0
 209 88 225 78 248 78 c 0
 280 78 315 98 352 138 c 0
 390 179 419 229 438 290 c 1xb0
EndSplineSet
Validated: 1
Substitution2: "'c2sc' Capitals to Small Capitals in Latin lookup 0 subtable" u.sc
EndChar

StartChar: V
Encoding: 86 86 55
Width: 566
GlyphClass: 2
Flags: W
HStem: -10 21G<192.5 225.5> 654 20G<149.5 182.5 498.5 532>
VStem: 76 104<68.8631 378.774> 109 116<399.102 638.111> 451 125<439.644 655.108>
LayerCount: 2
Fore
SplineSet
109 521 m 0xd8
 109 570 100 613 82 650 c 1
 112 666 138 674 161 674 c 0
 204 674 225 642 225 579 c 0xd8
 225 545 218 483 202 392 c 0
 188 301 180 234 180 191 c 0
 180 126 190 81 211 54 c 1
 253 68 293 104 330 161 c 0
 368 218 398 281 419 352 c 0
 440 422 451 487 451 547 c 0
 451 588 445 624 434 653 c 1
 462 667 487 674 510 674 c 0
 554 674 576 647 576 594 c 0
 576 557 570 514 560 462 c 0
 548 412 532 358 510 304 c 0
 487 248 462 198 432 151 c 0
 404 104 369 66 328 36 c 0
 288 5 247 -10 204 -10 c 0
 181 -10 159 -6 138 1 c 1
 97 45 76 108 76 191 c 0xe8
 76 234 82 286 92 347 c 0
 104 408 109 466 109 521 c 0xd8
EndSplineSet
Validated: 1
Substitution2: "'c2sc' Capitals to Small Capitals in Latin lookup 0 subtable" v.sc
EndChar

StartChar: W
Encoding: 87 87 56
Width: 881
GlyphClass: 2
Flags: W
HStem: -10 21G<191 238.5 516 547.5> 654 20G<149.5 182.5 488.5 522 813.5 847>
VStem: 76 104<68.8631 378.774> 109 116<392.107 638.111> 441 125<438.296 655.108> 766 125<440.842 655.108>
LayerCount: 2
Fore
SplineSet
109 521 m 0xdc
 109 570 100 613 82 650 c 1
 112 666 138 674 161 674 c 0
 204 674 225 642 225 579 c 0xdc
 225 545 218 483 203 392 c 0
 188 301 180 234 180 191 c 0
 180 126 190 81 211 54 c 1
 251 68 289 104 326 161 c 0
 362 218 390 281 411 352 c 0
 431 422 441 487 441 547 c 0
 441 588 435 624 424 653 c 1
 452 667 477 674 500 674 c 0
 544 674 566 647 566 594 c 0
 566 513 545 417 502 307 c 1
 500 281 499 255 499 230 c 0
 499 143 511 84 536 54 c 1
 576 68 614 104 651 161 c 0
 687 218 715 281 736 352 c 0
 756 422 766 487 766 547 c 0
 766 588 760 624 749 653 c 1
 777 667 802 674 825 674 c 0
 869 674 891 647 891 594 c 0
 891 557 886 514 874 462 c 0
 864 412 847 358 826 304 c 0
 804 248 779 198 750 151 c 0
 722 104 688 66 648 36 c 0
 609 5 568 -10 527 -10 c 0
 505 -10 484 -6 463 1 c 1
 434 32 415 73 406 124 c 1
 343 35 275 -10 202 -10 c 0
 180 -10 159 -6 138 1 c 1
 97 45 76 108 76 191 c 0xec
 76 234 82 286 92 347 c 0
 104 408 109 466 109 521 c 0xdc
EndSplineSet
Validated: 1
Substitution2: "'c2sc' Capitals to Small Capitals in Latin lookup 0 subtable" w.sc
EndChar

StartChar: X
Encoding: 88 88 57
Width: 533
GlyphClass: 2
Flags: W
HStem: -10 21G<68 107.5 427.5 436.5> 654 20G<169.5 181 448 484.5>
LayerCount: 2
Fore
SplineSet
240 348 m 1
 202 435 174 492 157 521 c 0
 140 550 114 577 81 602 c 1
 103 635 125 657 146 668 c 0
 154 672 164 674 175 674 c 0
 187 674 200 667 213 653 c 0
 226 639 240 619 253 592 c 0
 266 565 278 540 288 517 c 0
 298 494 309 465 322 432 c 1
 399 559 443 640 453 674 c 1
 516 660 548 637 548 606 c 0
 548 573 483 487 354 348 c 1
 356 343 363 326 374 299 c 0
 385 271 393 252 398 242 c 0
 402 232 410 216 421 193 c 0
 432 170 442 152 451 140 c 0
 460 128 471 115 484 100 c 0
 497 85 511 72 525 62 c 1
 503 29 481 7 460 -4 c 0
 452 -8 442 -10 431 -10 c 0
 424 -10 418 -8 412 -5 c 0
 405 -2 399 4 392 12 c 0
 385 20 379 28 374 36 c 0
 368 44 362 55 355 68 c 0
 348 81 343 93 338 104 c 0
 333 114 327 128 320 145 c 0
 313 162 307 175 303 186 c 0
 299 196 294 210 287 228 c 0
 280 246 274 259 271 268 c 1
 173 132 116 39 99 -10 c 1
 37 3 6 25 6 54 c 0
 6 65 11 80 22 98 c 0
 32 116 48 138 69 162 c 0
 90 188 109 208 124 226 c 0
 139 242 161 266 189 295 c 0
 217 324 234 342 240 348 c 1
EndSplineSet
Validated: 1
Substitution2: "'c2sc' Capitals to Small Capitals in Latin lookup 0 subtable" x.sc
EndChar

StartChar: Y
Encoding: 89 89 58
Width: 468
GlyphClass: 2
Flags: W
HStem: -3 21G<203.5 231.5> 647 20G<116.5 140 420.5 456.5>
VStem: 164 115<5.48404 217.755>
LayerCount: 2
Fore
SplineSet
521 620 m 0
 521 598 461 510 341 356 c 0
 325 335 313 320 305 309 c 1
 291 203 l 2
 283 144 279 99 279 66 c 0
 279 43 280 23 283 5 c 1
 260 -0 240 -3 223 -3 c 0
 184 -3 164 14 164 49 c 0
 164 53 165 63 167 78 c 0
 169 94 173 125 180 172 c 0
 186 218 192 265 199 313 c 1
 137 484 86 586 47 619 c 1
 78 651 105 667 128 667 c 0
 152 667 170 656 181 633 c 0
 218 556 250 477 275 395 c 1
 367 541 417 633 424 672 c 1
 489 672 521 655 521 620 c 0
EndSplineSet
Validated: 1
Substitution2: "'c2sc' Capitals to Small Capitals in Latin lookup 0 subtable" y.sc
EndChar

StartChar: Z
Encoding: 90 90 59
Width: 529
GlyphClass: 2
Flags: W
HStem: -10 84<205.809 480.965> 15 84<154 346.781> 584 83<83.9273 353.009>
LayerCount: 2
Fore
SplineSet
142 667 m 0x60
 162 667 207 663 277 654 c 0
 347 645 399 640 433 640 c 0
 464 640 487 644 504 653 c 1
 519 638 527 618 527 595 c 0
 527 568 521 546 508 531 c 2
 236 206 l 2
 200 162 173 126 154 99 c 1x60
 179 99 219 95 275 87 c 0
 331 78 371 74 395 74 c 0
 435 74 466 79 487 90 c 1
 494 75 498 62 498 51 c 0
 498 10 464 -10 395 -10 c 0xa0
 376 -10 338 -6 281 3 c 0
 224 11 179 15 148 15 c 0
 115 15 88 11 65 3 c 1
 47 26 38 46 38 61 c 0
 38 76 44 96 56 119 c 0
 95 192 211 339 402 560 c 1
 383 561 348 566 295 573 c 0
 242 580 200 584 170 584 c 0
 139 584 111 578 84 565 c 1
 76 582 72 597 72 610 c 0
 72 648 95 667 142 667 c 0x60
EndSplineSet
Validated: 1
Substitution2: "'c2sc' Capitals to Small Capitals in Latin lookup 0 subtable" z.sc
EndChar

StartChar: bracketleft
Encoding: 91 91 60
Width: 402
GlyphClass: 2
Flags: W
HStem: -190 70<186 300.406> 649 71<295 416.217>
LayerCount: 2
Fore
SplineSet
295 650 m 1
 186 -121 l 1
 206 -120 227 -120 248 -120 c 0
 285 -120 303 -131 303 -153 c 0
 303 -163 299 -175 292 -190 c 1
 81 -190 l 1
 208 720 l 1
 420 720 l 1
 422 712 423 704 423 697 c 0
 423 665 402 649 360 649 c 0
 334 649 312 649 295 650 c 1
EndSplineSet
Validated: 1
Substitution2: "'sups' Superscript lookup 4-1" bracketleft.superior
Substitution2: "'c2sc' Capitals to Small Capitals in Latin lookup 0 subtable" bracketleft.sc
EndChar

StartChar: backslash
Encoding: 92 92 61
Width: 281
GlyphClass: 2
Flags: W
HStem: 721 20G<67 89>
VStem: 33 87<561.142 737.034> 154 87<-116.159 55.875>
LayerCount: 2
Fore
SplineSet
125 117 m 0
 64 500 33 697 33 708 c 0
 33 730 50 741 84 741 c 0
 94 741 106 739 120 734 c 1
 127 662 136 586 149 505 c 0
 165 398 181 296 197 198 c 0
 226 13 241 -81 241 -85 c 0
 241 -108 225 -120 193 -120 c 0
 184 -120 171 -118 154 -114 c 1
 147 -43 138 34 125 117 c 0
EndSplineSet
Validated: 1
EndChar

StartChar: bracketright
Encoding: 93 93 62
Width: 384
GlyphClass: 2
Flags: W
HStem: -190 71<-14.217 107> 650 70<101.594 216>
LayerCount: 2
Fore
SplineSet
107 -120 m 1
 216 651 l 1
 196 650 175 650 154 650 c 0
 117 650 99 661 99 683 c 0
 99 693 103 705 110 720 c 1
 321 720 l 1
 194 -190 l 1
 -18 -190 l 1
 -20 -182 -21 -174 -21 -167 c 0
 -21 -135 0 -119 42 -119 c 0
 68 -119 90 -119 107 -120 c 1
EndSplineSet
Validated: 1
Substitution2: "'sups' Superscript lookup 4-1" bracketright.superior
Substitution2: "'c2sc' Capitals to Small Capitals in Latin lookup 0 subtable" bracketright.sc
EndChar

StartChar: asciicircum
Encoding: 94 94 63
Width: 486
GlyphClass: 2
Flags: W
HStem: 408 277
LayerCount: 2
Fore
SplineSet
423 408 m 0
 398 408 338 458 243 558 c 1
 209 522 174 488 139 456 c 0
 103 424 78 408 64 408 c 0
 50 408 35 416 20 431 c 1
 35 457 68 498 118 554 c 0
 169 609 210 653 243 685 c 1
 274 654 315 611 366 554 c 0
 417 498 450 457 466 431 c 1
 449 416 435 408 423 408 c 0
EndSplineSet
Validated: 1
EndChar

StartChar: underscore
Encoding: 95 95 64
Width: 535
GlyphClass: 2
Flags: W
HStem: -152 72<9.28345 240.75 260.859 274 348.968 524.671> -144 57<36.1077 498.522>
LayerCount: 2
Fore
SplineSet
535 -110 m 0x80
 535 -122 532 -132 525 -140 c 0
 518 -148 510 -152 499 -152 c 0x80
 489 -152 466 -151 430 -148 c 0
 394 -145 367 -144 348 -144 c 2
 205 -144 l 2x40
 129 -144 62 -147 3 -152 c 1
 1 -142 0 -132 0 -122 c 0
 0 -111 3 -102 9 -93 c 0
 15 -84 24 -80 36 -80 c 0x80
 38 -80 59 -81 99 -84 c 0
 139 -86 174 -87 203 -87 c 2
 345 -87 l 2x40
 430 -87 492 -85 532 -80 c 1
 534 -86 535 -96 535 -110 c 0x80
EndSplineSet
Validated: 1
EndChar

StartChar: grave
Encoding: 96 96 65
Width: 209
GlyphClass: 2
Flags: W
HStem: 524 206
VStem: -55 206
LayerCount: 2
Fore
SplineSet
-28 633 m 0
 -46 644 -55 659 -55 676 c 0
 -55 700 -41 718 -14 730 c 1
 16 692 65 649 132 600 c 0
 145 591 151 580 151 566 c 0
 151 549 145 535 132 524 c 1
 123 532 99 549 58 575 c 0
 17 601 -11 620 -28 633 c 0
EndSplineSet
Validated: 1
EndChar

StartChar: a
Encoding: 97 97 66
Width: 506
GlyphClass: 2
Flags: W
HStem: -10 76<136 228.471> 418 66<214.849 323.663>
VStem: 27 123<97.3147 303.79> 307 106<62.4143 191.877>
LayerCount: 2
Fore
SplineSet
308 94 m 1
 262 25 211 -10 155 -10 c 0
 117 -10 86 5 62 36 c 0
 39 67 27 111 27 170 c 0
 27 256 50 330 96 391 c 0
 143 453 200 484 267 484 c 0
 340 484 405 465 462 427 c 1
 429 278 413 174 413 116 c 0
 413 85 426 63 451 52 c 1
 448 37 441 22 428 10 c 0
 416 -4 399 -10 378 -10 c 0
 356 -10 339 -2 326 14 c 0
 313 30 307 50 307 75 c 0
 307 84 307 90 308 94 c 1
319 206 m 1
 346 376 l 1
 320 404 293 418 266 418 c 0
 233 418 205 397 183 354 c 0
 161 312 150 258 150 191 c 0
 150 155 156 125 166 101 c 0
 178 78 192 66 210 66 c 0
 226 66 244 79 265 105 c 0
 286 132 304 165 319 206 c 1
EndSplineSet
Validated: 1
Substitution2: "'sups' Superscript lookup 4-1" a.superior
Substitution2: "'smcp' Lowercase to Small Capitals in Latin lookup 0 subtable" a.sc
EndChar

StartChar: b
Encoding: 98 98 67
Width: 496
GlyphClass: 2
Flags: W
HStem: -10 65<181.334 285.28> 408 76<266.341 356.5> 733 20G<163.5 184.5>
VStem: 123 113<488.448 711.218> 346 123<163.356 383.21>
LayerCount: 2
Fore
SplineSet
41 47 m 1
 58 118 76 227 95 374 c 0
 114 520 123 607 123 635 c 0
 123 660 114 677 96 686 c 1
 97 705 106 721 121 734 c 0
 136 747 153 753 174 753 c 0
 195 753 211 747 221 734 c 0
 231 722 236 707 236 689 c 0
 236 646 224 548 201 397 c 1
 218 424 239 446 264 461 c 0
 289 476 313 484 337 484 c 0
 376 484 408 468 433 436 c 0
 457 403 469 357 469 297 c 0
 469 208 446 134 399 76 c 0
 352 19 297 -10 235 -10 c 0
 162 -10 98 9 41 47 c 1
185 278 m 1
 182 258 178 227 171 185 c 0
 164 142 160 114 158 100 c 1
 182 70 207 55 232 55 c 0
 264 55 291 74 313 112 c 0
 335 149 346 201 346 266 c 0
 346 304 341 337 332 366 c 0
 322 394 307 408 288 408 c 0
 272 408 255 396 236 373 c 0
 217 349 200 317 185 278 c 1
EndSplineSet
Validated: 1
Substitution2: "'sups' Superscript lookup 4-1" b.superior
Substitution2: "'smcp' Lowercase to Small Capitals in Latin lookup 0 subtable" b.sc
EndChar

StartChar: c
Encoding: 99 99 68
Width: 431
GlyphClass: 2
Flags: W
HStem: -10 66<183.907 292.537> 413 71<212.245 312.346>
VStem: 27 123<92.894 310.431>
LayerCount: 2
Fore
SplineSet
339 337 m 1
 325 388 301 413 266 413 c 0
 231 413 203 392 182 349 c 0
 161 306 150 254 150 195 c 0
 150 148 158 114 173 91 c 0
 188 68 208 56 233 56 c 0
 273 56 306 79 332 126 c 1
 364 113 380 94 380 67 c 0
 380 46 364 28 332 13 c 0
 300 -2 264 -10 225 -10 c 0
 164 -10 116 7 81 41 c 0
 45 75 27 121 27 180 c 0
 27 229 35 274 50 314 c 0
 65 354 86 386 111 410 c 0
 136 434 164 452 193 465 c 0
 222 478 252 484 283 484 c 0
 316 484 348 477 377 464 c 0
 406 450 421 430 421 403 c 0
 421 387 415 372 402 359 c 0
 389 345 368 338 339 337 c 1
EndSplineSet
Validated: 1
Substitution2: "'sups' Superscript lookup 4-1" c.superior
Substitution2: "'smcp' Lowercase to Small Capitals in Latin lookup 0 subtable" c.sc
EndChar

StartChar: d
Encoding: 100 100 69
Width: 497
GlyphClass: 2
Flags: W
HStem: -10 76<134 225.042> 419 64<212.077 311.619> 723 20G<413 434.5>
VStem: 24 123<90.6471 301.355> 304 104<61.1346 188.281> 373 113<498.842 701.218>
LayerCount: 2
Fore
SplineSet
349 435 m 1xf8
 365 544 373 607 373 626 c 0
 373 651 364 668 346 676 c 1
 347 693 355 709 370 722 c 0
 384 736 402 743 424 743 c 0
 445 743 461 737 471 724 c 0
 481 712 486 697 486 679 c 0xf4
 486 653 473 554 447 383 c 0
 421 212 408 120 408 107 c 0
 408 81 420 63 445 52 c 1
 436 11 413 -10 374 -10 c 0
 353 -10 336 -2 323 15 c 0
 310 32 304 50 304 71 c 0
 304 80 304 87 305 94 c 1
 258 25 208 -10 153 -10 c 0
 115 -10 84 6 60 36 c 0
 36 68 24 112 24 170 c 0
 24 253 46 326 90 388 c 0
 135 452 186 483 244 483 c 0
 284 483 319 467 349 435 c 1xf8
315 205 m 1
 339 370 l 1
 320 390 306 403 297 409 c 0
 287 416 276 419 265 419 c 0
 231 419 203 398 181 355 c 0
 158 313 147 258 147 191 c 0
 147 154 152 124 163 101 c 0
 174 78 188 66 206 66 c 0
 222 66 241 79 262 105 c 0
 283 132 300 165 315 205 c 1
EndSplineSet
Validated: 1
Substitution2: "'sups' Superscript lookup 4-1" d.superior
Substitution2: "'smcp' Lowercase to Small Capitals in Latin lookup 0 subtable" d.sc
EndChar

StartChar: e
Encoding: 101 101 70
Width: 448
GlyphClass: 2
Flags: W
HStem: -10 66<182.683 291.218> 177 59<152.122 247.657> 419 65<208.003 307.887>
VStem: 27 124<89.6709 179 236 309.396> 296 124<283.446 410.75>
LayerCount: 2
Fore
SplineSet
151 179 m 1
 152 138 160 107 175 86 c 0
 191 66 210 56 233 56 c 0
 252 56 270 62 288 75 c 0
 306 88 321 105 332 126 c 1
 364 113 380 94 380 67 c 0
 380 46 364 28 333 13 c 0
 302 -2 266 -10 225 -10 c 0
 200 -10 176 -7 153 0 c 0
 131 7 110 18 90 32 c 0
 71 47 55 67 44 92 c 0
 33 118 27 148 27 183 c 0
 27 232 35 276 51 315 c 0
 67 355 88 387 113 410 c 0
 139 434 167 452 196 465 c 0
 226 478 256 484 285 484 c 0
 330 484 363 472 386 450 c 0
 409 426 420 398 420 363 c 0
 420 330 410 298 391 266 c 0
 372 236 346 213 313 200 c 0
 277 185 234 177 184 177 c 0
 174 177 163 178 151 179 c 1
296 358 m 0
 296 375 292 390 283 401 c 0
 275 413 264 419 251 419 c 0
 226 419 205 401 186 366 c 0
 167 331 156 288 152 236 c 1
 165 236 175 236 184 237 c 0
 193 238 206 241 221 246 c 0
 236 251 249 257 258 265 c 0
 268 273 277 285 284 301 c 0
 292 317 296 336 296 358 c 0
EndSplineSet
Validated: 1
Substitution2: "'sups' Superscript lookup 4-1" e.superior
Substitution2: "'smcp' Lowercase to Small Capitals in Latin lookup 0 subtable" e.sc
EndChar

StartChar: f
Encoding: 102 102 71
Width: 344
GlyphClass: 2
Flags: W
HStem: 401 72<43.0684 99 213 344.676> 642 72<254.155 340.953>
VStem: 99 108<193.57 401> 106 107<473 578.578>
LayerCount: 2
Fore
SplineSet
362 577 m 1xd0
 350 620 328 642 295 642 c 0
 271 642 252 626 238 593 c 0
 225 560 216 519 213 472 c 1xd0
 262 472 307 474 349 477 c 1
 351 468 352 460 352 452 c 0
 352 421 336 405 304 404 c 0
 289 403 256 402 207 402 c 1
 191 237 178 122 169 57 c 0
 166 33 162 12 158 -5 c 0
 155 -22 149 -42 141 -63 c 0
 134 -85 123 -102 110 -113 c 0
 97 -125 81 -131 63 -131 c 0
 32 -131 10 -110 -4 -68 c 1
 47 -53 81 103 99 401 c 1xe0
 79 400 58 399 37 396 c 1
 36 408 35 416 35 419 c 0
 35 455 54 473 93 473 c 2
 106 473 l 1
 121 634 193 714 321 714 c 0
 354 714 382 708 407 698 c 0
 432 686 444 669 444 644 c 0
 444 628 438 613 426 599 c 0
 413 585 392 578 362 577 c 1xd0
EndSplineSet
Validated: 1
Substitution2: "'sups' Superscript lookup 4-1" f.superior
Substitution2: "'smcp' Lowercase to Small Capitals in Latin lookup 0 subtable" f.sc
EndChar

StartChar: g
Encoding: 103 103 72
Width: 484
GlyphClass: 2
Flags: W
HStem: -253 66<94.3508 214.008> -10 76<134.5 230.282> 418 67<212.409 324.444>
VStem: 27 123<92.665 302.54>
LayerCount: 2
Fore
SplineSet
209 66 m 0
 225 66 243 79 264 104 c 0
 284 129 302 163 319 206 c 1
 328 267 337 324 346 376 c 1
 321 404 294 418 265 418 c 0
 230 418 202 396 181 352 c 0
 160 307 150 254 150 191 c 0
 150 153 156 123 168 100 c 0
 179 77 193 66 209 66 c 0
267 485 m 0
 342 485 406 466 460 428 c 1
 444 363 428 274 411 162 c 0
 409 147 406 126 403 97 c 0
 400 68 397 45 395 26 c 0
 392 8 388 -15 383 -42 c 0
 377 -69 370 -91 363 -109 c 0
 356 -126 346 -145 333 -165 c 0
 320 -185 305 -201 288 -213 c 0
 271 -224 250 -234 225 -242 c 0
 200 -249 171 -253 140 -253 c 0
 101 -253 68 -246 42 -232 c 0
 16 -218 3 -201 3 -182 c 0
 3 -155 24 -134 67 -117 c 1
 82 -164 109 -187 148 -187 c 0
 237 -187 287 -98 296 80 c 1
 277 49 254 26 229 11 c 0
 203 -3 179 -10 156 -10 c 0
 113 -10 81 7 60 42 c 0
 38 77 27 120 27 170 c 0
 27 255 50 328 96 391 c 0
 142 454 199 485 267 485 c 0
EndSplineSet
Validated: 1
Substitution2: "'sups' Superscript lookup 4-1" g.superior
Substitution2: "'smcp' Lowercase to Small Capitals in Latin lookup 0 subtable" g.sc
EndChar

StartChar: h
Encoding: 104 104 73
Width: 485
GlyphClass: 2
Flags: W
HStem: -4 21G<71.5 99 358 376.5> 407 77<266.332 355.5> 723 20G<160.5 181.5>
VStem: 35 118<1.00977 198.251> 120 113<497.002 701.218> 296 108<61.4454 243.784> 332 109<214.768 401.918>
LayerCount: 2
Fore
SplineSet
173 259 m 1xe2
 160 159 153 92 153 59 c 0
 153 40 154 22 156 5 c 1
 130 -1 108 -4 90 -4 c 0
 53 -4 35 8 35 31 c 0xf2
 35 54 49 153 77 328 c 0
 106 502 120 601 120 625 c 0
 120 650 111 667 93 676 c 1
 94 694 102 710 117 723 c 0
 132 736 150 743 171 743 c 0
 192 743 208 737 218 724 c 0
 228 712 233 697 233 679 c 0
 233 663 228 621 219 553 c 0
 210 485 202 432 195 395 c 1
 215 424 238 446 264 461 c 0
 290 476 315 484 339 484 c 0
 372 484 397 472 414 449 c 0
 432 426 441 395 441 358 c 0xea
 441 346 435 306 423 238 c 0
 412 170 405 127 404 108 c 0xe4
 404 82 416 63 441 52 c 1xe2
 438 33 430 18 415 7 c 0
 401 -4 385 -10 368 -10 c 0
 348 -10 331 -2 317 13 c 0
 303 28 296 51 296 80 c 0xe4
 296 108 302 156 314 222 c 0
 326 290 332 329 332 342 c 0
 332 385 319 407 292 407 c 0
 272 407 251 393 230 366 c 0
 208 338 189 302 173 259 c 1xe2
EndSplineSet
Validated: 1
Substitution2: "'sups' Superscript lookup 4-1" h.superior
Substitution2: "'smcp' Lowercase to Small Capitals in Latin lookup 0 subtable" h.sc
EndChar

StartChar: i
Encoding: 105 105 74
Width: 232
GlyphClass: 2
Flags: W
HStem: -10 21G<99.5 121.5> 464 20G<128.5 146.5> 531 139<117.539 199.973>
VStem: 40 105<60.8735 220.716> 87 113<282.577 444.241> 94 129<554.517 646.394>
LayerCount: 2
Fore
SplineSet
150 531 m 0xe8
 133 531 120 537 110 548 c 0
 99 559 94 573 94 592 c 0
 94 613 101 632 116 647 c 0
 131 662 148 670 167 670 c 0
 182 670 196 664 206 652 c 0
 218 639 223 624 223 606 c 0xe4
 223 585 215 568 200 553 c 0
 184 538 167 531 150 531 c 0xe8
87 366 m 0xe8
 87 391 78 408 60 417 c 1
 62 437 71 453 86 466 c 0
 101 478 119 484 138 484 c 0
 155 484 170 479 182 468 c 0
 194 457 200 442 200 421 c 0xe8
 200 396 191 339 172 252 c 0
 154 164 145 116 145 108 c 0
 145 81 157 63 182 52 c 1
 179 35 172 20 160 8 c 0
 147 -4 131 -10 112 -10 c 0
 87 -10 69 -1 58 17 c 0
 46 35 40 56 40 81 c 0xf0
 40 112 48 162 64 230 c 0
 79 298 87 343 87 366 c 0xe8
EndSplineSet
Validated: 1
Substitution2: "'sups' Superscript lookup 4-1" i.superior
Substitution2: "'smcp' Lowercase to Small Capitals in Latin lookup 0 subtable" i.sc
EndChar

StartChar: j
Encoding: 106 106 75
Width: 253
GlyphClass: 2
Flags: W
HStem: -253 65<-108.296 -18.6187> 464 20G<142.5 162> 531 139<131.539 213.973>
VStem: 101 113<223.814 443.218> 108 129<554.517 646.394>
LayerCount: 2
Fore
SplineSet
164 531 m 0xf0
 147 531 134 537 124 548 c 0
 113 559 108 573 108 592 c 0
 108 613 115 632 130 647 c 0
 145 662 162 670 181 670 c 0
 196 670 210 664 220 652 c 0
 232 639 237 624 237 606 c 0xe8
 237 585 229 568 214 553 c 0
 198 538 181 531 164 531 c 0xf0
152 484 m 0
 172 484 187 478 198 466 c 0
 209 454 214 439 214 421 c 0
 214 397 207 335 194 235 c 0
 180 135 168 53 157 -10 c 0
 130 -172 57 -253 -64 -253 c 0
 -99 -253 -128 -246 -153 -232 c 0
 -178 -218 -190 -201 -190 -182 c 0
 -190 -155 -170 -133 -130 -117 c 1
 -125 -140 -117 -157 -106 -169 c 0
 -95 -182 -81 -188 -66 -188 c 0
 -44 -188 -22 -176 -2 -151 c 0
 20 -127 34 -93 41 -49 c 0
 81 189 101 327 101 366 c 0xf0
 101 390 92 407 74 417 c 1
 75 436 84 452 100 465 c 0
 115 478 133 484 152 484 c 0
EndSplineSet
Validated: 1
Substitution2: "'sups' Superscript lookup 4-1" j.superior
Substitution2: "'smcp' Lowercase to Small Capitals in Latin lookup 0 subtable" j.sc
EndChar

StartChar: k
Encoding: 107 107 76
Width: 476
GlyphClass: 2
Flags: W
HStem: -10 81<353.383 428.794> 408 76<268.172 364.5> 723 20G<160.5 181.5>
VStem: 35 118<1.00977 197.503> 120 113<496.017 701.695> 333 123<291.835 395.521>
LayerCount: 2
Fore
SplineSet
346 484 m 0xec
 383 484 410 474 428 454 c 0
 447 435 456 409 456 378 c 0
 456 335 441 294 410 255 c 0
 380 216 342 193 295 187 c 1
 316 145 334 115 349 97 c 0
 364 80 383 71 407 71 c 0
 415 71 424 72 434 74 c 1
 437 64 438 53 438 42 c 0
 438 7 414 -10 365 -10 c 0
 329 -10 300 5 279 35 c 0
 258 65 234 116 208 189 c 1
 197 196 192 204 192 214 c 0
 192 225 196 237 205 250 c 1
 219 245 232 242 243 242 c 0
 269 242 290 252 307 272 c 0
 324 293 333 317 333 345 c 0
 333 363 329 378 322 390 c 0
 315 402 304 408 289 408 c 0
 273 408 253 394 230 367 c 0
 207 340 188 306 174 267 c 1
 160 172 153 102 153 59 c 0
 153 40 154 22 156 5 c 1
 130 -1 108 -4 90 -4 c 0
 53 -4 35 8 35 31 c 0xf4
 35 54 49 153 77 328 c 0
 106 502 120 601 120 625 c 0
 120 650 111 667 93 676 c 1
 94 694 102 710 117 723 c 0
 132 736 150 743 171 743 c 0
 192 743 208 737 218 725 c 0
 228 712 233 697 233 679 c 0
 233 663 228 621 219 552 c 0
 210 483 201 429 194 388 c 1
 237 452 287 484 346 484 c 0xec
EndSplineSet
Validated: 1
Substitution2: "'sups' Superscript lookup 4-1" k.superior
Substitution2: "'smcp' Lowercase to Small Capitals in Latin lookup 0 subtable" k.sc
EndChar

StartChar: l
Encoding: 108 108 77
Width: 229
GlyphClass: 2
Flags: W
HStem: -10 21G<94 125.5> 723 20G<145.5 166.5>
VStem: 35 105<60.6738 262.479> 105 113<502.536 701.218>
LayerCount: 2
Fore
SplineSet
156 743 m 0xd0
 177 743 193 737 203 724 c 0
 213 712 218 697 218 679 c 0xd0
 218 654 206 558 180 392 c 0
 156 224 142 130 140 109 c 0
 140 81 152 62 177 52 c 1
 169 11 145 -10 106 -10 c 0
 82 -10 64 -1 52 17 c 0
 41 35 35 56 35 81 c 0xe0
 35 112 46 203 68 353 c 0
 91 503 103 594 105 625 c 0
 105 650 96 667 78 676 c 1
 79 694 87 710 102 723 c 0
 117 736 135 743 156 743 c 0xd0
EndSplineSet
Validated: 1
Substitution2: "'sups' Superscript lookup 4-1" l.superior
Substitution2: "'smcp' Lowercase to Small Capitals in Latin lookup 0 subtable" l.sc
EndChar

StartChar: m
Encoding: 109 109 78
Width: 738
GlyphClass: 2
Flags: W
HStem: -4 21G<80.5 108 324.5 352 601 619.5> 407 77<270.018 345.496 512.38 591.567>
VStem: 44 118<1.00977 187.644> 61 140<396.125 461.311> 288 118<1.00977 182.736> 539 108<61.4454 243.654> 575 109<214.724 402.92>
LayerCount: 2
Fore
SplineSet
182 259 m 1xca
 169 159 162 92 162 59 c 0
 162 40 163 22 165 5 c 1
 139 -1 117 -4 99 -4 c 0
 62 -4 44 8 44 31 c 0xea
 44 40 51 92 66 189 c 0
 81 286 89 344 89 363 c 0
 89 391 80 409 61 417 c 1
 64 438 73 454 88 466 c 0
 103 478 120 484 139 484 c 0
 156 484 171 479 183 468 c 0
 195 457 201 442 201 422 c 0
 201 410 200 398 198 386 c 1
 216 417 238 441 263 458 c 0
 288 475 313 484 338 484 c 0
 367 484 390 475 407 456 c 0
 425 437 436 412 439 381 c 1
 456 414 478 439 504 457 c 0
 530 475 556 484 582 484 c 0
 615 484 640 472 657 449 c 0
 675 426 684 395 684 358 c 0xda
 684 346 678 306 666 238 c 0
 655 170 648 127 647 108 c 0xcc
 647 82 659 63 684 52 c 1xca
 681 33 673 18 658 7 c 0
 644 -4 628 -10 611 -10 c 0
 591 -10 574 -2 560 13 c 0
 546 28 539 51 539 80 c 0xcc
 539 108 545 155 557 222 c 0
 569 289 575 329 575 342 c 0
 575 385 562 407 537 407 c 0
 520 407 500 393 479 365 c 0
 458 337 441 305 428 269 c 1
 413 179 406 109 406 59 c 0
 406 40 407 22 409 5 c 1
 383 -1 361 -4 343 -4 c 0
 306 -4 288 8 288 31 c 0
 288 40 295 89 309 178 c 0
 323 268 330 325 330 348 c 0
 330 387 318 407 293 407 c 0
 275 407 255 392 232 362 c 0
 210 331 193 297 182 259 c 1xca
EndSplineSet
Validated: 1
Substitution2: "'sups' Superscript lookup 4-1" m.superior
Substitution2: "'smcp' Lowercase to Small Capitals in Latin lookup 0 subtable" m.sc
EndChar

StartChar: n
Encoding: 110 110 79
Width: 504
GlyphClass: 2
Flags: W
HStem: -4 21G<80.5 108 367 385.5> 407 77<274.849 364.5>
VStem: 44 118<1.00977 188.143> 61 140<396.125 461.311> 305 108<61.4454 243.784> 341 109<214.768 401.918>
LayerCount: 2
Fore
SplineSet
182 259 m 1xc4
 169 159 162 92 162 59 c 0
 162 40 163 22 165 5 c 1
 139 -1 117 -4 99 -4 c 0
 62 -4 44 8 44 31 c 0xe4
 44 40 51 92 66 190 c 0
 81 286 89 344 89 363 c 0
 89 391 80 409 61 417 c 1
 64 438 73 454 88 466 c 0
 103 478 120 484 139 484 c 0
 156 484 171 479 183 468 c 0
 195 457 201 442 201 422 c 0
 201 410 200 398 198 386 c 1
 217 417 241 442 268 458 c 0
 296 476 323 484 348 484 c 0
 381 484 406 472 423 449 c 0
 441 426 450 395 450 358 c 0xd4
 450 346 444 306 432 238 c 0
 421 170 414 127 413 108 c 0xc8
 413 82 425 63 450 52 c 1xc4
 447 33 439 18 424 7 c 0
 410 -4 394 -10 377 -10 c 0
 357 -10 340 -2 326 13 c 0
 312 28 305 51 305 80 c 0xc8
 305 108 311 156 323 222 c 0
 335 290 341 329 341 342 c 0
 341 385 328 407 301 407 c 0
 281 407 260 393 238 366 c 0
 217 338 198 302 182 259 c 1xc4
EndSplineSet
Validated: 1
Substitution2: "'sups' Superscript lookup 4-1" n.superior
Substitution2: "'smcp' Lowercase to Small Capitals in Latin lookup 0 subtable" n.sc
EndChar

StartChar: o
Encoding: 111 111 80
Width: 501
GlyphClass: 2
Flags: W
HStem: -10 66<185.799 286.501> 418 66<213.907 315.268>
VStem: 27 123<97.9731 311.313> 350 124<164.758 377.45>
LayerCount: 2
Fore
SplineSet
213 -10 m 0
 154 -10 109 7 76 42 c 0
 43 76 27 124 27 185 c 0
 27 269 51 340 99 397 c 0
 147 455 208 484 283 484 c 0
 343 484 390 466 424 431 c 0
 457 396 474 348 474 287 c 0
 474 204 449 133 400 76 c 0
 350 19 288 -10 213 -10 c 0
269 418 m 0
 232 418 203 396 182 352 c 0
 161 309 150 258 150 201 c 0
 150 159 157 124 172 97 c 0
 186 70 206 56 232 56 c 0
 268 56 297 77 318 120 c 0
 339 163 350 212 350 269 c 0
 350 312 343 348 329 376 c 0
 314 404 294 418 269 418 c 0
EndSplineSet
Validated: 1
Substitution2: "'sups' Superscript lookup 4-1" o.superior
Substitution2: "'smcp' Lowercase to Small Capitals in Latin lookup 0 subtable" o.sc
EndChar

StartChar: p
Encoding: 112 112 81
Width: 505
GlyphClass: 2
Flags: W
HStem: -253 21G<52.5 85> -10 65<179.559 285.445> 407 77<270.144 388.5>
VStem: 13 110<-216.999 8.90002> 63 143<393.514 461.068> 355 123<162.657 384.666>
LayerCount: 2
Fore
SplineSet
188 278 m 1xe4
 184 245 174 186 158 100 c 1
 181 70 205 55 232 55 c 0
 265 55 294 76 318 117 c 0
 343 158 355 215 355 287 c 0
 355 367 334 407 291 407 c 0
 260 407 225 364 188 278 c 1xe4
144 484 m 0
 164 484 179 478 190 466 c 0
 201 455 206 439 206 420 c 0xec
 206 413 205 404 204 393 c 1
 243 454 289 484 344 484 c 0
 433 484 478 422 478 298 c 0
 478 209 455 136 410 78 c 0
 365 19 314 -10 257 -10 c 0
 216 -10 180 5 148 34 c 1
 131 -61 123 -118 123 -137 c 0
 123 -162 131 -183 147 -198 c 1
 123 -235 98 -253 72 -253 c 0
 33 -253 13 -223 13 -163 c 0xf4
 13 -130 25 -42 50 101 c 0
 75 244 88 333 90 366 c 0
 90 390 81 407 63 417 c 1xec
 65 438 74 454 91 466 c 0
 108 478 125 484 144 484 c 0
EndSplineSet
Validated: 1
Substitution2: "'sups' Superscript lookup 4-1" p.superior
Substitution2: "'smcp' Lowercase to Small Capitals in Latin lookup 0 subtable" p.sc
EndChar

StartChar: q
Encoding: 113 113 82
Width: 494
GlyphClass: 2
Flags: W
HStem: -253 21G<323.5 346.5> -10 76<143.5 236.472> 418 66<222.359 331.162>
VStem: 35 123<93.231 304.29> 265 108<-208.393 -4.69139>
LayerCount: 2
Fore
SplineSet
327 207 m 1
 336 272 345 328 354 376 c 1
 327 404 300 418 274 418 c 0
 241 418 213 397 191 354 c 0
 169 312 158 258 158 191 c 0
 158 155 164 125 175 102 c 0
 186 78 201 66 219 66 c 0
 235 66 254 80 274 106 c 0
 296 134 313 167 327 207 c 1
470 427 m 1
 457 371 438 268 412 117 c 0
 386 -34 373 -120 373 -142 c 0
 373 -165 384 -182 407 -191 c 1
 404 -210 396 -225 384 -236 c 0
 371 -247 356 -253 337 -253 c 0
 310 -253 292 -243 281 -224 c 0
 270 -205 265 -184 265 -162 c 0
 265 -133 277 -55 300 73 c 1
 260 18 214 -10 163 -10 c 0
 124 -10 93 6 70 37 c 0
 47 68 35 113 35 171 c 0
 35 257 58 331 104 392 c 0
 150 453 207 484 274 484 c 0
 348 484 413 465 470 427 c 1
EndSplineSet
Validated: 1
Substitution2: "'sups' Superscript lookup 4-1" q.superior
Substitution2: "'smcp' Lowercase to Small Capitals in Latin lookup 0 subtable" q.sc
EndChar

StartChar: r
Encoding: 114 114 83
Width: 359
GlyphClass: 2
Flags: W
HStem: -4 21G<79.5 107> 386 98<266.329 357.272>
VStem: 43 118<1.00977 189.412> 60 140<395.984 461.311>
LayerCount: 2
Fore
SplineSet
301 386 m 0xd0
 262 386 224 358 187 301 c 1
 170 184 161 103 161 59 c 0
 161 40 162 22 164 5 c 1
 138 -1 116 -4 98 -4 c 0
 61 -4 43 8 43 31 c 0xe0
 43 40 50 92 65 190 c 0
 80 286 88 344 88 363 c 0
 88 391 79 409 60 417 c 1
 63 438 72 454 87 466 c 0
 102 478 119 484 138 484 c 0
 155 484 170 479 182 468 c 0
 194 457 200 442 200 422 c 0
 200 411 199 399 197 387 c 1
 213 413 233 436 256 455 c 0
 280 474 304 484 329 484 c 0
 359 484 374 468 374 436 c 0
 374 410 365 387 346 367 c 1
 333 380 318 386 301 386 c 0xd0
EndSplineSet
Validated: 1
Substitution2: "'sups' Superscript lookup 4-1" r.superior
Substitution2: "'smcp' Lowercase to Small Capitals in Latin lookup 0 subtable" r.sc
EndChar

StartChar: s
Encoding: 115 115 84
Width: 385
GlyphClass: 2
Flags: W
HStem: -10 72<95.7189 223.452> 414 71<168.1 260.477>
VStem: 48 97<297.513 389.927> 247 96<82.8263 165.429>
LayerCount: 2
Fore
SplineSet
287 345 m 1
 280 368 271 386 259 397 c 0
 246 408 233 414 218 414 c 0
 200 414 183 407 168 392 c 0
 153 377 145 360 145 340 c 0
 145 322 152 308 166 298 c 0
 179 288 196 280 215 275 c 0
 234 270 254 263 273 256 c 0
 292 249 309 236 322 217 c 0
 336 198 343 174 343 144 c 0
 343 93 325 55 288 29 c 0
 252 3 205 -10 147 -10 c 0
 108 -10 74 -3 46 12 c 0
 19 27 5 46 5 71 c 0
 5 105 25 126 65 134 c 1
 71 111 82 94 99 81 c 0
 116 68 134 62 154 62 c 0
 182 62 204 68 222 80 c 0
 238 93 247 107 247 124 c 0
 247 141 240 155 226 165 c 0
 213 175 196 183 177 189 c 0
 158 195 138 202 118 210 c 0
 99 218 82 231 68 250 c 0
 55 269 48 293 48 322 c 0
 48 376 66 417 103 444 c 0
 140 471 184 485 237 485 c 0
 266 485 294 478 321 463 c 0
 348 449 361 429 361 404 c 0
 361 370 336 350 287 345 c 1
EndSplineSet
Validated: 1
Substitution2: "'sups' Superscript lookup 4-1" s.superior
Substitution2: "'smcp' Lowercase to Small Capitals in Latin lookup 0 subtable" s.sc
EndChar

StartChar: t
Encoding: 116 116 85
Width: 344
GlyphClass: 2
Flags: W
HStem: -10 69<184.634 285.015> 402 71<25.7571 102 219 365.074>
VStem: 67 105<71.8047 306.058> 120 111<519 575.307>
LayerCount: 2
Fore
SplineSet
75 473 m 2xe0
 109 473 l 1
 110 477 111 492 114 519 c 0
 117 546 119 564 120 573 c 1
 134 578 153 580 176 580 c 0
 213 580 231 569 231 546 c 0xd0
 231 543 227 518 219 472 c 1
 276 472 326 474 369 477 c 1
 371 469 372 461 372 453 c 0
 372 422 357 405 326 403 c 0
 305 402 266 402 208 402 c 1
 184 247 172 158 172 133 c 0
 172 104 177 84 187 74 c 0
 197 64 213 59 234 59 c 0
 255 59 275 69 294 89 c 1
 311 77 320 62 320 43 c 0
 320 8 281 -10 203 -10 c 0
 164 -10 132 0 106 21 c 0
 80 42 67 76 67 125 c 0
 67 140 69 162 72 191 c 0
 76 220 81 257 88 302 c 0
 95 347 99 380 102 402 c 1
 91 402 63 400 19 396 c 1
 18 405 17 412 17 417 c 0
 17 454 36 473 75 473 c 2xe0
EndSplineSet
Validated: 1
Substitution2: "'sups' Superscript lookup 4-1" t.superior
Substitution2: "'smcp' Lowercase to Small Capitals in Latin lookup 0 subtable" t.sc
EndChar

StartChar: u
Encoding: 117 117 86
Width: 501
GlyphClass: 2
Flags: W
HStem: -10 77<135.5 224.462> 464 20G<127.5 147.5>
VStem: 50 109<72.0818 256.876> 88 113<261.963 445.263> 299 140<12.6895 77.875> 348 111<306.278 475.99>
LayerCount: 2
Fore
SplineSet
201 422 m 0xd0
 201 394 194 342 180 266 c 0
 166 189 159 145 159 132 c 0
 159 89 172 67 199 67 c 0
 219 67 240 81 261 108 c 0
 283 136 302 172 318 215 c 0
 320 232 324 259 329 297 c 0
 334 335 338 367 341 393 c 0
 344 419 347 446 348 474 c 1
 365 479 383 481 404 481 c 0
 441 481 459 469 459 446 c 0xe4
 459 442 458 436 457 427 c 0
 456 418 453 405 450 387 c 0
 447 369 444 353 442 338 c 0
 442 337 439 318 433 280 c 0
 426 244 421 210 417 180 c 0
 413 149 411 126 411 111 c 0
 411 83 420 65 439 57 c 1
 436 36 427 20 412 8 c 0
 397 -4 380 -10 361 -10 c 0
 344 -10 329 -5 317 6 c 0
 305 17 299 32 299 52 c 0
 299 64 300 76 302 88 c 1
 283 57 259 33 232 16 c 0
 204 -1 177 -10 152 -10 c 0
 119 -10 94 2 76 25 c 0
 59 48 50 79 50 116 c 0xe8
 50 128 56 170 69 242 c 0
 82 314 88 358 88 374 c 0
 88 391 79 405 61 417 c 1
 62 433 70 448 84 462 c 0
 98 477 116 484 139 484 c 0
 156 484 171 479 183 469 c 0
 195 459 201 443 201 422 c 0xd0
EndSplineSet
Validated: 1
Substitution2: "'sups' Superscript lookup 4-1" u.superior
Substitution2: "'smcp' Lowercase to Small Capitals in Latin lookup 0 subtable" u.sc
EndChar

StartChar: v
Encoding: 118 118 87
Width: 431
GlyphClass: 2
Flags: W
HStem: -10 21G<121 149> 464 20G<114.5 149.5 355.5 380.5>
VStem: 48 112<66.9466 323.035> 68 124<251.404 467.493> 311 118<303.545 464.699>
LayerCount: 2
Fore
SplineSet
68 374 m 0xd8
 68 407 62 437 49 464 c 1
 75 477 101 484 128 484 c 0
 171 484 192 462 192 418 c 0xd8
 192 394 187 350 176 287 c 0
 165 224 160 177 160 147 c 0
 160 112 165 85 174 66 c 1
 211 74 243 113 270 184 c 0
 297 255 311 320 311 377 c 0
 311 416 306 445 296 466 c 1
 317 478 341 484 370 484 c 0
 391 484 406 478 415 465 c 0
 424 452 429 437 429 418 c 0
 429 386 422 346 406 299 c 0
 392 252 372 206 346 159 c 0
 322 112 289 72 250 39 c 0
 211 6 170 -10 128 -10 c 0
 114 -10 101 -7 90 -2 c 1
 62 27 48 72 48 135 c 0xe8
 48 166 51 203 58 248 c 0
 65 293 68 335 68 374 c 0xd8
EndSplineSet
Validated: 1
Substitution2: "'sups' Superscript lookup 4-1" v.superior
Substitution2: "'smcp' Lowercase to Small Capitals in Latin lookup 0 subtable" v.sc
EndChar

StartChar: w
Encoding: 119 119 88
Width: 643
GlyphClass: 2
Flags: W
HStem: -10 21G<120.5 154 342.5 369.5> 464 20G<114.5 149.5 567.5 592.5>
VStem: 48 112<66.9466 323.035> 68 124<251.404 467.493> 301 118<281.564 439.246> 523 118<299.876 464.699>
LayerCount: 2
Fore
SplineSet
68 374 m 0xdc
 68 407 62 437 49 464 c 1
 75 477 101 484 128 484 c 0
 171 484 192 462 192 418 c 0xdc
 192 394 187 350 176 287 c 0
 165 224 160 177 160 147 c 0
 160 112 165 85 174 66 c 1
 208 73 238 110 263 176 c 0
 288 243 301 303 301 357 c 0
 301 392 296 420 286 440 c 1
 307 452 331 458 360 458 c 0
 381 458 396 452 405 440 c 0
 414 428 419 413 419 395 c 0
 419 352 406 299 380 234 c 1
 379 213 378 196 378 185 c 0
 378 130 384 91 396 66 c 1
 430 74 460 113 485 184 c 0
 510 255 523 320 523 377 c 0
 523 416 518 445 508 466 c 1
 529 478 553 484 582 484 c 0
 603 484 618 478 627 465 c 0
 636 452 641 437 641 418 c 0
 641 386 634 346 619 299 c 0
 604 252 585 206 560 159 c 0
 536 112 505 72 467 39 c 0
 429 6 390 -10 349 -10 c 0
 336 -10 323 -7 312 -2 c 1
 295 15 285 39 282 71 c 1
 233 17 181 -10 127 -10 c 0
 114 -10 101 -7 90 -2 c 1
 62 27 48 72 48 135 c 0xec
 48 166 51 203 58 248 c 0
 65 293 68 335 68 374 c 0xdc
EndSplineSet
Validated: 1
Substitution2: "'sups' Superscript lookup 4-1" w.superior
Substitution2: "'smcp' Lowercase to Small Capitals in Latin lookup 0 subtable" w.sc
EndChar

StartChar: x
Encoding: 120 120 89
Width: 424
GlyphClass: 2
Flags: W
HStem: -10 90<339.75 372.295> 394 90<57.3639 93.9988>
VStem: 11 87<3.33032 51.6836> 303 95<407.096 476.506>
LayerCount: 2
Fore
SplineSet
268 241 m 0
 273 232 280 216 289 193 c 0
 298 171 305 155 310 146 c 0
 315 137 321 127 330 114 c 0
 339 101 348 92 358 87 c 0
 367 82 378 80 391 80 c 1
 394 68 395 58 395 51 c 0
 395 34 388 19 373 7 c 0
 358 -4 341 -10 320 -10 c 0
 279 -10 236 47 191 160 c 1
 134 84 103 29 98 -5 c 1
 88 -7 79 -8 70 -8 c 0
 52 -8 38 -4 27 3 c 0
 16 10 11 20 11 33 c 0
 11 47 17 64 30 83 c 0
 55 119 99 168 164 231 c 1
 161 238 158 247 153 260 c 0
 148 273 144 282 141 288 c 0
 138 294 135 302 130 313 c 0
 125 324 122 331 118 336 c 0
 116 341 112 348 107 355 c 0
 102 363 98 369 94 372 c 0
 90 375 85 379 80 383 c 0
 75 387 69 390 63 391 c 0
 57 393 51 394 44 394 c 1
 41 406 40 416 40 423 c 0
 40 440 47 455 62 466 c 0
 77 478 94 484 115 484 c 0
 138 484 161 467 184 434 c 0
 206 401 224 362 238 319 c 1
 276 386 298 440 303 480 c 1
 314 483 326 484 339 484 c 0
 378 484 398 469 398 438 c 0
 398 425 392 408 381 388 c 0
 370 367 359 350 349 338 c 0
 339 324 324 306 302 281 c 0
 282 256 270 243 268 241 c 0
EndSplineSet
Validated: 1
Substitution2: "'sups' Superscript lookup 4-1" x.superior
Substitution2: "'smcp' Lowercase to Small Capitals in Latin lookup 0 subtable" x.sc
EndChar

StartChar: y
Encoding: 121 121 90
Width: 433
GlyphClass: 2
Flags: W
HStem: -230 66<-118.277 11.5723> 464 20G<69.5 99 345 375.5>
VStem: 304 114<298.382 468.051>
LayerCount: 2
Fore
SplineSet
150 435 m 0
 181 349 203 244 216 121 c 1
 275 233 304 327 304 403 c 0
 304 422 300 442 292 465 c 1
 315 478 336 484 354 484 c 0
 397 484 418 462 418 417 c 0
 418 365 401 299 366 218 c 0
 332 138 291 63 242 -7 c 0
 206 -58 174 -99 148 -128 c 0
 120 -157 88 -182 51 -201 c 0
 14 -220 -27 -230 -72 -230 c 0
 -105 -230 -132 -225 -156 -214 c 0
 -178 -203 -190 -189 -190 -171 c 0
 -190 -149 -174 -129 -143 -110 c 1
 -124 -146 -96 -164 -60 -164 c 0
 3 -164 68 -113 135 -10 c 1
 132 74 117 164 89 260 c 0
 61 357 34 416 7 439 c 1
 32 469 57 484 82 484 c 0
 116 484 139 468 150 435 c 0
EndSplineSet
Validated: 1
Substitution2: "'sups' Superscript lookup 4-1" y.superior
Substitution2: "'smcp' Lowercase to Small Capitals in Latin lookup 0 subtable" y.sc
EndChar

StartChar: z
Encoding: 122 122 91
Width: 423
GlyphClass: 2
Flags: W
HStem: -10 76<148.582 368.43> -1 21G<23.5 40> 408 76<63.2323 281.808>
LayerCount: 2
Fore
SplineSet
108 484 m 0x60
 124 484 160 481 215 475 c 0
 270 468 311 465 338 465 c 0
 367 465 388 468 401 474 c 1
 412 463 418 447 418 427 c 0
 418 407 412 390 401 377 c 0
 272 233 188 135 148 83 c 1
 162 82 187 79 223 74 c 0
 258 69 285 66 302 66 c 0
 331 66 353 70 370 78 c 1
 375 67 378 55 378 40 c 0
 378 7 351 -10 298 -10 c 0xa0
 283 -10 253 -7 208 -1 c 0
 163 5 129 8 104 8 c 0
 75 8 50 5 30 -1 c 1
 17 16 11 30 11 41 c 0
 11 53 15 67 24 82 c 0
 53 133 139 237 283 395 c 1
 272 396 248 398 213 402 c 0
 177 406 149 408 128 408 c 0
 105 408 84 403 64 394 c 1
 59 410 56 424 56 437 c 0
 56 468 73 484 108 484 c 0x60
EndSplineSet
Validated: 1
Substitution2: "'sups' Superscript lookup 4-1" z.superior
Substitution2: "'smcp' Lowercase to Small Capitals in Latin lookup 0 subtable" z.sc
EndChar

StartChar: braceleft
Encoding: 123 123 92
Width: 438
GlyphClass: 2
Flags: W
HStem: -139 71<242.333 340> 256 63<72 139.197> 643 72<335.428 446.252>
VStem: 135 96<-63.3431 126.077> 165 96<31.9243 233>
LayerCount: 2
Fore
SplineSet
318 586 m 2xe8
 290 391 l 2
 287 372 278 353 262 333 c 0
 246 313 229 298 211 287 c 1
 225 278 237 265 247 248 c 0
 256 231 261 213 261 196 c 0xe8
 261 187 256 148 246 80 c 0
 236 12 231 -28 231 -40 c 0
 231 -51 235 -58 242 -62 c 0
 249 -66 263 -68 284 -68 c 0
 323 -68 343 -79 343 -101 c 0
 343 -111 339 -123 331 -137 c 1
 314 -138 298 -139 284 -139 c 0
 229 -139 190 -132 168 -118 c 0
 146 -104 135 -82 135 -51 c 0xf0
 135 -33 140 10 150 79 c 0
 160 147 165 184 165 189 c 0
 165 206 157 222 140 236 c 0
 123 249 98 256 63 256 c 1
 72 319 l 1
 108 319 137 327 158 344 c 0
 179 360 191 377 194 395 c 0
 201 429 211 497 224 600 c 0
 229 640 245 669 270 688 c 0
 295 706 339 715 402 715 c 0
 419 715 435 714 451 713 c 1
 452 708 453 701 453 692 c 0
 453 659 432 643 391 643 c 0
 362 643 344 639 335 632 c 0
 326 624 321 609 318 586 c 2xe8
EndSplineSet
Validated: 1
EndChar

StartChar: bar
Encoding: 124 124 93
Width: 509
GlyphClass: 2
Flags: W
HStem: 717 20G<244 269.5>
VStem: 209 92<-245.222 -126.559 483.422 732.836> 216 77<-210.84 698.844>
LayerCount: 2
Fore
SplineSet
216 -9 m 2xa0
 216 564 l 2
 216 642 213 699 208 734 c 1
 219 736 234 737 254 737 c 0
 285 737 300 724 300 699 c 0
 300 696 299 672 296 627 c 0
 294 582 293 549 293 528 c 2
 293 -54 l 2xa0
 293 -134 296 -198 301 -246 c 1
 290 -248 275 -249 255 -249 c 0
 224 -249 209 -236 209 -211 c 0xc0
 209 -208 210 -179 212 -124 c 0
 215 -69 216 -31 216 -9 c 2xa0
EndSplineSet
Validated: 1
EndChar

StartChar: braceright
Encoding: 125 125 94
Width: 438
GlyphClass: 2
Flags: W
HStem: -139 72<-8.25237 102.572> 257 63<298.803 366> 644 71<98 195.667>
VStem: 177 96<343 544.076> 207 96<449.923 639.343>
LayerCount: 2
Fore
SplineSet
120 -10 m 2xf0
 148 185 l 2
 151 204 160 223 176 243 c 0
 192 263 209 278 227 289 c 1
 213 298 201 311 191 328 c 0
 182 345 177 363 177 380 c 0xf0
 177 389 182 428 192 496 c 0
 202 564 207 604 207 616 c 0
 207 627 203 634 196 638 c 0
 189 642 175 644 154 644 c 0
 115 644 95 655 95 677 c 0
 95 687 99 699 107 713 c 1
 124 714 140 715 154 715 c 0
 209 715 248 708 270 694 c 0
 292 680 303 658 303 627 c 0xe8
 303 609 298 566 288 497 c 0
 278 429 273 392 273 387 c 0
 273 370 281 354 298 340 c 0
 315 327 340 320 375 320 c 1
 366 257 l 1
 330 257 301 249 280 232 c 0
 259 216 247 199 244 181 c 0
 237 147 227 79 214 -24 c 0
 209 -64 193 -93 168 -112 c 0
 143 -130 99 -139 36 -139 c 0
 19 -139 3 -138 -13 -137 c 1
 -14 -132 -15 -125 -15 -116 c 0
 -15 -83 6 -67 47 -67 c 0
 76 -67 94 -63 103 -56 c 0
 112 -48 117 -33 120 -10 c 2xf0
EndSplineSet
Validated: 1
EndChar

StartChar: asciitilde
Encoding: 126 126 95
Width: 553
GlyphClass: 2
Flags: W
HStem: 208 90<275.192 459.705> 247 90<95.4034 291.185>
LayerCount: 2
Fore
SplineSet
32 269 m 0x40
 32 314 73 337 155 337 c 0x40
 193 337 236 330 285 317 c 0
 334 304 371 298 396 298 c 0
 427 298 458 313 489 344 c 1
 510 317 521 295 521 277 c 0
 521 253 509 235 485 224 c 0
 461 213 431 208 396 208 c 0x80
 372 208 335 214 286 227 c 0
 236 240 198 247 171 247 c 0
 131 247 96 232 65 201 c 1
 43 230 32 252 32 269 c 0x40
EndSplineSet
Validated: 1
EndChar

StartChar: exclamdown
Encoding: 161 161 96
Width: 314
GlyphClass: 2
Flags: W
HStem: 331 153<146.068 227.644>
VStem: 57 123<-203.193 -59.369> 119 138<360.859 456.395> 124 100<62.0775 264.078>
LayerCount: 2
Fore
SplineSet
197 484 m 0xa0
 214 484 228 478 240 466 c 0
 251 455 257 439 257 420 c 0
 257 397 249 376 233 358 c 0
 217 340 198 331 177 331 c 0
 160 331 146 337 136 350 c 0
 124 362 119 377 119 396 c 0
 119 420 126 441 142 458 c 0
 156 475 175 484 197 484 c 0xa0
57 -166 m 0xc0
 57 -148 63 -118 74 -76 c 0
 83 -43 94 7 106 72 c 0
 118 137 124 184 124 212 c 0
 124 228 123 242 120 255 c 1
 142 264 160 269 174 269 c 0
 207 269 224 255 224 228 c 0x90
 224 223 220 189 211 124 c 0
 190 -25 180 -123 180 -170 c 0
 180 -179 180 -188 181 -197 c 1
 154 -206 131 -210 114 -210 c 0
 76 -210 57 -195 57 -166 c 0xc0
EndSplineSet
Validated: 1
Substitution2: "'c2sc' Capitals to Small Capitals in Latin lookup 0 subtable" exclamdown.sc
EndChar

StartChar: cent
Encoding: 162 162 97
Width: 574
GlyphClass: 2
Flags: W
HStem: 70 72<307 359.422> 509 72<368 405.7>
VStem: 63 118<197.963 397.227> 233 57<-14 69.3027> 322 57<583.465 683.25>
LayerCount: 2
Fore
SplineSet
181 291 m 0
 181 221 205 175 253 153 c 1
 301 499 l 1
 266 485 237 459 214 421 c 0
 192 383 181 340 181 291 c 0
322 681 m 1
 333 683 341 684 346 684 c 0
 368 684 379 677 379 662 c 0
 379 661 375 634 368 581 c 1
 375 581 l 2
 424 581 463 573 490 556 c 0
 517 539 531 520 531 497 c 0
 531 481 524 467 510 454 c 0
 496 441 476 432 450 427 c 1
 424 480 393 507 358 509 c 1
 307 142 l 1
 323 142 341 150 361 164 c 0
 382 180 401 200 419 227 c 1
 440 222 456 214 468 202 c 0
 479 191 485 178 485 163 c 0
 485 138 469 117 437 98 c 0
 405 80 358 71 296 70 c 1
 295 57 l 2
 292 14 290 -10 290 -14 c 2
 269 -16 l 2
 245 -16 233 -9 233 6 c 0
 233 11 236 33 242 73 c 1
 187 82 144 104 112 139 c 0
 79 175 63 221 63 276 c 0
 63 358 87 425 136 478 c 0
 184 531 243 563 312 576 c 1
 312 578 l 1
 313 580 l 1
 317 610 320 644 322 681 c 1
EndSplineSet
Validated: 1
Substitution2: "'onum' Oldstyle Figures lookup 5-1" cent.oldstyle
EndChar

StartChar: sterling
Encoding: 163 163 98
Width: 574
GlyphClass: 2
Flags: W
HStem: -3 65<192.1 390.437> 325 75<348 451.573> 329 53<98.4219 214> 592 83<299.528 397.689>
VStem: 183 103<451.969 576.127> 230 118<222.413 326> 417 72<87.4898 125.922>
LayerCount: 2
Fore
SplineSet
230 307 m 0xd6
 230 311 229 318 228 329 c 1
 211 329 l 2xb6
 184 329 146 328 97 325 c 1xd6
 96 330 96 337 96 345 c 0
 96 368 109 380 134 380 c 0
 135 380 162 381 214 382 c 1
 213 387 209 397 204 412 c 0
 199 426 196 437 193 444 c 0
 191 451 189 461 186 472 c 0
 184 483 183 494 183 503 c 0
 183 544 202 583 240 620 c 0
 278 657 324 675 377 675 c 0
 401 675 422 670 440 659 c 0
 457 648 466 633 466 614 c 0
 466 601 460 589 448 578 c 0
 437 567 423 559 407 554 c 1
 397 579 378 592 349 592 c 0
 329 592 314 587 302 577 c 0
 292 567 286 554 286 538 c 0xba
 286 522 288 506 294 490 c 0
 298 474 306 455 316 434 c 0
 325 412 332 397 335 388 c 1
 387 391 430 395 464 400 c 1
 465 388 466 380 466 375 c 0
 466 356 461 343 452 336 c 0
 443 329 427 325 404 325 c 0
 384 325 365 325 348 326 c 1
 347 279 336 237 316 202 c 0
 294 167 253 126 191 79 c 1
 199 78 216 75 243 70 c 0
 270 65 293 62 314 62 c 0
 339 62 362 68 383 79 c 0
 404 90 416 110 417 137 c 1
 427 137 l 2
 446 137 462 132 472 122 c 0
 484 112 489 100 489 85 c 0
 489 62 476 42 452 24 c 0
 426 6 391 -3 345 -3 c 0
 306 -3 263 2 216 11 c 0
 169 20 134 25 109 25 c 0
 104 25 99 24 95 23 c 0
 82 6 66 -3 49 -3 c 0
 41 -3 34 -0 29 5 c 0
 24 11 21 18 21 26 c 0
 21 39 28 50 40 61 c 0
 54 72 75 80 104 85 c 1
 150 134 182 174 202 206 c 0
 220 237 230 271 230 307 c 0xd6
EndSplineSet
Validated: 1
Substitution2: "'onum' Oldstyle Figures lookup 5-1" sterling.oldstyle
EndChar

StartChar: yen
Encoding: 165 165 99
Width: 574
GlyphClass: 2
Flags: W
HStem: -3 21G<228.5 256.5> 192 53<71.9634 211 319 469.796> 299 54<87.3867 221 364 483.078> 649 20G<148.5 171 479.5 503.5>
VStem: 190 110<3.4683 190.362> 453 88<610.254 667.109>
LayerCount: 2
Fore
SplineSet
248 -3 m 0
 209 -3 190 11 190 40 c 0
 190 45 191 56 194 73 c 0
 196 90 199 111 203 135 c 0
 206 160 209 179 211 192 c 1
 153 192 107 190 72 186 c 1
 70 190 69 196 69 205 c 0
 69 232 83 245 111 245 c 2
 220 245 l 1
 227 299 l 1
 169 299 122 297 87 293 c 1
 85 298 84 304 84 313 c 0
 84 340 100 353 132 353 c 2
 221 353 l 1
 215 367 206 389 194 420 c 0
 182 451 173 473 168 486 c 0
 162 499 154 516 144 536 c 0
 135 556 125 572 116 585 c 0
 107 598 96 610 85 621 c 1
 109 653 135 669 162 669 c 0
 180 669 195 656 207 631 c 0
 242 559 274 479 304 390 c 1
 335 433 366 484 399 544 c 0
 431 604 449 646 453 669 c 1
 464 672 474 673 485 673 c 0
 522 673 541 660 541 635 c 0
 541 608 482 514 364 353 c 1
 403 353 444 355 485 360 c 1
 486 355 487 348 487 340 c 0
 487 313 471 299 439 299 c 2
 326 299 l 1
 319 245 l 1
 382 245 433 247 473 251 c 0
 474 248 474 243 474 236 c 0
 474 207 458 192 427 192 c 2
 311 192 l 1
 304 135 300 92 300 65 c 0
 300 44 301 26 304 11 c 1
 283 2 265 -3 248 -3 c 0
EndSplineSet
Validated: 1
Substitution2: "'onum' Oldstyle Figures lookup 5-1" yen.oldstyle
EndChar

StartChar: brokenbar
Encoding: 166 166 100
Width: 574
GlyphClass: 2
Flags: W
HStem: 717 20G<276 301.5>
VStem: 241 92<-245.222 -132.373 -65.631 190.836 296.778 430.975 568.595 732.836> 248 77<-210.842 156.844 331.164 698.844>
LayerCount: 2
Fore
SplineSet
248 565 m 0xa0
 248 642 245 699 240 734 c 1
 251 736 266 737 286 737 c 0
 317 737 332 724 332 699 c 0
 332 696 331 672 328 627 c 0
 326 582 325 549 325 528 c 2
 325 488 l 2xa0
 325 408 328 344 333 296 c 1
 322 294 307 293 287 293 c 0
 256 293 241 306 241 331 c 0xc0
 241 334 242 369 244 434 c 0
 247 499 248 543 248 565 c 0xa0
248 -18 m 2
 248 21 l 2
 248 100 245 157 240 192 c 1
 251 194 266 195 286 195 c 0
 317 195 332 182 332 157 c 0
 332 154 331 130 328 86 c 0
 326 41 325 8 325 -14 c 2
 325 -54 l 2xa0
 325 -134 328 -198 333 -246 c 1
 322 -248 307 -249 287 -249 c 0
 256 -249 241 -236 241 -211 c 0xc0
 241 -208 242 -181 244 -130 c 0
 247 -79 248 -42 248 -18 c 2
EndSplineSet
Validated: 1
EndChar

StartChar: section
Encoding: 167 167 101
Width: 438
GlyphClass: 2
Flags: W
HStem: -78 69<126.637 251.954> 604 69<223.65 332.725>
VStem: 70 90<287.548 383.845> 116 88<470.686 584.188> 275 89<13.9791 131.408> 319 90<210.839 309.036>
LayerCount: 2
Fore
SplineSet
309 210 m 1xe4
 316 223 319 240 319 259 c 0
 319 280 311 297 294 312 c 0
 277 326 254 340 227 352 c 0
 199 366 180 376 169 385 c 1
 163 373 160 358 160 339 c 0
 160 318 167 301 182 287 c 0
 196 274 218 260 246 245 c 0
 276 231 296 219 309 210 c 1xe4
70 312 m 0
 70 361 91 400 133 428 c 1
 122 449 116 474 116 504 c 0
 116 556 135 597 172 627 c 0
 209 658 253 673 305 673 c 0
 336 673 366 666 395 652 c 0
 424 639 438 620 438 595 c 0
 438 580 433 567 422 557 c 0
 411 548 391 540 361 535 c 1
 357 556 347 572 330 585 c 0
 313 598 295 604 276 604 c 0
 255 604 238 597 224 584 c 0
 211 571 204 551 204 526 c 0
 204 505 211 486 225 471 c 0
 239 456 256 443 276 432 c 0
 296 421 316 410 336 399 c 0
 357 388 374 372 388 353 c 0
 402 334 409 312 409 285 c 0xd4
 409 235 388 196 346 168 c 1
 358 148 364 126 364 101 c 0
 364 43 345 -1 306 -32 c 0
 268 -63 222 -78 169 -78 c 0
 129 -78 94 -70 65 -55 c 0
 35 -40 20 -21 20 2 c 0
 20 27 45 47 96 60 c 1
 100 39 111 22 128 9 c 0
 145 -3 167 -9 196 -9 c 0
 219 -9 238 -2 253 13 c 0
 268 28 275 49 275 77 c 0xc8
 275 98 268 116 254 131 c 0
 240 146 223 159 203 169 c 0
 182 179 162 189 142 200 c 0
 122 211 105 225 91 244 c 0
 77 263 70 285 70 312 c 0
EndSplineSet
Validated: 1
EndChar

StartChar: dieresis
Encoding: 168 168 102
Width: 296
GlyphClass: 2
Flags: W
HStem: 531 139<66.4121 147.971 239.539 321.973>
VStem: 43 129<555.123 646.394> 216 129<554.517 646.394>
LayerCount: 2
Fore
SplineSet
272 531 m 0
 255 531 242 537 232 548 c 0
 221 559 216 573 216 592 c 0
 216 613 223 632 238 647 c 0
 253 662 270 670 289 670 c 0
 304 670 318 664 328 652 c 0
 340 639 345 624 345 606 c 0
 345 585 337 568 322 553 c 0
 306 538 289 531 272 531 c 0
99 531 m 0
 82 531 69 537 58 548 c 0
 48 559 43 573 43 592 c 0
 43 613 50 632 65 647 c 0
 80 662 97 670 116 670 c 0
 131 670 144 664 156 652 c 0
 166 639 172 624 172 606 c 0
 172 585 164 568 148 553 c 0
 133 538 116 531 99 531 c 0
EndSplineSet
Validated: 1
EndChar

StartChar: copyright
Encoding: 169 169 103
Width: 849
GlyphClass: 2
Flags: W
HStem: -34 57<361.373 576.979> 96 73<427.443 555.244> 478 73<418.054 524.025> 617 57<361.373 577.366>
VStem: 123 72<196.805 443.398> 260 115<225.345 427.596> 743 72<197.174 443.217>
LayerCount: 2
Fore
SplineSet
743 320 m 0
 743 408 716 480 664 535 c 0
 610 590 546 617 470 617 c 0
 393 617 328 590 274 535 c 0
 222 480 195 409 195 320 c 0
 195 231 222 160 274 105 c 0
 328 50 393 23 470 23 c 0
 546 23 610 50 664 105 c 0
 716 160 743 231 743 320 c 0
815 320 m 0
 815 220 781 136 714 68 c 0
 647 0 566 -34 470 -34 c 0
 372 -34 290 -0 223 68 c 0
 156 135 123 219 123 320 c 0
 123 421 156 506 223 573 c 0
 290 640 372 674 470 674 c 0
 567 674 648 640 715 573 c 0
 782 506 815 421 815 320 c 0
620 161 m 0
 620 144 606 129 579 116 c 0
 552 103 519 96 482 96 c 0
 455 96 429 100 404 108 c 0
 379 115 356 127 333 144 c 0
 311 160 293 183 280 214 c 0
 267 244 260 279 260 319 c 0
 260 395 282 453 326 492 c 0
 370 531 420 551 476 551 c 0
 496 551 516 548 537 542 c 0
 558 537 578 527 595 513 c 0
 612 500 621 483 621 464 c 0
 621 438 597 422 548 415 c 1
 543 436 532 451 517 462 c 0
 502 473 486 478 469 478 c 0
 442 478 420 464 402 437 c 0
 384 410 375 374 375 330 c 0
 375 274 386 233 409 208 c 0
 432 182 460 169 491 169 c 0
 527 169 556 184 579 215 c 1
 606 198 620 180 620 161 c 0
EndSplineSet
Validated: 1
EndChar

StartChar: ordfeminine
Encoding: 170 170 104
Width: 340
GlyphClass: 2
Flags: W
HStem: 250 51<25.3633 258.529> 366 48<99.5 192.179> 594 49<136.889 205.574>
VStem: 48 77<414.821 476.399> 211 75<527.732 588.241>
LayerCount: 2
Fore
SplineSet
188 643 m 0
 221 643 245 637 262 626 c 0
 278 615 286 597 286 570 c 0
 286 561 283 537 278 499 c 0
 272 462 269 433 269 412 c 0
 269 400 270 389 272 378 c 1
 259 373 245 370 230 370 c 0
 219 370 212 371 207 374 c 0
 202 377 199 383 198 392 c 1
 177 375 153 366 125 366 c 0
 74 366 48 388 48 433 c 0
 48 477 71 506 117 519 c 0
 138 524 169 527 209 527 c 1
 210 543 211 553 211 556 c 0
 211 570 208 580 203 585 c 0
 198 591 188 594 174 594 c 0
 166 594 157 590 148 583 c 0
 138 576 132 568 129 557 c 1
 93 560 75 569 75 586 c 0
 75 605 88 619 112 628 c 0
 138 638 163 643 188 643 c 0
270 311 m 1
 273 304 274 296 274 289 c 0
 274 276 269 265 259 257 c 0
 249 249 236 245 219 245 c 0
 211 245 197 246 176 247 c 0
 155 249 139 250 128 250 c 2
 119 250 l 2
 90 250 58 246 22 239 c 1
 21 243 21 249 21 256 c 0
 21 289 39 305 75 305 c 0
 80 305 93 304 114 303 c 0
 135 302 151 301 164 301 c 2
 181 301 l 2
 213 301 243 304 270 311 c 1
193 432 m 1
 201 493 l 1
 185 490 173 488 165 485 c 0
 156 483 148 478 139 471 c 0
 130 464 125 455 125 444 c 0
 125 424 134 414 151 414 c 0
 165 414 179 420 193 432 c 1
EndSplineSet
Validated: 1
EndChar

StartChar: guillemotleft
Encoding: 171 171 105
Width: 528
GlyphClass: 2
Flags: W
LayerCount: 2
Fore
SplineSet
513 400 m 0
 513 390 499 368 472 333 c 0
 444 298 415 266 386 235 c 1
 441 151 468 99 468 78 c 0
 468 65 455 50 428 35 c 1
 378 82 328 149 277 236 c 1
 360 330 428 397 481 436 c 1
 502 424 513 412 513 400 c 0
293 400 m 0
 293 390 279 368 252 333 c 0
 224 298 195 266 166 235 c 1
 221 151 248 99 248 78 c 0
 248 65 235 50 208 35 c 1
 158 82 108 149 57 236 c 1
 140 330 208 397 261 436 c 1
 282 424 293 412 293 400 c 0
EndSplineSet
Validated: 1
EndChar

StartChar: logicalnot
Encoding: 172 172 106
Width: 574
GlyphClass: 2
Flags: W
HStem: 50 282<394.699 474.619> 266 66<81.8267 394>
VStem: 394 93<65.7036 266>
LayerCount: 2
Fore
SplineSet
485 332 m 1x60
 487 108 l 2
 487 87 483 72 475 63 c 0
 467 54 451 50 428 50 c 0xa0
 412 50 395 55 378 64 c 1
 389 100 394 158 394 239 c 2
 394 266 l 1
 189 266 l 2
 156 266 119 259 80 245 c 1
 72 264 68 279 68 288 c 0
 68 317 87 332 126 332 c 2
 485 332 l 1x60
EndSplineSet
Validated: 1
EndChar

StartChar: registered
Encoding: 174 174 107
Width: 578
GlyphClass: 2
Flags: W
HStem: 207 50<224.648 392.023> 529 37<286.12 329.577> 623 50<224.648 392.023>
VStem: 80 59<343.855 535.236> 212 73<328.801 419 451 528.071> 344 72<453.802 519.874> 478 59<343.855 536.145>
LayerCount: 2
Fore
SplineSet
478 440 m 0
 478 495 462 539 429 573 c 0
 396 606 356 623 309 623 c 0
 261 623 221 606 188 573 c 0
 155 539 139 495 139 440 c 0
 139 385 155 341 188 307 c 0
 221 274 261 257 309 257 c 0
 356 257 396 274 429 307 c 0
 462 341 478 385 478 440 c 0
537 440 m 0
 537 374 515 319 470 274 c 0
 426 229 372 207 309 207 c 0
 244 207 190 229 146 274 c 0
 102 319 80 374 80 440 c 0
 80 507 102 562 146 606 c 0
 190 651 244 673 309 673 c 0
 372 673 426 651 470 606 c 0
 515 561 537 506 537 440 c 0
305 451 m 0
 331 451 344 463 344 488 c 0
 344 500 339 510 330 518 c 0
 321 525 311 529 298 529 c 2
 285 529 l 1
 285 452 l 2
 288 451 294 451 305 451 c 0
420 356 m 1
 423 351 424 345 424 340 c 0
 424 333 421 327 414 322 c 0
 407 318 399 316 390 316 c 0
 373 316 360 322 350 334 c 0
 321 364 300 392 285 419 c 1
 285 396 l 2
 285 368 288 345 294 328 c 1
 281 321 269 318 257 318 c 0
 226 318 210 328 210 348 c 0
 210 354 210 364 211 378 c 0
 212 392 212 402 212 407 c 2
 212 474 l 2
 212 509 210 537 207 560 c 1
 257 564 289 566 304 566 c 0
 379 566 416 540 416 488 c 0
 416 454 396 431 356 418 c 1
 361 409 376 389 402 360 c 0
 405 357 411 356 420 356 c 1
EndSplineSet
Validated: 1
EndChar

StartChar: macron
Encoding: 175 175 108
Width: 389
GlyphClass: 2
Flags: W
HStem: 557 66<99.9609 385.666>
VStem: 93 303
LayerCount: 2
Fore
SplineSet
396 631 m 1
 396 607 393 588 386 573 c 0
 379 558 364 551 342 551 c 0
 332 551 315 552 290 554 c 0
 265 556 245 557 230 557 c 2
 210 557 l 2
 169 557 130 554 93 549 c 1
 92 553 92 558 92 564 c 0
 92 607 110 629 145 629 c 0
 148 629 163 628 190 626 c 0
 216 624 234 623 244 623 c 0
 299 623 350 626 396 631 c 1
EndSplineSet
Validated: 1
EndChar

StartChar: degree
Encoding: 176 176 109
Width: 359
GlyphClass: 2
Flags: W
HStem: 387 64<139.411 239.704> 647 64<160.443 259.667>
VStem: 47 76<469.705 606.971> 276 77<490.404 628.568>
LayerCount: 2
Fore
SplineSet
215 647 m 0
 187 647 165 635 148 612 c 0
 131 589 123 560 123 527 c 0
 123 504 128 486 139 472 c 0
 150 458 165 451 186 451 c 0
 214 451 236 463 252 487 c 0
 268 511 276 539 276 572 c 0
 276 595 271 613 260 626 c 0
 250 640 235 647 215 647 c 0
47 520 m 0
 47 571 63 616 96 654 c 0
 129 692 172 711 224 711 c 0
 263 711 294 699 317 674 c 0
 341 649 353 618 353 579 c 0
 353 528 336 483 303 444 c 0
 270 406 228 387 177 387 c 0
 138 387 106 399 82 424 c 0
 59 449 47 481 47 520 c 0
EndSplineSet
Validated: 1
EndChar

StartChar: plusminus
Encoding: 177 177 110
Width: 574
GlyphClass: 2
Flags: W
HStem: 6 88<78.4248 280.637 285.97 472.575> 14 71<118.2 435.382> 250 88<78.4248 238.467 333.949 492.575> 466 20G<272 289>
VStem: 235 104<131.331 254.891 331.759 476.481> 235 95<131.331 257 329 442.386>
LayerCount: 2
Fore
SplineSet
488 55 m 0xb0
 488 41 483 29 473 20 c 0
 464 11 451 6 436 6 c 0xb0
 423 6 398 7 361 10 c 0
 324 13 298 14 284 14 c 0
 214 14 143 11 71 4 c 1
 68 20 66 33 66 43 c 0
 66 56 70 67 78 77 c 0
 87 87 100 92 118 92 c 0
 122 92 143 91 181 88 c 0
 219 86 253 85 282 85 c 0x70
 367 85 433 88 482 94 c 1
 486 82 488 69 488 55 c 0xb0
281 486 m 0
 297 486 310 482 321 474 c 0
 332 466 338 456 338 443 c 0
 338 430 337 411 334 386 c 0
 332 361 331 341 331 328 c 1
 394 328 451 331 502 338 c 1
 505 327 507 314 507 299 c 0
 507 286 502 274 493 264 c 0
 484 255 471 250 456 250 c 0
 443 250 421 251 391 253 c 0
 362 256 341 257 330 257 c 1x34
 330 212 333 168 339 126 c 1
 320 122 304 120 292 120 c 0
 277 120 263 124 252 131 c 0
 241 138 235 149 235 163 c 0x38
 235 170 236 181 238 198 c 0
 240 215 241 235 241 258 c 1
 187 257 130 254 70 249 c 1
 67 262 66 275 66 287 c 0
 66 300 70 311 78 321 c 0
 87 331 100 336 118 336 c 0
 132 336 151 335 175 332 c 0
 199 330 221 329 242 329 c 1
 242 388 239 438 234 479 c 1
 247 484 263 486 281 486 c 0
EndSplineSet
Validated: 1
EndChar

StartChar: two.superior
Encoding: 178 178 111
Width: 391
GlyphClass: 2
Flags: W
HStem: 436 58<97.4263 293.142> 828 56<138.057 241.559>
VStem: 256 80<701.723 812.964>
LayerCount: 2
Fore
SplineSet
103 774 m 1
 82 777 73 787 73 804 c 0
 73 823 88 841 120 858 c 0
 152 875 185 884 219 884 c 0
 251 884 279 876 302 858 c 0
 325 840 336 816 336 784 c 0
 336 772 333 759 330 746 c 0
 327 734 323 722 319 712 c 0
 315 702 308 690 298 676 c 0
 288 663 280 652 274 644 c 0
 268 636 257 626 241 612 c 0
 226 598 215 589 209 582 c 0
 203 577 190 566 171 552 c 0
 152 537 140 527 135 523 c 0
 130 519 117 510 97 495 c 1
 106 494 121 494 143 494 c 0
 188 494 222 495 243 497 c 0
 264 499 286 504 309 512 c 1
 313 498 314 486 314 474 c 0
 314 459 308 450 294 445 c 0
 276 438 238 435 183 435 c 0
 165 435 140 435 108 436 c 0
 97 436 88 436 79 436 c 0
 62 436 50 436 41 436 c 0
 23 436 14 445 14 464 c 0
 14 469 15 475 16 482 c 1
 35 499 58 520 87 544 c 0
 116 568 138 587 155 602 c 0
 171 617 188 633 205 652 c 0
 223 671 236 689 244 707 c 0
 252 725 256 744 256 764 c 0
 256 784 251 799 240 811 c 0
 229 823 216 828 199 828 c 0
 183 828 166 823 149 813 c 0
 132 803 116 790 103 774 c 1
EndSplineSet
Validated: 1
EndChar

StartChar: three.superior
Encoding: 179 179 112
Width: 394
GlyphClass: 2
Flags: W
HStem: 429 56<51.2578 193.773> 645 46<113.109 202.244> 828 56<137.336 233.514>
VStem: 228 84<518.691 621.952> 246 83<736.764 813.247>
LayerCount: 2
Fore
SplineSet
225 679 m 1xe8
 254 669 276 655 290 637 c 0
 304 619 312 600 312 579 c 0
 312 541 294 507 258 476 c 0
 222 445 178 429 125 429 c 0
 93 429 68 434 51 442 c 0
 35 450 27 459 27 470 c 0
 27 481 30 489 37 497 c 0
 44 504 53 509 63 510 c 1
 74 493 95 485 126 485 c 0
 157 485 182 494 200 512 c 0
 219 530 228 551 228 574 c 0xf0
 228 595 220 611 203 625 c 0
 187 638 163 645 130 645 c 0
 119 645 113 654 113 670 c 0
 113 676 113 683 115 691 c 1
 157 691 190 700 212 717 c 0
 234 734 246 754 246 777 c 0
 246 791 241 805 231 814 c 0
 222 823 209 828 193 828 c 0
 179 828 164 823 150 815 c 0
 136 807 122 795 112 779 c 1
 102 779 94 782 89 788 c 0
 84 794 81 801 81 809 c 0
 81 826 95 842 124 859 c 0
 153 876 183 884 216 884 c 0
 251 884 279 876 299 859 c 0
 319 842 329 821 329 796 c 0
 329 749 294 710 225 679 c 1xe8
EndSplineSet
Validated: 1
EndChar

StartChar: acute
Encoding: 180 180 113
Width: 226
GlyphClass: 2
Flags: W
HStem: 525 184
VStem: -0 226
LayerCount: 2
Fore
SplineSet
195 611 m 0
 178 602 148 587 104 567 c 0
 61 547 34 533 24 525 c 1
 8 541 -0 555 -0 568 c 0
 -0 581 8 592 23 600 c 0
 42 609 70 625 108 648 c 0
 145 671 174 692 193 709 c 1
 215 698 226 681 226 658 c 0
 226 639 216 623 195 611 c 0
EndSplineSet
Validated: 1
EndChar

StartChar: mu
Encoding: 181 181 114
Width: 503
GlyphClass: 2
Flags: W
HStem: -253 21G<48.5 81> -10 77<168.23 237.318> 464 20G<129.5 149.5>
VStem: 9 107<-215.652 1.92635> 90 113<261.705 445.263> 301 140<12.6895 77.875> 350 111<309.253 475.99>
LayerCount: 2
Fore
SplineSet
203 422 m 0xe8
 203 394 196 342 182 266 c 0
 168 189 161 145 161 132 c 0
 161 89 174 67 201 67 c 0
 221 67 242 81 263 108 c 0
 285 136 304 172 320 215 c 0
 322 232 326 259 331 297 c 0
 336 335 340 367 343 393 c 0
 346 419 349 446 350 474 c 1
 367 479 385 481 406 481 c 0
 443 481 461 469 461 446 c 0xea
 461 442 460 436 459 427 c 0
 458 418 455 405 452 387 c 0
 449 369 446 353 444 338 c 0
 444 337 441 318 434 280 c 0
 428 244 423 210 419 180 c 0
 415 149 413 126 413 111 c 0
 413 83 422 65 441 57 c 1
 438 36 429 20 414 8 c 0
 399 -4 382 -10 363 -10 c 0
 346 -10 331 -5 319 6 c 0
 307 17 301 32 301 52 c 0
 301 64 302 76 304 88 c 1
 261 23 220 -10 181 -10 c 0
 165 -10 150 -4 135 9 c 1
 122 -23 116 -62 116 -109 c 0
 116 -156 125 -185 143 -198 c 1
 119 -235 94 -253 68 -253 c 0
 29 -253 9 -223 9 -163 c 0xf4
 9 -135 26 -23 59 174 c 0
 61 187 65 211 71 244 c 0
 77 278 82 306 85 327 c 0
 88 348 90 364 90 374 c 0
 90 391 81 405 63 417 c 1
 64 433 72 448 86 462 c 0
 100 477 118 484 141 484 c 0
 158 484 173 479 185 469 c 0
 197 459 203 443 203 422 c 0xe8
EndSplineSet
Validated: 1
EndChar

StartChar: paragraph
Encoding: 182 182 115
Width: 494
GlyphClass: 2
Flags: W
HStem: -119 80<144.157 237.764> 499 74<296.304 356 432.834 511.528>
VStem: 57 195<281.073 380.932>
LayerCount: 2
Fore
SplineSet
252 234 m 0
 251 223 235 218 205 218 c 0
 160 218 125 231 98 257 c 0
 71 283 57 318 57 362 c 0
 57 424 78 475 121 515 c 0
 164 555 214 575 271 575 c 0
 275 575 298 574 340 573 c 0
 382 572 413 571 432 571 c 0
 471 571 502 571 523 572 c 1
 524 560 525 552 525 549 c 0
 525 532 520 519 512 512 c 0
 502 505 487 500 465 499 c 2
 437 498 l 1
 407 355 385 227 372 115 c 0
 354 -41 294 -119 193 -119 c 0
 174 -119 158 -115 145 -107 c 0
 132 -99 126 -88 126 -75 c 0
 126 -60 131 -44 142 -27 c 1
 157 -35 171 -39 185 -39 c 0
 198 -39 209 -37 219 -32 c 0
 229 -27 237 -20 244 -10 c 0
 251 -1 256 9 261 19 c 0
 266 28 270 41 273 56 c 0
 276 71 278 84 280 95 c 0
 281 106 283 119 285 136 c 0
 286 152 288 164 289 172 c 0
 292 195 303 249 322 334 c 0
 340 419 351 474 356 499 c 1
 321 499 303 499 302 500 c 1
 277 413 261 325 252 234 c 0
EndSplineSet
Validated: 1
EndChar

StartChar: periodcentered
Encoding: 183 183 116
Width: 195
GlyphClass: 2
Flags: W
HStem: 184 153<62.3564 143.932>
VStem: 33 138<211.605 307.141>
LayerCount: 2
Fore
SplineSet
93 184 m 0
 76 184 62 190 50 202 c 0
 39 213 33 229 33 248 c 0
 33 271 41 292 57 310 c 0
 73 328 92 337 113 337 c 0
 130 337 144 331 154 318 c 0
 166 306 171 291 171 272 c 0
 171 248 164 227 148 210 c 0
 134 193 115 184 93 184 c 0
EndSplineSet
Validated: 1
EndChar

StartChar: cedilla
Encoding: 184 184 117
Width: 372
GlyphClass: 2
Flags: W
HStem: -244 60<64.7709 149.005>
VStem: 101 73<-73.5 -2.55353> 157 86<-176.985 -113.886>
LayerCount: 2
Fore
SplineSet
147 32 m 1xc0
 202 24 l 2
 201 21 197 14 192 4 c 0
 187 -5 182 -14 179 -21 c 0
 176 -28 174 -35 174 -40 c 0xc0
 174 -43 180 -48 191 -56 c 0
 202 -62 214 -72 226 -85 c 0
 237 -98 243 -113 243 -130 c 0
 243 -162 227 -189 196 -211 c 0
 164 -233 130 -244 94 -244 c 0
 63 -244 48 -235 48 -217 c 0
 48 -204 58 -188 79 -170 c 1
 87 -179 99 -184 116 -184 c 0
 126 -184 135 -181 144 -175 c 0
 153 -169 157 -160 157 -148 c 0xa0
 157 -137 148 -124 129 -108 c 0
 110 -94 101 -80 101 -67 c 0
 101 -40 116 -7 147 32 c 1xc0
EndSplineSet
Validated: 1
EndChar

StartChar: one.superior
Encoding: 185 185 118
Width: 409
GlyphClass: 2
Flags: W
HStem: 436 54<70.9688 166.316 241 302.763> 812 60<132.237 211.225>
VStem: 68 243<446.377 485.801>
LayerCount: 2
Fore
SplineSet
241 488 m 1
 269 488 290 489 304 491 c 1
 308 485 311 480 311 476 c 0
 311 465 308 454 303 446 c 0
 298 439 289 435 277 435 c 0
 273 435 256 435 227 436 c 0
 198 437 173 437 151 437 c 0
 113 437 86 437 70 436 c 1
 69 443 68 448 68 451 c 0
 68 477 84 490 114 490 c 2
 163 490 l 1
 164 493 172 553 189 669 c 0
 203 753 211 804 213 821 c 1
 175 819 145 815 125 812 c 1
 125 832 127 847 132 856 c 0
 137 865 146 870 160 872 c 0
 213 880 248 884 263 884 c 0
 281 884 291 876 291 861 c 0
 291 857 288 844 285 821 c 0
 282 801 278 775 273 742 c 0
 267 709 262 678 258 648 c 0
 247 566 242 513 241 488 c 1
EndSplineSet
Validated: 1
EndChar

StartChar: ordmasculine
Encoding: 186 186 119
Width: 375
GlyphClass: 2
Flags: W
HStem: 250 55<27.0362 258.529> 366 50<128.68 212.133> 593 50<143.59 225.101>
VStem: 44 75<423.32 565.024> 238 74<442.843 577.439>
LayerCount: 2
Fore
SplineSet
270 311 m 1
 273 304 274 296 274 289 c 0
 274 276 269 265 259 257 c 0
 249 249 236 245 219 245 c 0
 211 245 197 246 176 248 c 0
 155 249 139 250 128 250 c 2
 119 250 l 2
 90 250 58 246 22 239 c 1
 21 243 21 249 21 256 c 0
 21 289 39 305 75 305 c 0
 80 305 93 304 114 303 c 0
 135 302 151 301 164 301 c 2
 181 301 l 2
 213 301 243 304 270 311 c 1
165 416 m 0
 189 416 207 426 219 447 c 0
 232 468 238 492 238 520 c 0
 238 542 234 560 225 573 c 0
 216 586 204 593 189 593 c 0
 166 593 149 583 137 563 c 0
 125 543 119 518 119 489 c 0
 119 440 134 416 165 416 c 0
159 366 m 0
 123 366 95 376 74 397 c 0
 54 418 44 446 44 481 c 0
 44 526 58 565 85 596 c 0
 113 627 150 643 195 643 c 0
 232 643 260 633 281 612 c 0
 302 592 312 564 312 529 c 0
 312 482 298 443 270 412 c 0
 243 381 206 366 159 366 c 0
EndSplineSet
Validated: 1
EndChar

StartChar: guillemotright
Encoding: 187 187 120
Width: 528
GlyphClass: 2
Flags: W
LayerCount: 2
Fore
SplineSet
15 72 m 0
 15 82 29 104 56 139 c 0
 84 174 113 206 142 237 c 1
 87 321 60 373 60 394 c 0
 60 407 73 422 100 437 c 1
 150 390 200 323 251 236 c 1
 168 142 100 75 47 36 c 1
 26 48 15 60 15 72 c 0
235 72 m 0
 235 82 249 104 276 139 c 0
 304 174 333 206 362 237 c 1
 307 321 280 373 280 394 c 0
 280 407 293 422 320 437 c 1
 370 390 420 323 471 236 c 1
 388 141 320 75 267 36 c 1
 246 48 235 60 235 72 c 0
EndSplineSet
Validated: 1
EndChar

StartChar: onequarter
Encoding: 188 188 121
Width: 952
GlyphClass: 2
Flags: W
HStem: -10 21G<747 769> 126 65<617.654 731> 127 72<820 866.386> 216 64<71.243 158.221 245 310.989> 654 20G<239.5 255> 720 20G<660.5 695.5>
VStem: 715 90<-6.375 124.471>
LayerCount: 2
Fore
SplineSet
316 261 m 0x9e
 316 231 299 216 264 216 c 2
 115 216 l 2
 102 216 87 215 70 213 c 1
 67 222 66 231 66 238 c 0
 66 266 88 280 133 280 c 2
 156 280 l 1
 180 447 194 554 199 602 c 1
 175 598 148 591 118 580 c 1
 113 590 110 600 110 610 c 0
 110 635 126 652 159 660 c 0
 200 669 230 674 249 674 c 0
 261 674 272 671 281 666 c 0
 290 661 295 652 295 640 c 0
 295 633 291 611 284 574 c 0
 277 537 270 491 261 434 c 0
 252 378 247 325 245 276 c 1
 252 276 274 278 313 282 c 1
 315 275 316 268 316 261 c 0x9e
204 -53 m 2
 553 528 l 2
 606 617 647 687 674 740 c 1
 717 740 738 730 738 711 c 0
 738 704 735 695 729 685 c 2
 380 105 l 2
 319 4 279 -66 258 -107 c 1
 217 -106 196 -95 196 -76 c 0
 196 -69 199 -61 204 -53 c 2
763 349 m 1
 759 345 749 336 734 321 c 0
 719 306 706 294 695 284 c 0
 685 273 672 259 657 242 c 0
 642 224 628 207 617 191 c 1
 742 191 l 1xde
 745 216 749 247 754 282 c 0
 759 317 762 340 763 349 c 1
860 455 m 0
 860 453 855 424 845 368 c 0
 835 311 827 255 820 199 c 1
 834 200 854 204 880 213 c 1
 884 200 886 189 886 178 c 0
 886 158 880 145 867 138 c 0
 854 131 835 128 810 127 c 1xbe
 807 97 805 73 805 56 c 0
 805 35 806 18 809 4 c 1
 790 -5 775 -10 763 -10 c 0
 731 -10 715 0 715 21 c 0
 715 34 720 69 731 126 c 1
 703 126 l 2
 652 126 606 128 566 133 c 0
 547 135 538 145 538 164 c 0
 538 173 540 185 544 198 c 1
 571 237 607 282 653 332 c 0
 700 381 738 419 769 444 c 0
 780 453 798 457 823 457 c 0
 832 457 844 456 860 455 c 0
EndSplineSet
Validated: 1
EndChar

StartChar: onehalf
Encoding: 189 189 122
Width: 967
GlyphClass: 2
Flags: W
HStem: -1 68<657 871.856> 216 64<71.243 158.221 245 310.989> 388 64<685.951 795.744> 654 20G<239.5 255> 720 20G<660.5 695.5>
VStem: 813 92<266.896 372.208>
LayerCount: 2
Fore
SplineSet
647 324 m 1
 620 326 606 336 606 353 c 0
 606 374 624 395 661 418 c 0
 697 441 735 452 774 452 c 0
 814 452 846 442 870 423 c 0
 893 404 905 378 905 346 c 0
 905 303 884 256 841 205 c 0
 798 154 737 108 657 67 c 1
 708 67 l 2
 792 67 851 75 885 91 c 1
 895 76 900 62 900 48 c 0
 900 29 891 16 873 11 c 0
 849 3 799 -1 724 -1 c 0
 670 -1 625 -0 589 1 c 0
 564 1 551 13 551 38 c 0
 551 49 553 60 556 72 c 1
 637 114 700 159 745 206 c 0
 790 253 813 294 813 331 c 0
 813 348 806 362 793 372 c 0
 780 383 762 388 739 388 c 0
 724 388 708 382 690 370 c 0
 673 357 658 342 647 324 c 1
316 261 m 0
 316 231 299 216 264 216 c 2
 115 216 l 2
 102 216 87 215 70 213 c 1
 67 222 66 231 66 238 c 0
 66 266 88 280 133 280 c 2
 156 280 l 1
 180 447 194 554 199 602 c 1
 175 598 148 591 118 580 c 1
 113 590 110 600 110 610 c 0
 110 635 126 652 159 660 c 0
 200 669 230 674 249 674 c 0
 261 674 272 671 281 666 c 0
 290 661 295 652 295 640 c 0
 295 633 292 611 285 574 c 0
 278 537 270 491 261 434 c 0
 252 378 247 325 245 276 c 1
 252 276 274 278 313 282 c 1
 315 275 316 268 316 261 c 0
204 -53 m 2
 553 528 l 2
 606 617 647 687 674 740 c 1
 717 740 738 730 738 711 c 0
 738 704 735 695 729 685 c 2
 380 105 l 2
 319 4 279 -66 258 -107 c 1
 217 -106 196 -95 196 -76 c 0
 196 -69 199 -61 204 -53 c 2
EndSplineSet
Validated: 1
EndChar

StartChar: threequarters
Encoding: 190 190 123
Width: 968
GlyphClass: 2
Flags: W
HStem: -10 21G<763 785> 126 65<633.654 747> 127 72<836 882.386> 204 64<132.316 250.931> 423 52<161 267.283> 610 64<199.971 295.758> 720 20G<676.5 711.5>
VStem: 280 91<297.02 410.989> 301 93<504.79 604.919> 731 90<-6.375 124.471>
LayerCount: 2
Fore
SplineSet
161 423 m 1x9f40
 161 475 l 1
 182 475 l 2
 261 475 301 505 301 565 c 0
 301 595 285 610 252 610 c 0
 227 610 198 592 164 556 c 1
 130 565 113 577 113 592 c 0
 113 614 130 633 165 649 c 0
 199 666 232 674 265 674 c 0
 351 674 394 643 394 580 c 0x9ec0
 394 521 365 479 307 456 c 1
 350 437 371 406 371 362 c 0
 371 320 354 283 321 252 c 0
 288 220 241 204 181 204 c 0
 147 204 118 210 94 220 c 0
 69 232 57 247 57 266 c 0
 57 284 75 299 112 312 c 1
 133 283 160 268 191 268 c 0
 218 268 239 276 256 294 c 0
 272 310 280 333 280 362 c 0
 280 404 254 425 203 425 c 0
 193 425 179 424 161 423 c 1x9f40
220 -53 m 2
 569 528 l 2
 622 617 663 687 690 740 c 1
 733 740 754 730 754 711 c 0
 754 704 751 695 745 685 c 2
 396 105 l 2
 335 4 295 -66 274 -107 c 1
 233 -106 212 -95 212 -76 c 0
 212 -69 215 -61 220 -53 c 2
779 349 m 1
 775 345 765 336 750 321 c 0
 735 306 722 294 712 284 c 0
 701 273 688 259 673 242 c 0
 658 224 644 207 633 191 c 1
 758 191 l 1xde40
 761 216 765 247 770 282 c 0
 775 317 778 340 779 349 c 1
876 455 m 0
 876 453 871 424 861 368 c 0
 851 311 843 255 836 199 c 1
 850 200 870 204 896 213 c 1
 900 200 902 189 902 178 c 0
 902 158 896 145 883 138 c 0
 870 131 851 128 826 127 c 1xbe40
 823 97 821 73 821 56 c 0
 821 35 822 18 825 4 c 1
 806 -5 791 -10 779 -10 c 0
 747 -10 731 0 731 21 c 0
 731 34 736 69 747 126 c 1
 719 126 l 2
 668 126 622 128 582 133 c 0
 563 135 554 145 554 164 c 0
 554 173 556 185 560 198 c 1
 587 237 623 282 670 332 c 0
 716 381 754 419 785 444 c 0
 796 453 814 457 839 457 c 0
 848 457 860 456 876 455 c 0
EndSplineSet
Validated: 1
EndChar

StartChar: questiondown
Encoding: 191 191 124
Width: 385
GlyphClass: 2
Flags: W
HStem: -218 68<114.343 217.945> 331 153<198.068 279.644>
VStem: 0 103<-139.086 -32.2124> 171 138<360.859 456.395> 185 103<136.979 246.5>
LayerCount: 2
Fore
SplineSet
249 484 m 0xf0
 266 484 280 478 292 466 c 0
 303 455 309 439 309 420 c 0
 309 397 301 376 285 358 c 0
 269 340 250 331 229 331 c 0
 212 331 198 337 188 350 c 0
 176 362 171 377 171 396 c 0
 171 420 178 441 194 458 c 0
 208 475 227 484 249 484 c 0xf0
181 243 m 1
 191 250 l 2
 206 257 221 261 236 261 c 0
 271 261 288 244 288 209 c 0xe8
 288 180 280 153 264 129 c 0
 247 105 223 78 192 48 c 0
 173 30 159 16 150 5 c 0
 140 -6 130 -22 119 -41 c 0
 108 -61 103 -80 103 -99 c 0
 103 -116 108 -129 118 -137 c 0
 127 -146 140 -150 155 -150 c 0
 176 -150 198 -143 218 -128 c 0
 240 -113 254 -95 261 -73 c 1
 306 -82 328 -97 328 -119 c 0
 328 -148 311 -171 278 -190 c 0
 244 -209 205 -218 162 -218 c 0
 117 -218 78 -208 47 -188 c 0
 16 -167 0 -136 0 -95 c 0
 0 -44 34 12 103 73 c 0
 122 90 136 102 144 111 c 0
 153 120 162 133 171 151 c 0xf0
 180 169 185 188 185 208 c 0xe8
 185 220 184 232 181 243 c 1
EndSplineSet
Validated: 1
Substitution2: "'c2sc' Capitals to Small Capitals in Latin lookup 0 subtable" questiondown.sc
EndChar

StartChar: Agrave
Encoding: 192 192 125
Width: 541
GlyphClass: 2
Flags: W
HStem: -13 21G<61 80 440.5 465> 199 75<205 353> 714 21G<356.5 367.5>
VStem: -10 87<0.329597 38.1549>
LayerCount: 2
Fore
SplineSet
201 823 m 0
 183 834 174 849 174 866 c 0
 174 890 188 908 215 920 c 1
 245 882 294 839 361 790 c 0
 374 781 380 770 380 756 c 0
 380 739 374 725 361 714 c 1
 352 722 328 739 287 765 c 0
 246 791 218 810 201 823 c 0
353 275 m 1
 332 362 317 442 308 514 c 1
 271 421 237 341 205 276 c 1
 241 275 271 274 294 274 c 0
 321 274 340 274 353 275 c 1
269 199 m 0
 254 199 221 200 170 201 c 1
 114 76 83 5 77 -13 c 1
 45 -10 22 -6 10 0 c 0
 -4 7 -10 16 -10 29 c 0
 -10 40 -4 58 10 86 c 0
 22 112 43 154 72 210 c 0
 101 267 127 321 150 374 c 0
 155 385 166 409 184 446 c 0
 201 483 217 518 231 550 c 0
 244 582 258 617 271 656 c 1
 290 661 310 663 329 663 c 0
 347 663 361 659 370 652 c 0
 379 645 385 631 389 610 c 0
 390 608 398 564 414 480 c 0
 429 394 443 328 454 280 c 0
 483 151 507 61 525 10 c 1
 500 -3 476 -10 454 -10 c 0
 427 -10 411 2 406 27 c 0
 385 124 373 182 370 201 c 1
 315 200 282 199 269 199 c 0
EndSplineSet
Validated: 1
Substitution2: "'c2sc' Capitals to Small Capitals in Latin lookup 0 subtable" agrave.sc
EndChar

StartChar: Aacute
Encoding: 193 193 126
Width: 541
GlyphClass: 2
Flags: W
HStem: -13 21G<61 80 440.5 465> 199 75<205 353> 715 21G<247 260>
VStem: -10 87<0.329597 38.1549>
LayerCount: 2
Fore
SplineSet
426 801 m 0
 409 792 379 777 335 757 c 0
 292 737 265 723 255 715 c 1
 239 731 231 745 231 758 c 0
 231 771 239 782 254 790 c 0
 273 799 301 815 338 838 c 0
 376 861 405 882 424 899 c 1
 446 888 457 871 457 848 c 0
 457 829 447 813 426 801 c 0
353 275 m 1
 332 362 317 442 308 514 c 1
 271 421 237 341 205 276 c 1
 241 275 271 274 294 274 c 0
 321 274 340 274 353 275 c 1
269 199 m 0
 254 199 221 200 170 201 c 1
 114 76 83 5 77 -13 c 1
 45 -10 22 -6 9 0 c 0
 -4 7 -10 16 -10 29 c 0
 -10 40 -4 58 9 86 c 0
 22 112 43 154 72 210 c 0
 101 267 127 321 150 374 c 0
 155 385 166 409 183 446 c 0
 201 483 217 518 230 550 c 0
 244 582 258 617 271 656 c 1
 290 661 310 663 329 663 c 0
 347 663 360 659 369 652 c 0
 378 645 385 631 389 610 c 0
 390 608 398 564 414 480 c 0
 429 394 443 328 454 280 c 0
 483 151 507 61 525 10 c 1
 500 -3 476 -10 454 -10 c 0
 427 -10 411 2 406 27 c 0
 385 124 373 182 370 201 c 1
 315 200 282 199 269 199 c 0
EndSplineSet
Validated: 1
Substitution2: "'c2sc' Capitals to Small Capitals in Latin lookup 0 subtable" aacute.sc
EndChar

StartChar: Acircumflex
Encoding: 194 194 127
Width: 541
GlyphClass: 2
Flags: W
HStem: -13 21G<61 80 440.5 465> 199 75<205 353> 721 21G<203.5 219.5>
VStem: -10 87<-0.277832 38.1549>
LayerCount: 2
Fore
SplineSet
467 758 m 0
 467 737 453 721 424 709 c 1
 415 723 403 737 388 752 c 0
 373 766 360 777 350 784 c 2
 335 796 l 1
 270 746 229 721 210 721 c 0
 197 721 187 730 180 747 c 1
 244 812 300 861 349 892 c 1
 428 831 467 786 467 758 c 0
353 275 m 1
 332 362 317 442 308 514 c 1
 271 421 237 341 205 276 c 1
 241 275 271 274 294 274 c 0
 321 274 340 274 353 275 c 1
269 199 m 0
 254 199 221 200 170 201 c 1
 114 76 83 5 77 -13 c 1
 45 -10 22 -6 9 1 c 0
 -4 7 -10 16 -10 29 c 0
 -10 40 -4 59 9 86 c 0
 22 113 43 154 72 211 c 0
 101 267 127 321 150 374 c 0
 155 385 166 409 184 446 c 0
 201 483 217 518 231 550 c 0
 244 582 258 617 271 656 c 1
 290 661 310 663 329 663 c 0
 347 663 360 659 370 652 c 0
 378 645 385 631 389 610 c 0
 390 608 398 565 414 480 c 0
 429 395 443 328 454 280 c 0
 483 151 507 61 525 10 c 1
 500 -3 476 -10 454 -10 c 0
 427 -10 411 2 406 27 c 0
 385 124 373 182 370 201 c 1
 315 200 282 199 269 199 c 0
EndSplineSet
Validated: 1
Substitution2: "'c2sc' Capitals to Small Capitals in Latin lookup 0 subtable" acircumflex.sc
EndChar

StartChar: Atilde
Encoding: 195 195 128
Width: 541
GlyphClass: 2
Flags: W
HStem: -13 21G<61 80 440.5 465> 199 75<205 353> 720 73<359.089 439.672> 764 73<234.54 308.858>
VStem: -10 87<0.329597 38.1549>
LayerCount: 2
Fore
SplineSet
353 275 m 1xc8
 332 362 317 442 308 514 c 1
 271 421 237 341 205 276 c 1
 241 275 271 274 294 274 c 0
 321 274 340 274 353 275 c 1xc8
269 199 m 0
 254 199 221 200 170 201 c 1
 114 76 83 5 77 -13 c 1
 45 -10 22 -6 9 0 c 0
 -4 7 -10 16 -10 29 c 0
 -10 40 -4 58 9 85 c 0
 22 112 43 154 72 210 c 0
 101 267 127 321 150 374 c 0
 155 385 166 409 183 446 c 0
 201 483 217 518 230 550 c 0
 244 582 258 617 271 656 c 1
 290 661 310 663 329 663 c 0
 347 663 360 659 369 652 c 0
 378 645 385 631 389 610 c 0
 390 608 398 564 414 479 c 0
 429 394 443 328 454 280 c 0
 483 151 507 61 525 10 c 1
 500 -3 476 -10 454 -10 c 0
 427 -10 411 2 406 27 c 0
 385 124 373 182 370 201 c 1
 315 200 282 199 269 199 c 0
492 810 m 0
 492 788 478 767 451 748 c 0
 424 729 398 720 373 720 c 0xe8
 354 720 332 727 309 742 c 0
 286 757 273 764 268 764 c 0
 258 764 239 749 210 718 c 1
 191 727 182 740 182 756 c 0
 185 775 198 794 223 811 c 0
 248 828 274 837 301 837 c 0xd8
 317 837 336 830 359 815 c 0
 382 800 398 793 405 793 c 0xe8
 417 793 436 808 462 838 c 1
 482 833 492 823 492 810 c 0
EndSplineSet
Validated: 1
Substitution2: "'c2sc' Capitals to Small Capitals in Latin lookup 0 subtable" atilde.sc
EndChar

StartChar: Adieresis
Encoding: 196 196 129
Width: 541
GlyphClass: 2
Flags: W
HStem: -13 21G<61 80 440.5 465> 199 75<205 353> 721 139<195.412 276.494 368.412 449.494>
VStem: -10 87<0.329597 38.1549> 172 129<745.123 836.394> 345 129<745.123 836.394>
LayerCount: 2
Fore
SplineSet
353 275 m 1
 332 362 317 442 308 514 c 1
 271 421 237 341 205 276 c 1
 241 275 271 274 294 274 c 0
 321 274 340 274 353 275 c 1
269 199 m 0
 254 199 221 200 170 201 c 1
 114 76 83 5 77 -13 c 1
 45 -10 22 -6 9 0 c 0
 -4 7 -10 16 -10 29 c 0
 -10 40 -4 58 9 85 c 0
 22 112 43 154 72 210 c 0
 101 267 127 321 150 374 c 0
 155 385 166 409 183 446 c 0
 201 483 217 518 230 550 c 0
 244 582 258 617 271 656 c 1
 290 661 310 663 329 663 c 0
 347 663 360 659 369 652 c 0
 378 645 385 631 389 610 c 0
 390 608 398 564 414 479 c 0
 429 394 443 328 454 280 c 0
 483 151 507 61 525 10 c 1
 500 -3 476 -10 454 -10 c 0
 427 -10 411 2 406 27 c 0
 385 124 373 182 370 201 c 1
 315 200 282 199 269 199 c 0
401 721 m 0
 384 721 371 727 360 738 c 0
 350 749 345 763 345 782 c 0
 345 803 352 822 367 837 c 0
 382 852 399 860 418 860 c 0
 433 860 446 854 457 842 c 0
 468 829 474 814 474 796 c 0
 474 775 466 758 450 743 c 0
 435 728 418 721 401 721 c 0
228 721 m 0
 211 721 198 727 187 738 c 0
 177 749 172 763 172 782 c 0
 172 803 179 822 194 837 c 0
 209 852 226 860 245 860 c 0
 260 860 273 854 284 842 c 0
 295 829 301 814 301 796 c 0
 301 775 293 758 277 743 c 0
 262 728 245 721 228 721 c 0
EndSplineSet
Validated: 1
Substitution2: "'c2sc' Capitals to Small Capitals in Latin lookup 0 subtable" adieresis.sc
EndChar

StartChar: Aring
Encoding: 197 197 130
Width: 541
GlyphClass: 2
Flags: W
HStem: -13 21G<61 80 440.5 465> 199 75<205 353> 710 48<301.506 365.592> 852 48<307.854 371.807>
VStem: -10 87<0.329597 38.1549> 242 57<759.335 844.489> 374 58<764.204 850.836>
LayerCount: 2
Fore
SplineSet
344 852 m 0
 331 852 320 847 312 836 c 0
 303 826 299 813 299 798 c 0
 299 771 310 758 331 758 c 0
 344 758 354 763 362 774 c 0
 370 785 374 797 374 812 c 0
 374 839 364 852 344 852 c 0
324 710 m 0
 300 710 280 717 265 732 c 0
 250 747 242 766 242 789 c 0
 242 819 252 845 273 867 c 0
 294 889 320 900 351 900 c 0
 376 900 395 893 410 879 c 0
 425 865 432 846 432 822 c 0
 432 792 422 766 401 743 c 0
 381 721 355 710 324 710 c 0
353 275 m 1
 332 362 317 442 308 514 c 1
 271 421 237 341 205 276 c 1
 241 275 271 274 294 274 c 0
 321 274 340 274 353 275 c 1
269 199 m 0
 254 199 221 200 170 201 c 1
 114 76 83 5 77 -13 c 1
 45 -10 22 -6 9 0 c 0
 -4 7 -10 16 -10 29 c 0
 -10 40 -4 58 9 85 c 0
 22 112 43 154 72 210 c 0
 101 267 127 321 150 374 c 0
 155 385 166 409 183 446 c 0
 201 483 217 518 230 550 c 0
 244 582 258 617 271 656 c 1
 290 661 310 663 329 663 c 0
 347 663 360 659 369 652 c 0
 378 645 385 631 389 610 c 0
 390 608 398 564 413 479 c 0
 429 394 443 328 454 280 c 0
 483 151 507 61 525 10 c 1
 500 -3 476 -10 454 -10 c 0
 427 -10 411 2 406 27 c 0
 385 124 373 182 370 201 c 1
 315 200 282 199 269 199 c 0
EndSplineSet
Validated: 1
Substitution2: "'c2sc' Capitals to Small Capitals in Latin lookup 0 subtable" aring.sc
EndChar

StartChar: AE
Encoding: 198 198 131
Width: 738
GlyphClass: 2
Flags: W
HStem: -10 21G<25 42> -3 78<435 648.995> 207 74<223 339> 315 79<472 626.068> 585 80<494 729.672>
VStem: 320 115<75.8095 202.666>
LayerCount: 2
Fore
SplineSet
311 281 m 2x3c
 350 281 l 1
 366 394 377 484 383 551 c 1
 372 532 348 492 313 432 c 0
 277 370 247 321 223 283 c 1
 260 282 290 281 311 281 c 2x3c
731 564 m 1
 703 578 654 585 583 585 c 0
 556 585 526 584 494 582 c 1
 493 550 485 487 472 394 c 1
 558 394 611 395 631 398 c 1
 632 389 633 379 633 370 c 0
 633 336 619 318 591 316 c 0
 576 315 533 315 461 315 c 1
 444 174 435 94 435 77 c 1
 452 76 469 75 485 75 c 0
 518 75 552 77 586 82 c 0
 620 87 642 92 653 99 c 1
 662 75 666 55 666 40 c 0
 666 21 655 9 632 4 c 0
 610 -1 568 -3 505 -3 c 0x7c
 426 -3 377 -2 358 -1 c 0
 344 -0 334 3 328 8 c 0
 323 14 320 23 320 34 c 0
 320 56 326 114 339 207 c 1
 271 207 l 2
 259 207 224 208 165 209 c 1
 91 88 48 15 36 -10 c 1xbc
 14 -9 -4 -4 -20 4 c 0
 -34 12 -42 23 -42 36 c 0
 -42 45 -39 55 -32 64 c 0
 22 139 77 217 132 298 c 0
 227 438 301 557 354 654 c 1
 424 661 505 665 596 665 c 0
 687 665 737 660 748 650 c 0
 751 643 753 633 753 622 c 0
 753 602 746 583 731 564 c 1
EndSplineSet
Validated: 1
Substitution2: "'c2sc' Capitals to Small Capitals in Latin lookup 0 subtable" ae.sc
EndChar

StartChar: Ccedilla
Encoding: 199 199 132
Width: 535
GlyphClass: 2
Flags: W
HStem: -244 60<187.771 271.909> -9 76<298.552 369.125> 596 77<283.116 421.6>
VStem: 46 116<158.388 419.874> 224 73<-73.5 -9.46023> 280 86<-176.985 -113.376>
LayerCount: 2
Fore
SplineSet
423 150 m 1xf8
 466 134 488 113 488 87 c 0
 488 63 470 42 435 23 c 0
 400 4 357 -7 307 -9 c 1
 300 -24 297 -34 297 -40 c 0xf8
 297 -43 303 -48 314 -55 c 0
 326 -62 338 -72 349 -85 c 0
 360 -98 366 -113 366 -130 c 0
 366 -162 350 -189 318 -211 c 0
 287 -233 253 -244 217 -244 c 0
 186 -244 171 -235 171 -217 c 0
 171 -204 181 -188 202 -170 c 1
 210 -179 222 -184 239 -184 c 0
 249 -184 258 -181 267 -175 c 0
 276 -169 280 -160 280 -148 c 0xf4
 280 -137 271 -123 252 -108 c 0
 233 -93 224 -80 224 -67 c 0
 224 -50 231 -29 244 -6 c 1
 182 3 134 32 98 80 c 0
 64 128 46 189 46 264 c 0
 46 385 78 483 142 559 c 0
 206 635 289 673 390 673 c 0
 436 673 474 664 504 644 c 0
 535 626 550 602 550 574 c 0
 550 553 542 536 526 523 c 0
 510 510 489 501 464 498 c 1
 458 531 445 555 425 572 c 0
 405 588 383 596 358 596 c 0
 301 596 254 565 217 504 c 0
 180 442 162 371 162 290 c 0
 162 224 174 170 198 129 c 0
 221 88 256 67 301 67 c 0
 351 67 392 95 423 150 c 1xf8
EndSplineSet
Validated: 1
Substitution2: "'c2sc' Capitals to Small Capitals in Latin lookup 0 subtable" ccedilla.sc
EndChar

StartChar: Egrave
Encoding: 200 200 133
Width: 475
GlyphClass: 2
Flags: W
HStem: -3 78<172 385.995> 315 79<209 363.068> 585 80<231 466.672> 714 21G<352.5 363.5>
VStem: 57 115<75.8095 215.59> 124 107<398.529 582>
LayerCount: 2
Fore
SplineSet
197 823 m 0xf0
 179 834 170 849 170 866 c 0
 170 890 184 908 211 920 c 1
 241 882 290 839 357 790 c 0
 370 781 376 770 376 756 c 0
 376 739 370 725 357 714 c 1
 348 722 324 739 283 765 c 0
 242 791 214 810 197 823 c 0xf0
468 564 m 1
 440 578 391 585 320 585 c 0
 293 585 263 584 231 582 c 1xf4
 230 550 222 487 209 394 c 1
 295 394 348 395 368 398 c 1
 369 389 370 379 370 370 c 0
 370 336 356 318 328 316 c 0
 313 315 270 315 198 315 c 1
 181 174 172 94 172 77 c 1
 189 76 206 75 222 75 c 0
 255 75 289 77 323 82 c 0
 357 87 379 92 390 99 c 1
 399 75 403 55 403 40 c 0
 403 21 392 9 370 4 c 0
 347 -1 305 -3 242 -3 c 0
 163 -3 114 -2 95 -1 c 0
 81 -0 71 3 66 8 c 0
 60 14 57 23 57 34 c 0xf8
 57 53 68 143 91 306 c 0
 113 469 124 577 124 631 c 0xf4
 124 643 124 651 123 656 c 1
 192 662 262 665 333 665 c 0
 424 665 474 660 485 650 c 0
 488 643 490 633 490 622 c 0
 490 602 483 583 468 564 c 1
EndSplineSet
Validated: 1
Substitution2: "'c2sc' Capitals to Small Capitals in Latin lookup 0 subtable" egrave.sc
EndChar

StartChar: Eacute
Encoding: 201 201 134
Width: 475
GlyphClass: 2
Flags: W
HStem: -3 78<172 385.995> 315 79<209 363.068> 585 80<231 466.672> 715 21G<256 269>
VStem: 57 115<75.8095 220.719> 124 107<398.529 582>
LayerCount: 2
Fore
SplineSet
435 801 m 0xf0
 418 792 388 777 344 757 c 0
 301 737 274 723 264 715 c 1
 248 731 240 745 240 758 c 0
 240 771 248 782 263 790 c 0
 282 799 310 815 348 838 c 0
 385 861 414 882 433 899 c 1
 455 888 466 871 466 848 c 0
 466 829 456 813 435 801 c 0xf0
468 564 m 1
 440 578 391 585 320 585 c 0
 293 585 263 584 231 582 c 1xf4
 230 550 222 487 209 394 c 1
 295 394 348 395 368 398 c 1
 369 389 370 379 370 370 c 0
 370 336 356 318 328 316 c 0
 313 315 270 315 198 315 c 1
 181 174 172 94 172 77 c 1
 189 76 206 75 222 75 c 0
 255 75 289 77 323 82 c 0
 357 87 379 92 390 99 c 1
 399 75 403 55 403 40 c 0
 403 21 392 9 369 4 c 0
 347 -1 305 -3 242 -3 c 0
 163 -3 114 -2 95 -1 c 0
 81 -0 71 3 65 8 c 0
 60 14 57 23 57 34 c 0xf8
 57 53 68 143 90 306 c 0
 113 469 124 577 124 631 c 0xf4
 124 643 124 651 123 656 c 1
 192 662 262 665 333 665 c 0
 424 665 474 660 485 650 c 0
 488 643 490 633 490 622 c 0
 490 602 483 583 468 564 c 1
EndSplineSet
Validated: 1
Substitution2: "'c2sc' Capitals to Small Capitals in Latin lookup 0 subtable" eacute.sc
EndChar

StartChar: Ecircumflex
Encoding: 202 202 135
Width: 475
GlyphClass: 2
Flags: W
HStem: -3 78<172 385.995> 315 79<209 363.068> 585 80<231 466.672> 721 21G<193.5 209.5>
VStem: 57 115<75.8095 220.719> 124 107<398.529 582>
LayerCount: 2
Fore
SplineSet
457 758 m 0xf0
 457 737 443 721 414 709 c 1
 405 723 393 737 378 752 c 0
 363 766 350 777 340 784 c 2
 325 796 l 1
 260 746 219 721 200 721 c 0
 187 721 177 730 170 747 c 1
 234 812 290 861 339 892 c 1
 418 831 457 786 457 758 c 0xf0
468 564 m 1
 440 578 391 585 320 585 c 0
 293 585 263 584 231 582 c 1xf4
 230 550 222 487 209 394 c 1
 295 394 348 395 368 398 c 1
 369 389 370 379 370 370 c 0
 370 336 356 318 328 316 c 0
 313 315 270 315 198 315 c 1
 181 174 172 94 172 77 c 1
 189 76 206 75 222 75 c 0
 255 75 289 77 323 82 c 0
 357 87 379 92 390 99 c 1
 399 75 403 55 403 40 c 0
 403 21 392 9 370 4 c 0
 347 -1 305 -3 242 -3 c 0
 163 -3 114 -2 95 -1 c 0
 81 -0 71 3 66 8 c 0
 60 14 57 23 57 34 c 0xf8
 57 53 68 143 90 306 c 0
 113 469 124 577 124 631 c 0xf4
 124 643 124 651 123 656 c 1
 192 662 262 665 333 665 c 0
 424 665 474 660 485 650 c 0
 488 643 490 633 490 622 c 0
 490 602 483 583 468 564 c 1
EndSplineSet
Validated: 1
Substitution2: "'c2sc' Capitals to Small Capitals in Latin lookup 0 subtable" ecircumflex.sc
EndChar

StartChar: Edieresis
Encoding: 203 203 136
Width: 470
GlyphClass: 2
Flags: W
HStem: -3 80<172 404.476> 315 79<209 363.068> 585 80<232.385 470.564> 721 139<203.412 284.494 376.412 457.494>
VStem: 57 115<77 220.719> 124 107<398.529 583.241> 180 129<745.394 836.955> 353 129<745.394 836.955>
LayerCount: 2
Fore
SplineSet
463 564 m 1xf5
 435 578 386 585 315 585 c 0
 291 585 263 584 231 582 c 1xf5
 230 550 222 487 209 394 c 1
 295 394 348 395 368 398 c 1
 369 389 370 379 370 370 c 0
 370 336 356 318 328 316 c 0
 313 315 270 315 198 315 c 1
 181 174 172 94 172 77 c 1
 189 76 211 75 237 75 c 0
 270 75 304 77 338 82 c 0
 372 87 394 92 405 99 c 1
 414 75 418 55 418 40 c 0
 418 21 407 9 384 4 c 0
 362 -1 320 -3 257 -3 c 0
 168 -3 114 -2 95 -1 c 0
 81 -0 71 3 65 8 c 0
 60 14 57 23 57 34 c 0xf9
 57 53 68 143 90 306 c 0
 113 469 124 577 124 631 c 0
 124 643 124 651 123 656 c 1
 192 662 260 665 328 665 c 0
 419 665 469 660 480 650 c 0
 483 643 485 633 485 622 c 0
 485 602 478 583 463 564 c 1xf5
409 721 m 0
 392 721 379 726 368 737 c 0
 358 748 353 763 353 782 c 0
 353 803 360 822 375 837 c 0
 390 852 407 860 426 860 c 0
 441 860 454 854 465 841 c 0
 476 829 482 814 482 796 c 0
 482 775 474 758 458 743 c 0
 443 728 426 721 409 721 c 0
236 721 m 0
 219 721 206 726 195 737 c 0
 185 748 180 763 180 782 c 0
 180 803 187 822 202 837 c 0
 217 852 234 860 253 860 c 0
 268 860 281 854 292 841 c 0
 303 829 309 814 309 796 c 0xf3
 309 775 301 758 285 743 c 0
 270 728 253 721 236 721 c 0
EndSplineSet
Validated: 1
Substitution2: "'c2sc' Capitals to Small Capitals in Latin lookup 0 subtable" edieresis.sc
EndChar

StartChar: Igrave
Encoding: 204 204 137
Width: 266
GlyphClass: 2
Flags: W
HStem: -3 21G<96.5 124.5> 646 20G<175 203> 714 21G<222.5 233.5>
VStem: 57 115<5.48404 212.213> 130 113<484.994 659.001>
LayerCount: 2
Fore
SplineSet
67 823 m 0xe0
 49 834 40 849 40 866 c 0
 40 890 54 908 81 920 c 1
 111 882 160 839 227 790 c 0
 240 781 246 770 246 756 c 0
 246 739 240 725 227 714 c 1
 218 722 194 739 153 765 c 0
 112 791 84 810 67 823 c 0xe0
130 663 m 1xe8
 149 665 167 666 183 666 c 0
 223 666 243 652 243 623 c 0xe8
 243 620 242 610 239 593 c 0
 236 576 231 550 226 515 c 0
 220 480 215 443 210 404 c 2
 184 203 l 2
 176 144 172 99 172 66 c 0
 172 43 173 23 176 5 c 1
 153 -0 133 -3 116 -3 c 0
 77 -3 57 14 57 49 c 0xf0
 57 54 59 67 62 90 c 0
 65 113 71 156 80 221 c 0
 89 285 98 355 107 431 c 0
 120 531 127 608 130 663 c 1xe8
EndSplineSet
Validated: 1
Substitution2: "'c2sc' Capitals to Small Capitals in Latin lookup 0 subtable" igrave.sc
EndChar

StartChar: Iacute
Encoding: 205 205 138
Width: 259
GlyphClass: 2
Flags: W
HStem: -3 21G<96.5 124.5> 646 20G<175 203> 715 21G<123 136>
VStem: 57 115<5.48404 219.842> 130 113<484.994 659.001>
LayerCount: 2
Fore
SplineSet
302 801 m 0xe8
 285 792 255 777 211 757 c 0
 168 737 141 723 131 715 c 1
 115 731 107 745 107 758 c 0
 107 771 115 782 130 790 c 0
 149 799 177 815 214 838 c 0
 252 861 281 882 300 899 c 1
 322 888 333 871 333 848 c 0
 333 829 323 813 302 801 c 0xe8
130 663 m 1
 149 665 167 666 183 666 c 0
 223 666 243 652 243 623 c 0xe8
 243 620 242 610 238 593 c 0
 236 576 231 550 226 515 c 0
 220 480 215 443 210 404 c 2
 184 203 l 2
 176 144 172 99 172 66 c 0
 172 43 173 23 176 5 c 1
 153 -0 133 -3 116 -3 c 0
 77 -3 57 14 57 49 c 0xf0
 57 54 58 67 61 90 c 0
 64 113 70 156 79 221 c 0
 88 285 98 355 107 431 c 0
 120 531 127 608 130 663 c 1
EndSplineSet
Validated: 1
Substitution2: "'c2sc' Capitals to Small Capitals in Latin lookup 0 subtable" iacute.sc
EndChar

StartChar: Icircumflex
Encoding: 206 206 139
Width: 259
GlyphClass: 2
Flags: W
HStem: -3 21G<96.5 124.5> 646 20G<175 203> 721 21G<70.5 86.5>
VStem: 57 115<5.48404 212.213> 130 113<484.994 659.001>
LayerCount: 2
Fore
SplineSet
334 758 m 0xe0
 334 737 320 721 291 709 c 1
 282 723 270 737 255 752 c 0
 240 766 227 777 217 784 c 2
 202 796 l 1
 137 746 96 721 77 721 c 0
 64 721 54 730 47 747 c 1
 111 812 167 861 216 892 c 1
 295 831 334 786 334 758 c 0xe0
130 663 m 1xe8
 149 665 167 666 183 666 c 0
 223 666 243 652 243 623 c 0xe8
 243 620 242 610 239 593 c 0
 236 576 231 550 226 515 c 0
 220 480 215 443 210 404 c 2
 184 203 l 2
 176 144 172 99 172 66 c 0
 172 43 173 23 176 5 c 1
 153 -0 133 -3 116 -3 c 0
 77 -3 57 14 57 49 c 0xf0
 57 54 58 67 62 90 c 0
 64 113 70 156 80 221 c 0
 88 285 98 355 107 431 c 0
 120 531 127 608 130 663 c 1xe8
EndSplineSet
Validated: 1
Substitution2: "'c2sc' Capitals to Small Capitals in Latin lookup 0 subtable" icircumflex.sc
EndChar

StartChar: Idieresis
Encoding: 207 207 140
Width: 259
GlyphClass: 2
Flags: W
HStem: -3 21G<96.5 124.5> 646 20G<175 203> 721 139<79.5385 161.973 252.412 333.971>
VStem: 56 129<744.517 836.394> 57 115<5.48404 219.342> 130 113<484.994 659.001> 229 129<745.123 836.394>
LayerCount: 2
Fore
SplineSet
130 663 m 1xe4
 149 665 167 666 183 666 c 0
 223 666 243 652 243 623 c 0xe4
 243 620 242 610 238 593 c 0
 236 576 231 550 226 515 c 0
 220 480 215 443 210 404 c 2
 184 203 l 2
 176 144 172 99 172 66 c 0
 172 43 173 23 176 5 c 1
 153 -0 133 -3 116 -3 c 0
 77 -3 57 14 57 49 c 0xe8
 57 54 58 67 61 90 c 0
 64 113 70 156 79 220 c 0
 88 285 98 355 107 431 c 0
 120 531 127 608 130 663 c 1xe4
285 721 m 0
 268 721 255 727 244 738 c 0
 234 749 229 763 229 782 c 0
 229 803 236 822 251 837 c 0
 266 852 283 860 302 860 c 0
 317 860 330 854 342 842 c 0
 352 829 358 814 358 796 c 0xe2
 358 775 350 758 334 743 c 0
 319 728 302 721 285 721 c 0
112 721 m 0
 95 721 82 727 72 738 c 0
 61 749 56 763 56 782 c 0
 56 803 63 822 78 837 c 0
 93 852 110 860 129 860 c 0
 144 860 158 854 168 842 c 0
 180 829 185 814 185 796 c 0xf0
 185 775 177 758 162 743 c 0
 146 728 129 721 112 721 c 0
EndSplineSet
Validated: 1
Substitution2: "'c2sc' Capitals to Small Capitals in Latin lookup 0 subtable" idieresis.sc
EndChar

StartChar: Eth
Encoding: 208 208 141
Width: 622
GlyphClass: 2
Flags: W
HStem: -10 77<205.808 367.535> 315 79<46.009 119 236 379.573> 596 77<258.155 397.923>
VStem: 487 117<251.266 497.673>
LayerCount: 2
Fore
SplineSet
239 315 m 2
 225 315 l 1
 214 245 202 174 188 103 c 1
 212 79 244 67 285 67 c 0
 322 67 354 77 381 98 c 0
 408 118 429 144 444 177 c 0
 459 210 469 243 476 277 c 0
 483 311 487 345 487 379 c 0
 487 451 471 505 440 542 c 0
 409 578 365 596 308 596 c 0
 296 596 279 595 258 592 c 1
 253 536 246 470 236 394 c 1
 315 394 364 395 385 398 c 1
 386 386 387 377 387 371 c 0
 387 336 372 318 342 316 c 0
 328 315 294 315 239 315 c 2
72 53 m 1
 89 132 105 219 119 315 c 1
 84 315 58 314 40 311 c 1
 39 323 38 332 38 338 c 0
 38 372 53 390 83 393 c 0
 90 394 105 394 130 394 c 1
 143 493 150 582 152 661 c 1
 190 669 240 673 301 673 c 0
 503 673 604 583 604 404 c 0
 604 332 591 265 565 204 c 0
 540 142 500 91 447 50 c 0
 394 10 333 -10 263 -10 c 0
 178 -10 114 11 72 53 c 1
EndSplineSet
Validated: 1
Substitution2: "'c2sc' Capitals to Small Capitals in Latin lookup 0 subtable" eth.sc
EndChar

StartChar: Ntilde
Encoding: 209 209 142
Width: 596
GlyphClass: 2
Flags: W
HStem: -3 21G<102.5 121.5 438.5 463.5> 647 20G<168.5 194 515.5 542> 720 73<389.089 469.672> 764 73<264.54 338.858>
VStem: 57 102<6.28418 202.246> 394 106<3.33472 73.811> 480 100<496.41 660.905>
LayerCount: 2
Fore
SplineSet
500 1 m 1xcc
 487 -2 472 -3 455 -3 c 0
 422 -3 401 6 394 24 c 0xcc
 371 76 338 157 295 268 c 0
 252 378 223 451 208 488 c 1
 205 464 199 424 192 368 c 0
 185 312 179 269 176 238 c 0
 172 207 168 174 164 139 c 0
 161 103 159 76 159 59 c 0
 159 46 160 28 163 5 c 1
 147 -0 130 -3 113 -3 c 0
 92 -3 77 0 69 6 c 0
 61 12 57 22 57 35 c 0
 57 41 58 55 62 76 c 0
 64 97 68 124 72 155 c 0
 77 186 80 212 83 231 c 0
 88 268 93 309 99 355 c 0
 105 401 110 436 112 459 c 0
 116 482 118 507 120 534 c 0
 123 560 124 583 124 604 c 0
 124 625 123 644 120 659 c 1
 137 664 157 667 180 667 c 0
 208 667 229 657 242 638 c 0
 265 603 295 545 331 462 c 0
 368 379 401 296 431 211 c 1
 457 431 l 2
 470 537 477 614 480 663 c 1
 494 665 508 666 523 666 c 0
 561 666 580 655 580 632 c 0xca
 580 627 578 614 574 592 c 0
 570 571 565 542 560 506 c 0
 554 469 549 435 545 404 c 0
 541 371 535 324 527 262 c 0
 519 201 513 150 509 112 c 0
 505 72 502 36 500 1 c 1xcc
522 810 m 0
 522 788 508 768 481 749 c 0
 454 730 428 720 403 720 c 0xe8
 384 720 362 727 339 742 c 0
 316 757 303 764 298 764 c 0
 288 764 269 749 240 718 c 1
 221 727 212 740 212 756 c 0
 215 775 228 794 253 811 c 0
 278 828 304 837 331 837 c 0xd8
 347 837 366 830 389 815 c 0
 412 800 428 793 435 793 c 0xe8
 447 793 466 808 492 838 c 1
 512 833 522 823 522 810 c 0
EndSplineSet
Validated: 1
Substitution2: "'c2sc' Capitals to Small Capitals in Latin lookup 0 subtable" ntilde.sc
EndChar

StartChar: Ograve
Encoding: 210 210 143
Width: 645
GlyphClass: 2
Flags: W
HStem: -10 76<234.715 384.635> 596 78<284.131 437.562> 714 21G<405.5 416.5>
VStem: 46 116<158.575 419.013> 509 118<247.853 505.772>
LayerCount: 2
Fore
SplineSet
250 823 m 0
 232 834 223 849 223 866 c 0
 223 890 237 908 264 920 c 1
 294 882 343 839 410 790 c 0
 423 781 429 770 429 756 c 0
 429 739 423 725 410 714 c 1
 401 722 377 739 336 765 c 0
 295 791 267 810 250 823 c 0
290 -10 m 0
 213 -10 154 14 111 64 c 0
 68 112 46 179 46 263 c 0
 46 380 77 477 139 556 c 0
 201 635 281 674 379 674 c 0
 457 674 518 650 562 602 c 0
 605 553 627 487 627 402 c 0
 627 287 596 190 534 110 c 0
 472 30 391 -10 290 -10 c 0
365 596 m 0
 303 596 254 566 217 508 c 0
 180 448 162 376 162 290 c 0
 162 260 165 232 170 206 c 0
 175 180 183 156 194 135 c 0
 205 114 220 97 238 85 c 0
 258 72 280 66 305 66 c 0
 348 66 386 81 418 112 c 0
 449 142 472 180 487 226 c 0
 502 273 509 323 509 378 c 0
 509 441 497 493 474 534 c 0
 451 575 414 596 365 596 c 0
EndSplineSet
Validated: 1
Substitution2: "'c2sc' Capitals to Small Capitals in Latin lookup 0 subtable" ograve.sc
EndChar

StartChar: Oacute
Encoding: 211 211 144
Width: 645
GlyphClass: 2
Flags: W
HStem: -10 76<234.608 384.472> 596 78<284.131 437.562> 715 21G<323 336>
VStem: 46 116<158.575 419.013> 509 118<247.853 505.772>
LayerCount: 2
Fore
SplineSet
502 801 m 0
 485 792 455 777 411 757 c 0
 368 737 341 723 331 715 c 1
 315 731 307 745 307 758 c 0
 307 771 315 782 330 790 c 0
 349 799 377 815 414 838 c 0
 452 861 481 882 500 899 c 1
 522 888 533 871 533 848 c 0
 533 829 523 813 502 801 c 0
290 -10 m 0
 213 -10 154 14 110 64 c 0
 68 112 46 179 46 263 c 0
 46 380 77 477 139 556 c 0
 201 635 281 674 379 674 c 0
 457 674 518 650 562 602 c 0
 605 553 627 487 627 402 c 0
 627 287 596 190 534 110 c 0
 472 30 391 -10 290 -10 c 0
365 596 m 0
 303 596 254 566 217 508 c 0
 180 448 162 376 162 290 c 0
 162 260 165 232 170 206 c 0
 175 180 183 156 194 135 c 0
 205 114 219 97 238 85 c 0
 257 72 280 66 305 66 c 0
 348 66 386 81 417 112 c 0
 449 142 472 180 487 226 c 0
 502 273 509 323 509 378 c 0
 509 441 497 493 474 534 c 0
 451 575 414 596 365 596 c 0
EndSplineSet
Validated: 1
Substitution2: "'c2sc' Capitals to Small Capitals in Latin lookup 0 subtable" oacute.sc
EndChar

StartChar: Ocircumflex
Encoding: 212 212 145
Width: 645
GlyphClass: 2
Flags: W
HStem: -10 76<234.616 384.472> 596 78<282.972 437.562> 721 21G<259.5 275.5>
VStem: 46 116<158.743 419.216> 509 118<248.153 505.772>
LayerCount: 2
Fore
SplineSet
523 758 m 0
 523 737 509 721 480 709 c 1
 471 723 459 737 444 752 c 0
 429 766 416 777 406 784 c 2
 391 796 l 1
 326 746 285 721 266 721 c 0
 253 721 243 730 236 747 c 1
 300 812 356 861 405 892 c 1
 484 831 523 786 523 758 c 0
290 -10 m 0
 213 -10 154 15 111 64 c 0
 68 113 46 179 46 263 c 0
 46 380 77 477 139 556 c 0
 201 635 281 674 379 674 c 0
 457 674 518 650 562 602 c 0
 605 553 627 487 627 402 c 0
 627 287 596 190 534 110 c 0
 472 30 391 -10 290 -10 c 0
365 596 m 0
 303 596 254 567 217 508 c 0
 180 449 162 376 162 290 c 0
 162 260 165 232 170 206 c 0
 175 180 183 156 194 135 c 0
 205 114 219 97 238 85 c 0
 257 72 280 66 305 66 c 0
 348 66 386 81 417 112 c 0
 449 142 472 180 487 227 c 0
 502 273 509 323 509 378 c 0
 509 441 497 493 474 534 c 0
 451 575 414 596 365 596 c 0
EndSplineSet
Validated: 1
Substitution2: "'c2sc' Capitals to Small Capitals in Latin lookup 0 subtable" ocircumflex.sc
EndChar

StartChar: Otilde
Encoding: 213 213 146
Width: 645
GlyphClass: 2
Flags: W
HStem: -10 76<234.182 384.472> 596 78<284.131 437.562> 720 73<408.089 488.672> 764 73<283.54 357.858>
VStem: 46 116<158.528 418.931> 509 118<247.853 505.772>
LayerCount: 2
Fore
SplineSet
290 -10 m 0xcc
 213 -10 154 14 110 63 c 0
 68 112 46 179 46 263 c 0
 46 380 77 477 139 556 c 0
 201 635 281 674 379 674 c 0
 457 674 518 650 562 602 c 0
 605 553 627 487 627 402 c 0
 627 287 596 190 534 110 c 0
 472 30 391 -10 290 -10 c 0xcc
365 596 m 0
 303 596 254 566 217 507 c 0
 180 448 162 376 162 290 c 0
 162 260 165 232 170 206 c 0
 175 180 183 156 194 135 c 0
 205 114 219 97 238 84 c 0
 257 72 280 66 305 66 c 0
 348 66 386 81 417 112 c 0
 449 142 472 180 487 226 c 0
 502 273 509 323 509 378 c 0
 509 441 497 493 474 534 c 0
 451 575 414 596 365 596 c 0
541 810 m 0
 541 788 527 767 500 748 c 0
 473 729 447 720 422 720 c 0xec
 403 720 381 727 358 742 c 0
 335 757 322 764 317 764 c 0
 307 764 288 749 259 718 c 1
 240 727 231 740 231 756 c 0
 234 775 247 794 272 811 c 0
 297 828 323 837 350 837 c 0xdc
 366 837 385 830 408 815 c 0
 431 800 447 793 454 793 c 0xec
 466 793 485 808 511 838 c 1
 531 833 541 823 541 810 c 0
EndSplineSet
Validated: 1
Substitution2: "'c2sc' Capitals to Small Capitals in Latin lookup 0 subtable" otilde.sc
EndChar

StartChar: Odieresis
Encoding: 214 214 147
Width: 645
GlyphClass: 2
Flags: W
HStem: -10 76<234.182 384.472> 596 78<284.131 437.562> 721 139<270.412 351.494 443.412 524.494>
VStem: 46 116<158.528 418.931> 247 129<745.123 836.394> 420 129<745.123 836.394> 509 118<247.853 505.772>
LayerCount: 2
Fore
SplineSet
290 -10 m 0xfa
 213 -10 154 14 110 63 c 0
 68 112 46 179 46 263 c 0
 46 380 77 477 139 556 c 0
 201 635 281 674 379 674 c 0
 457 674 518 650 562 602 c 0
 605 553 627 487 627 402 c 0
 627 287 596 190 534 110 c 0
 472 30 391 -10 290 -10 c 0xfa
365 596 m 0
 303 596 254 566 217 507 c 0
 180 448 162 376 162 290 c 0
 162 260 165 232 170 206 c 0
 175 180 183 156 194 135 c 0
 205 114 219 97 238 84 c 0
 257 72 280 66 305 66 c 0
 348 66 386 81 417 112 c 0
 449 142 472 180 487 226 c 0
 502 273 509 323 509 378 c 0
 509 441 497 493 474 534 c 0
 451 575 414 596 365 596 c 0
476 721 m 0
 459 721 446 727 435 738 c 0
 425 749 420 763 420 782 c 0
 420 803 427 822 442 837 c 0
 457 852 474 860 493 860 c 0
 508 860 521 854 532 842 c 0
 543 829 549 814 549 796 c 0xfc
 549 775 541 758 525 743 c 0
 510 728 493 721 476 721 c 0
303 721 m 0
 286 721 273 727 262 738 c 0
 252 749 247 763 247 782 c 0
 247 803 254 822 269 837 c 0
 284 852 301 860 320 860 c 0
 335 860 348 854 359 842 c 0
 370 829 376 814 376 796 c 0
 376 775 368 758 352 743 c 0
 337 728 320 721 303 721 c 0
EndSplineSet
Validated: 1
Substitution2: "'c2sc' Capitals to Small Capitals in Latin lookup 0 subtable" odieresis.sc
EndChar

StartChar: multiply
Encoding: 215 215 148
Width: 574
GlyphClass: 2
Flags: W
LayerCount: 2
Fore
SplineSet
431 470 m 1
 446 462 459 452 472 440 c 0
 484 428 490 417 490 407 c 0
 490 398 485 388 475 378 c 0
 466 369 444 349 409 316 c 0
 374 283 352 263 342 254 c 1
 410 186 464 136 504 104 c 1
 488 74 466 59 437 59 c 0
 422 59 410 63 403 70 c 0
 396 77 377 97 346 132 c 0
 314 166 293 188 284 197 c 1
 231 145 182 92 137 37 c 1
 124 46 115 52 108 58 c 0
 101 62 95 69 88 78 c 0
 82 86 79 94 79 103 c 0
 79 112 84 121 94 131 c 0
 102 140 147 181 228 255 c 1
 156 324 102 374 67 406 c 1
 86 437 108 452 133 452 c 0
 148 452 159 448 168 439 c 0
 179 428 218 386 285 312 c 1
 350 377 399 430 431 470 c 1
EndSplineSet
Validated: 1
EndChar

StartChar: Oslash
Encoding: 216 216 149
Width: 645
GlyphClass: 2
Flags: W
HStem: -10 76<234.68 384.472> 596 78<284.131 436.41> 724 20G<551.879 573>
VStem: 46 116<155.147 419.013> 509 118<247.853 487.142>
LayerCount: 2
Fore
SplineSet
509 378 m 0
 509 418 504 455 494 488 c 1
 381 315 295 181 234 87 c 1
 255 73 278 66 305 66 c 0
 348 66 386 81 417 112 c 0
 449 142 472 180 487 226 c 0
 502 273 509 323 509 378 c 0
365 596 m 0
 303 596 254 566 217 508 c 0
 180 448 162 376 162 290 c 0
 162 235 170 189 185 152 c 1
 343 395 432 531 451 562 c 1
 428 585 400 596 365 596 c 0
504 645 m 1
 564 744 l 1
 582 743 597 739 609 732 c 0
 621 725 627 717 627 706 c 0
 627 699 606 663 564 598 c 1
 606 550 627 485 627 402 c 0
 627 287 596 190 534 110 c 0
 472 30 391 -10 290 -10 c 0
 251 -10 216 -3 184 10 c 1
 155 -37 137 -68 129 -83 c 1
 110 -82 94 -78 83 -71 c 0
 72 -64 66 -56 66 -45 c 0
 66 -43 66 -41 67 -38 c 0
 68 -35 69 -32 70 -29 c 0
 72 -26 74 -22 76 -19 c 0
 78 -16 81 -11 84 -6 c 0
 88 0 92 5 94 10 c 0
 98 15 102 21 108 29 c 0
 113 38 118 45 122 52 c 1
 71 101 46 171 46 263 c 0
 46 380 77 477 139 556 c 0
 201 635 281 674 379 674 c 0
 427 674 469 664 504 645 c 1
EndSplineSet
Validated: 1
Substitution2: "'c2sc' Capitals to Small Capitals in Latin lookup 0 subtable" oslash.sc
EndChar

StartChar: Ugrave
Encoding: 217 217 150
Width: 609
GlyphClass: 2
Flags: W
HStem: -10 88<204.271 294.987> -3 21G<444.5 471.5> 646 20G<173 201.5 524.5 543> 714 21G<403.5 414.5>
VStem: 75 107<104.358 349.065> 130 113<487.5 658.525> 407 115<5.29689 196.088> 480 113<488.228 656.715>
LayerCount: 2
Fore
SplineSet
248 823 m 0x30
 230 834 221 849 221 866 c 0
 221 890 235 908 262 920 c 1
 292 882 341 839 408 790 c 0
 421 781 427 770 427 756 c 0
 427 739 421 725 408 714 c 1
 399 722 375 739 334 765 c 0
 293 791 265 810 248 823 c 0x30
438 290 m 1
 463 479 477 603 480 663 c 1
 499 665 516 666 533 666 c 0
 553 666 568 663 578 657 c 0
 588 651 593 640 593 623 c 0xb9
 593 621 591 607 586 580 c 0
 581 553 574 505 564 436 c 0
 554 367 544 290 534 203 c 0
 526 130 522 82 522 61 c 0
 522 40 523 21 526 5 c 1
 501 -0 480 -3 463 -3 c 0x72
 426 -3 407 14 407 49 c 0
 407 53 411 81 418 132 c 1
 391 87 358 52 321 27 c 0
 284 2 247 -10 211 -10 c 0
 168 -10 134 6 111 39 c 0
 87 71 75 110 75 157 c 0xba
 75 174 83 245 100 372 c 0
 117 498 127 595 130 663 c 1
 148 665 165 666 181 666 c 0
 222 666 243 652 243 624 c 0xb4
 243 622 242 613 239 597 c 2
 227 525 l 2
 222 493 217 461 212 429 c 0
 192 286 182 203 182 180 c 0
 182 151 187 127 198 108 c 0
 209 88 225 78 248 78 c 0xb8
 280 78 315 98 353 139 c 0
 390 179 419 229 438 290 c 1
EndSplineSet
Validated: 1
Substitution2: "'c2sc' Capitals to Small Capitals in Latin lookup 0 subtable" ugrave.sc
EndChar

StartChar: Uacute
Encoding: 218 218 151
Width: 609
GlyphClass: 2
Flags: W
HStem: -10 88<204.271 294.936> -3 21G<444.5 471.5> 646 20G<173 201.5 524.5 543> 715 21G<321 334>
VStem: 75 107<104.358 349.065> 130 113<487.5 658.525> 407 115<5.29689 196.088> 480 113<488.228 656.715>
LayerCount: 2
Fore
SplineSet
500 801 m 0x30
 483 792 453 777 409 757 c 0
 366 737 339 723 329 715 c 1
 313 731 305 745 305 758 c 0
 305 771 313 782 328 790 c 0
 347 799 375 815 412 838 c 0
 450 861 479 882 498 899 c 1
 520 888 531 871 531 848 c 0
 531 829 521 813 500 801 c 0x30
438 290 m 1
 463 479 477 603 480 663 c 1
 499 665 516 666 533 666 c 0
 553 666 568 663 578 657 c 0
 588 651 593 640 593 623 c 0xb9
 593 621 591 607 586 580 c 0
 581 553 574 505 564 436 c 0
 554 367 544 290 534 203 c 0
 526 130 522 82 522 61 c 0
 522 40 523 21 526 5 c 1
 501 -0 480 -3 463 -3 c 0x72
 426 -3 407 14 407 49 c 0
 407 53 411 81 418 132 c 1
 391 87 358 52 321 27 c 0
 284 2 247 -10 211 -10 c 0
 168 -10 134 6 110 39 c 0
 87 71 75 110 75 157 c 0xba
 75 174 83 245 100 372 c 0
 117 498 127 595 130 663 c 1
 148 665 165 666 181 666 c 0
 222 666 243 652 243 624 c 0xb4
 243 622 242 613 239 597 c 2
 227 525 l 2
 222 493 217 461 212 429 c 0
 192 286 182 203 182 180 c 0
 182 151 187 127 198 108 c 0
 209 88 225 78 248 78 c 0xb8
 280 78 315 98 352 139 c 0
 390 179 419 229 438 290 c 1
EndSplineSet
Validated: 1
Substitution2: "'c2sc' Capitals to Small Capitals in Latin lookup 0 subtable" uacute.sc
EndChar

StartChar: Ucircumflex
Encoding: 219 219 152
Width: 609
GlyphClass: 2
Flags: W
HStem: -10 88<204.271 294.987> -3 21G<444.5 471.5> 646 20G<173 201.5 524.5 543> 721 21G<254.5 270.5>
VStem: 75 107<104.358 349.065> 130 113<487.5 658.525> 407 115<5.29689 196.088> 480 113<488.228 656.715>
LayerCount: 2
Fore
SplineSet
518 758 m 0x30
 518 737 504 721 475 709 c 1
 466 723 454 737 439 752 c 0
 424 766 411 777 401 784 c 2
 386 796 l 1
 321 746 280 721 261 721 c 0
 248 721 238 730 231 747 c 1
 295 812 351 861 400 892 c 1
 479 831 518 786 518 758 c 0x30
438 290 m 1
 463 479 477 603 480 663 c 1
 499 665 516 666 533 666 c 0
 553 666 568 663 578 657 c 0
 588 651 593 640 593 623 c 0xb9
 593 621 591 607 586 580 c 0
 581 553 574 505 564 436 c 0
 554 367 544 290 534 203 c 0
 526 130 522 82 522 61 c 0
 522 40 523 21 526 5 c 1
 501 -0 480 -3 463 -3 c 0x72
 426 -3 407 14 407 49 c 0
 407 53 411 81 418 132 c 1
 391 87 358 52 321 27 c 0
 284 2 247 -10 211 -10 c 0
 168 -10 134 6 110 39 c 0
 87 71 75 110 75 157 c 0xba
 75 174 83 245 100 372 c 0
 117 498 127 595 130 663 c 1
 148 665 165 666 181 666 c 0
 222 666 243 652 243 624 c 0xb4
 243 622 242 613 239 597 c 2
 227 525 l 2
 222 493 217 461 212 429 c 0
 192 286 182 203 182 180 c 0
 182 151 187 127 198 108 c 0
 209 88 225 78 248 78 c 0xb8
 280 78 315 98 353 139 c 0
 390 179 419 229 438 290 c 1
EndSplineSet
Validated: 1
Substitution2: "'c2sc' Capitals to Small Capitals in Latin lookup 0 subtable" ucircumflex.sc
EndChar

StartChar: Udieresis
Encoding: 220 220 153
Width: 609
GlyphClass: 2
Flags: W
HStem: -10 88<204.271 294.936> -3 21G<444.5 471.5> 646 20G<173 201.5 524.5 543> 721 139<263.412 344.494 436.412 517.494>
VStem: 75 107<104.358 349.065> 130 113<487.5 658.525> 240 129<745.123 836.394> 407 115<5.29689 196.088> 413 129<745.123 836.394> 480 113<488.228 656.715>
LayerCount: 2
Fore
SplineSet
438 290 m 1xb8
 463 479 477 603 480 663 c 1
 499 665 516 666 533 666 c 0
 553 666 568 663 578 657 c 0
 588 651 593 640 593 623 c 0xb840
 593 621 591 607 586 580 c 0
 581 553 574 505 564 436 c 0
 554 367 544 290 534 203 c 0
 526 130 522 82 522 61 c 0
 522 40 523 21 526 5 c 1
 501 -0 480 -3 463 -3 c 0x71
 426 -3 407 14 407 49 c 0
 407 53 411 81 418 132 c 1
 391 87 358 52 321 27 c 0
 284 2 247 -10 211 -10 c 0
 168 -10 134 6 110 39 c 0
 87 71 75 110 75 157 c 0xb9
 75 174 83 245 100 372 c 0
 117 498 127 595 130 663 c 1
 148 665 165 666 181 666 c 0
 222 666 243 652 243 624 c 0xb4
 243 622 242 613 239 597 c 2
 227 525 l 2
 222 493 217 461 212 429 c 0
 192 286 182 203 182 180 c 0
 182 151 187 127 198 108 c 0
 209 88 225 78 248 78 c 0
 280 78 315 98 352 138 c 0
 390 179 419 229 438 290 c 1xb8
469 721 m 0
 452 721 439 727 428 738 c 0
 418 749 413 763 413 782 c 0
 413 803 420 822 435 837 c 0
 450 852 467 860 486 860 c 0
 501 860 514 854 525 842 c 0
 536 829 542 814 542 796 c 0x3080
 542 775 534 758 518 743 c 0
 503 728 486 721 469 721 c 0
296 721 m 0
 279 721 266 727 255 738 c 0
 245 749 240 763 240 782 c 0
 240 803 247 822 262 837 c 0
 277 852 294 860 313 860 c 0
 328 860 341 854 352 842 c 0
 363 829 369 814 369 796 c 0x32
 369 775 361 758 345 743 c 0
 330 728 313 721 296 721 c 0
EndSplineSet
Validated: 1
Substitution2: "'c2sc' Capitals to Small Capitals in Latin lookup 0 subtable" udieresis.sc
EndChar

StartChar: Yacute
Encoding: 221 221 154
Width: 468
GlyphClass: 2
Flags: W
HStem: -3 21G<203.5 231.5> 647 20G<116.5 140 420.5 456.5> 715 21G<247 260>
VStem: 164 115<5.48404 217.755>
LayerCount: 2
Fore
SplineSet
426 801 m 0
 409 792 379 777 335 757 c 0
 292 737 265 723 255 715 c 1
 239 731 231 745 231 758 c 0
 231 771 239 782 254 790 c 0
 273 799 301 815 338 838 c 0
 376 861 405 882 424 899 c 1
 446 888 457 871 457 848 c 0
 457 829 447 813 426 801 c 0
521 620 m 0
 521 598 461 510 341 356 c 0
 325 335 313 320 305 309 c 1
 291 203 l 2
 283 144 279 99 279 66 c 0
 279 43 280 23 283 5 c 1
 260 -0 240 -3 223 -3 c 0
 184 -3 164 14 164 49 c 0
 164 53 165 63 167 79 c 0
 169 94 173 125 180 172 c 0
 186 218 192 265 199 313 c 1
 137 484 86 586 47 619 c 1
 78 651 105 667 128 667 c 0
 152 667 170 656 181 633 c 0
 218 556 250 477 275 395 c 1
 367 541 417 633 424 672 c 1
 489 672 521 655 521 620 c 0
EndSplineSet
Validated: 1
Substitution2: "'c2sc' Capitals to Small Capitals in Latin lookup 0 subtable" yacute.sc
EndChar

StartChar: Thorn
Encoding: 222 222 155
Width: 491
GlyphClass: 2
Flags: W
HStem: -4 21G<85.5 117.5> 122 77<184.312 311.059> 483 77<224 334.864> 646 20G<164.5 195.5>
VStem: 48 116<3.58044 152.758> 119 115<561.884 660.965> 366 115<264.519 451.43>
LayerCount: 2
Fore
SplineSet
224 559 m 1xf6
 229 560 238 560 250 560 c 0
 404 560 481 500 481 380 c 0
 481 301 459 238 416 192 c 0
 373 145 323 122 268 122 c 0
 228 122 195 133 170 154 c 1
 166 118 164 87 164 60 c 0
 164 39 165 20 168 4 c 1
 152 -1 131 -4 104 -4 c 0
 67 -4 48 10 48 38 c 0xfa
 48 44 50 58 52 79 c 0
 56 100 59 126 64 156 c 0
 69 186 72 211 74 230 c 2
 99 454 l 2
 112 571 119 641 119 663 c 1
 134 665 153 666 176 666 c 0
 215 666 234 655 234 633 c 0
 234 628 231 603 224 559 c 1xf6
212 479 m 1
 179 224 l 1
 199 207 221 199 244 199 c 0
 284 199 314 215 335 248 c 0
 356 281 366 323 366 374 c 0
 366 415 357 444 338 459 c 0
 320 475 294 483 260 483 c 0
 243 483 227 482 212 479 c 1
EndSplineSet
Validated: 1
EndChar

StartChar: germandbls
Encoding: 223 223 156
Width: 512
GlyphClass: 2
Flags: W
HStem: -10 71<276.273 353.434> 602 71<241.648 342.496>
VStem: 225 95<319.023 404.187> 354 106<493.205 590.336> 369 105<79.2332 193.116>
LayerCount: 2
Fore
SplineSet
260 127 m 1xe8
 261 106 267 89 278 78 c 0
 289 67 301 61 315 61 c 0
 330 61 343 68 354 82 c 0xf0
 364 97 369 114 369 135 c 0xe8
 369 156 362 176 346 195 c 0
 332 214 315 229 297 241 c 0
 279 252 262 268 248 287 c 0
 232 306 225 326 225 348 c 0
 225 364 230 379 238 393 c 0
 248 406 258 418 271 428 c 0
 284 438 296 448 308 459 c 0
 321 469 332 481 340 496 c 0
 350 511 354 527 354 545 c 0
 354 563 350 577 340 587 c 0
 332 597 320 602 305 602 c 0
 280 602 256 593 232 574 c 0
 208 555 194 524 190 483 c 0
 163 219 140 48 121 -31 c 0
 115 -56 104 -78 89 -98 c 0
 74 -117 54 -127 31 -127 c 0
 2 -127 -18 -111 -28 -79 c 1
 -4 -72 17 -31 36 46 c 0
 55 122 73 257 92 451 c 0
 99 520 127 574 177 614 c 0
 226 653 277 673 328 673 c 0
 366 673 398 665 423 648 c 0
 448 631 460 608 460 578 c 0xf0
 460 551 455 528 446 508 c 0
 436 487 424 471 411 460 c 0
 397 448 383 437 370 428 c 0
 356 418 344 408 334 397 c 0
 325 386 320 375 320 362 c 0
 320 350 325 338 336 325 c 0
 347 313 360 301 374 289 c 0
 390 277 404 264 420 251 c 0
 434 238 447 221 458 202 c 0
 469 183 474 163 474 141 c 0
 474 102 457 67 422 36 c 0
 388 5 348 -10 303 -10 c 0
 272 -10 246 -3 223 10 c 0
 200 24 189 41 189 62 c 0
 189 95 213 116 260 127 c 1xe8
EndSplineSet
Validated: 1
EndChar

StartChar: agrave
Encoding: 224 224 157
Width: 516
GlyphClass: 2
Flags: W
HStem: -10 76<146 238.471> 418 66<224.859 333.663> 710 20G<162.5 191>
VStem: 37 123<92.2261 300.981> 317 106<62.4143 191.877>
LayerCount: 2
Fore
SplineSet
162 633 m 0
 144 644 135 659 135 676 c 0
 135 700 149 718 176 730 c 1
 206 692 255 649 322 600 c 0
 335 591 341 580 341 566 c 0
 341 549 335 535 322 524 c 1
 313 532 289 549 248 575 c 0
 207 601 179 620 162 633 c 0
318 94 m 1
 272 25 221 -10 165 -10 c 0
 127 -10 96 5 73 36 c 0
 49 67 37 111 37 170 c 0
 37 256 60 330 107 392 c 0
 153 453 210 484 277 484 c 0
 350 484 415 465 472 427 c 1
 439 278 423 174 423 116 c 0
 423 85 436 63 461 52 c 1
 458 37 451 23 439 10 c 0
 426 -3 409 -10 388 -10 c 0
 366 -10 349 -2 336 14 c 0
 323 30 317 50 317 75 c 0
 317 84 317 90 318 94 c 1
329 206 m 1
 356 376 l 1
 330 404 303 418 276 418 c 0
 243 418 215 397 193 354 c 0
 171 312 160 258 160 191 c 0
 160 155 166 125 177 101 c 0
 188 78 202 66 220 66 c 0
 236 66 254 79 275 105 c 0
 296 132 314 165 329 206 c 1
EndSplineSet
Validated: 1
Substitution2: "'smcp' Lowercase to Small Capitals in Latin lookup 0 subtable" agrave.sc
EndChar

StartChar: aacute
Encoding: 225 225 158
Width: 516
GlyphClass: 2
Flags: W
HStem: -10 76<146 238.471> 418 66<224.849 333.663>
VStem: 37 123<97.3147 303.879> 317 106<62.4143 191.877>
LayerCount: 2
Fore
SplineSet
416 611 m 0
 399 602 369 587 325 567 c 0
 282 547 255 533 245 525 c 1
 229 541 221 555 221 568 c 0
 221 581 229 592 244 600 c 0
 263 609 291 625 328 648 c 0
 366 671 395 692 414 709 c 1
 436 698 447 681 447 658 c 0
 447 639 437 623 416 611 c 0
318 94 m 1
 272 25 221 -10 165 -10 c 0
 127 -10 96 5 72 36 c 0
 49 67 37 111 37 170 c 0
 37 256 60 330 106 392 c 0
 153 453 210 484 277 484 c 0
 350 484 415 465 472 427 c 1
 439 278 423 174 423 116 c 0
 423 85 436 63 461 52 c 1
 458 37 451 23 438 10 c 0
 426 -3 409 -10 388 -10 c 0
 366 -10 349 -2 336 14 c 0
 323 30 317 50 317 75 c 0
 317 84 317 90 318 94 c 1
329 206 m 1
 356 376 l 1
 330 404 303 418 276 418 c 0
 243 418 215 397 193 354 c 0
 171 312 160 258 160 191 c 0
 160 155 166 125 176 101 c 0
 188 78 202 66 220 66 c 0
 236 66 254 79 275 105 c 0
 296 132 314 165 329 206 c 1
EndSplineSet
Validated: 1
Substitution2: "'smcp' Lowercase to Small Capitals in Latin lookup 0 subtable" aacute.sc
EndChar

StartChar: acircumflex
Encoding: 226 226 159
Width: 516
GlyphClass: 2
Flags: W
HStem: -10 76<146 238.471> 418 66<224.859 333.663>
VStem: 37 123<92.5435 300.981> 317 106<62.4143 191.877>
LayerCount: 2
Fore
SplineSet
432 568 m 0
 432 547 418 531 389 519 c 1
 380 533 368 547 353 562 c 0
 338 576 325 587 315 594 c 2
 300 606 l 1
 235 556 194 531 175 531 c 0
 162 531 152 540 145 557 c 1
 209 622 265 671 314 702 c 1
 393 641 432 596 432 568 c 0
318 94 m 1
 272 25 221 -10 165 -10 c 0
 127 -10 96 5 73 36 c 0
 49 67 37 111 37 170 c 0
 37 256 60 330 107 392 c 0
 153 453 210 484 277 484 c 0
 350 484 415 465 472 427 c 1
 439 278 423 174 423 116 c 0
 423 85 436 63 461 52 c 1
 458 37 451 23 438 10 c 0
 426 -3 409 -10 388 -10 c 0
 366 -10 349 -2 336 14 c 0
 323 30 317 50 317 75 c 0
 317 84 317 90 318 94 c 1
329 206 m 1
 356 376 l 1
 330 404 303 418 276 418 c 0
 243 418 215 397 193 354 c 0
 171 312 160 258 160 191 c 0
 160 155 166 125 177 102 c 0
 188 78 202 66 220 66 c 0
 236 66 254 79 275 106 c 0
 296 132 314 165 329 206 c 1
EndSplineSet
Validated: 1
Substitution2: "'smcp' Lowercase to Small Capitals in Latin lookup 0 subtable" acircumflex.sc
EndChar

StartChar: atilde
Encoding: 227 227 160
Width: 516
GlyphClass: 2
Flags: W
HStem: -10 76<146 238.471> 418 66<224.849 333.663> 530 73<318.09 398.672> 574 73<193.54 267.889>
VStem: 37 123<97.3147 303.79> 317 106<62.4143 191.877>
LayerCount: 2
Fore
SplineSet
318 94 m 1xcc
 272 25 221 -10 165 -10 c 0
 127 -10 96 5 72 36 c 0
 49 67 37 111 37 170 c 0
 37 256 60 330 106 391 c 0
 153 453 210 484 277 484 c 0
 350 484 415 465 472 427 c 1
 439 278 423 174 423 116 c 0
 423 85 436 63 461 52 c 1
 458 37 451 22 438 10 c 0
 426 -4 409 -10 388 -10 c 0
 366 -10 349 -2 336 14 c 0
 323 30 317 50 317 75 c 0
 317 84 317 90 318 94 c 1xcc
329 206 m 1
 356 376 l 1
 330 404 303 418 276 418 c 0
 243 418 215 397 193 354 c 0
 171 312 160 258 160 191 c 0
 160 155 166 125 176 101 c 0
 188 78 202 66 220 66 c 0
 236 66 254 79 275 105 c 0
 296 132 314 165 329 206 c 1
451 620 m 0
 451 598 437 577 410 558 c 0
 383 539 357 530 332 530 c 0xec
 313 530 291 537 268 552 c 0
 245 567 232 574 227 574 c 0
 217 574 198 559 169 528 c 1
 150 537 141 550 141 566 c 0
 144 585 157 604 182 621 c 0
 207 638 233 647 260 647 c 0xdc
 276 647 296 640 318 625 c 0
 342 610 357 603 364 603 c 0xec
 376 603 395 618 421 648 c 1
 441 643 451 633 451 620 c 0
EndSplineSet
Validated: 1
Substitution2: "'smcp' Lowercase to Small Capitals in Latin lookup 0 subtable" atilde.sc
EndChar

StartChar: adieresis
Encoding: 228 228 161
Width: 516
GlyphClass: 2
Flags: W
HStem: -10 76<146 238.471> 418 66<224.849 333.663> 531 139<179.539 261.973 352.412 433.971>
VStem: 37 123<97.3147 303.79> 156 129<554.517 646.394> 317 106<62.4143 191.877> 329 129<555.27 646.955>
LayerCount: 2
Fore
SplineSet
318 94 m 1xf4
 272 25 221 -10 165 -10 c 0
 127 -10 96 5 72 36 c 0
 49 67 37 111 37 170 c 0
 37 256 60 330 106 391 c 0
 153 453 210 484 277 484 c 0
 350 484 415 465 472 427 c 1
 439 278 423 174 423 116 c 0
 423 85 436 63 461 52 c 1
 458 37 451 22 438 10 c 0
 426 -4 409 -10 388 -10 c 0
 366 -10 349 -2 336 14 c 0
 323 30 317 50 317 75 c 0
 317 84 317 90 318 94 c 1xf4
329 206 m 1xf2
 356 376 l 1
 330 404 303 418 276 418 c 0
 243 418 215 397 193 354 c 0
 171 312 160 258 160 191 c 0
 160 155 166 125 176 101 c 0
 188 78 202 66 220 66 c 0
 236 66 254 79 275 105 c 0
 296 132 314 165 329 206 c 1xf2
385 531 m 0
 368 531 355 536 344 548 c 0
 334 558 329 573 329 592 c 0
 329 613 336 632 351 647 c 0
 366 662 383 670 402 670 c 0
 417 670 430 664 442 651 c 0
 452 639 458 624 458 606 c 0
 458 585 450 568 434 553 c 0
 419 538 402 531 385 531 c 0
212 531 m 0
 195 531 182 537 172 548 c 0
 161 559 156 573 156 592 c 0
 156 613 163 632 178 647 c 0
 193 662 210 670 229 670 c 0
 244 670 258 664 268 652 c 0
 280 639 285 624 285 606 c 0xe8
 285 585 277 568 262 553 c 0
 246 538 229 531 212 531 c 0
EndSplineSet
Validated: 1
Substitution2: "'smcp' Lowercase to Small Capitals in Latin lookup 0 subtable" adieresis.sc
EndChar

StartChar: aring
Encoding: 229 229 162
Width: 516
GlyphClass: 2
Flags: W
HStem: -10 76<146 238.471> 418 66<224.849 333.663> 520 48<282.506 346.592> 662 48<290.229 352.807>
VStem: 37 123<90.7263 303.79> 223 57<569.335 650.366> 317 106<62.4143 191.877> 355 58<574.204 660.836>
LayerCount: 2
Fore
SplineSet
325 662 m 0xfd
 312 662 301 657 292 646 c 0
 284 636 280 623 280 608 c 0
 280 581 291 568 312 568 c 0
 325 568 335 573 343 584 c 0
 351 595 355 607 355 622 c 0
 355 649 345 662 325 662 c 0xfd
305 520 m 0
 281 520 261 527 246 542 c 0
 231 557 223 576 223 599 c 0
 223 629 233 655 254 677 c 0
 275 699 301 710 332 710 c 0
 357 710 376 703 391 689 c 0
 406 675 413 656 413 632 c 0
 413 602 403 576 382 553 c 0
 362 531 336 520 305 520 c 0
318 94 m 1
 272 25 221 -10 165 -10 c 0
 127 -10 96 5 72 36 c 0
 49 67 37 111 37 170 c 0
 37 256 60 330 106 391 c 0
 153 453 210 484 277 484 c 0
 350 484 415 465 472 427 c 1
 439 278 423 174 423 116 c 0
 423 85 436 63 461 52 c 1
 458 37 451 22 438 9 c 0
 426 -4 409 -10 388 -10 c 0
 366 -10 349 -2 336 14 c 0
 323 30 317 50 317 75 c 0xfe
 317 84 317 90 318 94 c 1
329 206 m 1
 356 376 l 1
 330 404 303 418 276 418 c 0
 243 418 215 397 193 354 c 0
 171 312 160 258 160 191 c 0
 160 155 165 125 176 101 c 0
 187 78 202 66 220 66 c 0
 236 66 254 79 275 105 c 0
 296 132 314 165 329 206 c 1
EndSplineSet
Validated: 1
Substitution2: "'smcp' Lowercase to Small Capitals in Latin lookup 0 subtable" aring.sc
EndChar

StartChar: ae
Encoding: 230 230 163
Width: 721
GlyphClass: 2
Flags: W
HStem: -10 76<146 237.91> -10 66<456.051 564.218> 177 59<425.122 520.657> 418 66<224.849 332.77 479.282 580.5>
VStem: 37 123<90.7263 303.79> 300 124<147.701 179 236 307.367> 569 124<283.26 405.968>
LayerCount: 2
Fore
SplineSet
569 358 m 0x3e
 569 375 565 390 556 402 c 0
 548 413 537 419 524 419 c 0
 499 419 478 402 459 366 c 0
 440 332 429 288 425 236 c 1
 438 236 448 236 457 238 c 0
 466 238 479 241 494 246 c 0
 509 251 522 257 531 265 c 0
 541 273 550 285 558 301 c 0
 565 317 569 336 569 358 c 0x3e
300 183 m 0
 300 257 319 321 356 376 c 1
 330 404 303 418 276 418 c 0
 243 418 215 397 193 354 c 0
 171 312 160 258 160 191 c 0
 160 155 165 125 176 101 c 0
 187 78 202 66 220 66 c 0xbe
 231 66 244 73 259 88 c 0
 274 103 289 122 302 147 c 1
 301 162 300 174 300 183 c 0
424 179 m 1
 425 138 433 107 448 86 c 0
 464 66 483 56 506 56 c 0
 525 56 543 62 561 75 c 0
 579 88 594 105 605 126 c 1
 637 113 653 94 653 67 c 0
 653 46 637 28 606 13 c 0
 575 -2 539 -10 498 -10 c 0x7e
 458 -10 422 -2 389 15 c 0
 356 32 332 58 317 93 c 1
 271 24 220 -10 165 -10 c 0
 127 -10 96 5 72 36 c 0
 49 67 37 111 37 170 c 0
 37 256 60 330 106 391 c 0
 153 453 210 484 277 484 c 0
 342 484 395 469 435 438 c 1
 468 469 509 484 558 484 c 0
 603 484 636 472 659 449 c 0
 682 426 693 398 693 363 c 0
 693 330 683 297 664 266 c 0
 645 235 619 213 586 200 c 0
 550 185 507 177 457 177 c 0
 447 177 436 178 424 179 c 1
EndSplineSet
Validated: 1
Substitution2: "'smcp' Lowercase to Small Capitals in Latin lookup 0 subtable" ae.sc
EndChar

StartChar: ccedilla
Encoding: 231 231 164
Width: 431
GlyphClass: 2
Flags: W
HStem: -244 60<115.771 200.005> -10 66<226.101 292.344> 413 71<212.245 312.346>
VStem: 27 123<93.6692 310.431> 152 73<-73.5 -10.0952> 208 86<-176.985 -113.376>
LayerCount: 2
Fore
SplineSet
339 337 m 1xf8
 325 388 301 413 266 413 c 0
 231 413 203 392 182 349 c 0
 161 306 150 254 150 195 c 0
 150 148 158 114 173 91 c 0
 188 68 208 56 233 56 c 0
 273 56 306 79 332 126 c 1
 364 113 380 94 380 67 c 0
 380 47 365 30 336 15 c 0
 306 -0 272 -9 235 -10 c 1
 228 -22 225 -32 225 -40 c 0xf8
 225 -43 231 -48 243 -55 c 0
 254 -62 266 -72 277 -85 c 0
 288 -98 294 -113 294 -130 c 0
 294 -162 278 -189 247 -211 c 0
 215 -233 181 -244 145 -244 c 0
 114 -244 99 -235 99 -217 c 0
 99 -204 109 -188 130 -170 c 1
 138 -179 150 -184 167 -184 c 0
 177 -184 186 -181 195 -175 c 0
 204 -169 208 -160 208 -148 c 0xf4
 208 -137 199 -123 180 -108 c 0
 161 -93 152 -80 152 -67 c 0
 152 -50 159 -30 173 -5 c 1
 128 4 92 25 66 58 c 0
 40 90 27 131 27 180 c 0
 27 229 35 274 50 314 c 0
 65 354 86 386 111 410 c 0
 136 434 164 452 193 465 c 0
 222 478 252 484 283 484 c 0
 316 484 348 477 377 464 c 0
 406 450 421 430 421 403 c 0
 421 387 415 372 402 359 c 0
 389 345 368 338 339 337 c 1xf8
EndSplineSet
Validated: 1
Substitution2: "'smcp' Lowercase to Small Capitals in Latin lookup 0 subtable" ccedilla.sc
EndChar

StartChar: egrave
Encoding: 232 232 165
Width: 448
GlyphClass: 2
Flags: W
HStem: -10 66<182.78 291.218> 177 59<152.122 247.657> 419 65<207.635 307.887> 710 20G<131.5 160>
VStem: 27 124<89.6709 179 236 309.396> 296 124<282.979 410.937>
LayerCount: 2
Fore
SplineSet
131 633 m 0
 113 644 104 659 104 676 c 0
 104 700 118 718 145 730 c 1
 175 692 224 649 291 600 c 0
 304 591 310 580 310 566 c 0
 310 549 304 535 291 524 c 1
 282 532 258 549 217 575 c 0
 176 601 148 620 131 633 c 0
151 179 m 1
 152 138 160 107 175 86 c 0
 191 66 210 56 233 56 c 0
 252 56 270 62 288 75 c 0
 306 88 321 105 332 126 c 1
 364 113 380 94 380 67 c 0
 380 46 364 28 333 13 c 0
 302 -2 266 -10 225 -10 c 0
 200 -10 176 -7 154 0 c 0
 131 7 110 18 90 32 c 0
 71 47 55 67 44 92 c 0
 33 118 27 148 27 183 c 0
 27 232 35 276 51 315 c 0
 67 355 88 387 114 410 c 0
 139 434 167 452 197 465 c 0
 226 478 256 484 285 484 c 0
 330 484 363 473 386 450 c 0
 409 427 420 398 420 363 c 0
 420 330 410 298 391 267 c 0
 372 236 346 213 313 200 c 0
 277 185 234 177 184 177 c 0
 174 177 163 178 151 179 c 1
296 358 m 0
 296 375 292 390 283 401 c 0
 275 413 264 419 251 419 c 0
 226 419 205 401 186 366 c 0
 167 331 156 288 152 236 c 1
 165 236 175 236 184 237 c 0
 193 238 206 241 221 246 c 0
 236 251 249 257 258 265 c 0
 268 273 277 285 284 301 c 0
 292 317 296 336 296 358 c 0
EndSplineSet
Validated: 1
Substitution2: "'smcp' Lowercase to Small Capitals in Latin lookup 0 subtable" egrave.sc
EndChar

StartChar: eacute
Encoding: 233 233 166
Width: 448
GlyphClass: 2
Flags: W
HStem: -10 66<182.683 291.218> 177 59<152.122 247.657> 419 65<208.003 307.887>
VStem: 27 124<89.6709 179 236 309.396> 296 124<282.979 410.937>
LayerCount: 2
Fore
SplineSet
385 611 m 0
 368 602 338 587 294 567 c 0
 251 547 224 533 214 525 c 1
 198 541 190 555 190 568 c 0
 190 581 198 592 213 600 c 0
 232 609 260 625 298 648 c 0
 335 671 364 692 383 709 c 1
 405 698 416 681 416 658 c 0
 416 639 406 623 385 611 c 0
151 179 m 1
 152 138 160 107 175 86 c 0
 191 66 210 56 233 56 c 0
 252 56 270 62 288 75 c 0
 306 88 321 105 332 126 c 1
 364 113 380 94 380 67 c 0
 380 46 364 28 333 13 c 0
 302 -2 266 -10 225 -10 c 0
 200 -10 176 -7 153 0 c 0
 131 7 110 18 90 32 c 0
 71 47 55 67 44 92 c 0
 33 118 27 148 27 183 c 0
 27 232 35 276 51 315 c 0
 67 355 88 387 113 410 c 0
 139 434 167 452 196 465 c 0
 226 478 256 484 285 484 c 0
 330 484 363 473 386 450 c 0
 409 427 420 398 420 363 c 0
 420 330 410 298 391 267 c 0
 372 236 346 213 313 200 c 0
 277 185 234 177 184 177 c 0
 174 177 163 178 151 179 c 1
296 358 m 0
 296 375 292 390 283 401 c 0
 275 413 264 419 251 419 c 0
 226 419 205 401 186 366 c 0
 167 331 156 288 152 236 c 1
 165 236 175 236 184 237 c 0
 193 238 206 241 221 246 c 0
 236 251 249 257 258 265 c 0
 268 273 277 285 284 301 c 0
 292 317 296 336 296 358 c 0
EndSplineSet
Validated: 1
Substitution2: "'smcp' Lowercase to Small Capitals in Latin lookup 0 subtable" eacute.sc
EndChar

StartChar: ecircumflex
Encoding: 234 234 167
Width: 448
GlyphClass: 2
Flags: W
HStem: -10 66<182.683 291.218> 177 59<152.122 247.657> 419 65<208.003 307.887>
VStem: 27 124<89.6709 179 236 309.396> 296 124<282.979 410.937>
LayerCount: 2
Fore
SplineSet
406 568 m 0
 406 547 392 531 363 519 c 1
 354 533 342 547 327 562 c 0
 312 576 299 587 289 594 c 2
 274 606 l 1
 209 556 168 531 149 531 c 0
 136 531 126 540 119 557 c 1
 183 622 239 671 288 702 c 1
 367 641 406 596 406 568 c 0
151 179 m 1
 152 138 160 107 175 86 c 0
 191 66 210 56 233 56 c 0
 252 56 270 62 288 75 c 0
 306 88 321 105 332 126 c 1
 364 113 380 94 380 67 c 0
 380 46 364 28 333 13 c 0
 302 -2 266 -10 225 -10 c 0
 200 -10 176 -7 153 0 c 0
 131 7 110 18 90 32 c 0
 71 47 55 67 44 92 c 0
 33 118 27 148 27 183 c 0
 27 232 35 276 51 316 c 0
 67 355 88 387 113 411 c 0
 139 434 167 452 196 465 c 0
 226 478 256 484 285 484 c 0
 330 484 363 473 386 450 c 0
 409 427 420 398 420 363 c 0
 420 330 410 298 391 267 c 0
 372 236 346 213 313 200 c 0
 277 185 234 177 184 177 c 0
 174 177 163 178 151 179 c 1
296 358 m 0
 296 375 292 390 283 401 c 0
 275 413 264 419 251 419 c 0
 226 419 205 401 186 366 c 0
 167 331 156 288 152 236 c 1
 165 236 175 236 184 237 c 0
 193 238 206 241 221 246 c 0
 236 251 249 257 258 265 c 0
 268 273 277 285 284 301 c 0
 292 317 296 336 296 358 c 0
EndSplineSet
Validated: 1
Substitution2: "'smcp' Lowercase to Small Capitals in Latin lookup 0 subtable" ecircumflex.sc
EndChar

StartChar: edieresis
Encoding: 235 235 168
Width: 456
GlyphClass: 2
Flags: W
HStem: -10 66<182.683 291.218> 177 59<152.122 247.657> 419 65<208.003 307.887> 531 139<149.412 230.494 322.412 403.494>
VStem: 27 124<89.6709 179 236 309.396> 126 129<555.27 646.955> 296 124<283.446 410.75> 299 129<555.394 646.955>
LayerCount: 2
Fore
SplineSet
151 179 m 1xfa
 152 138 160 107 175 86 c 0
 191 66 210 56 233 56 c 0
 252 56 270 62 288 75 c 0
 306 88 321 105 332 126 c 1
 364 113 380 94 380 67 c 0
 380 46 364 28 333 13 c 0
 302 -2 266 -10 225 -10 c 0
 200 -10 176 -7 153 0 c 0
 131 7 110 18 90 32 c 0
 71 47 55 67 44 92 c 0
 33 118 27 148 27 183 c 0
 27 232 35 276 51 315 c 0
 67 355 88 387 113 410 c 0
 139 434 167 452 196 465 c 0
 226 478 256 484 285 484 c 0
 330 484 363 472 386 450 c 0
 409 426 420 398 420 363 c 0
 420 330 410 298 391 266 c 0
 372 236 346 213 313 200 c 0
 277 185 234 177 184 177 c 0
 174 177 163 178 151 179 c 1xfa
296 358 m 0
 296 375 292 390 283 401 c 0
 275 413 264 419 251 419 c 0
 226 419 205 401 186 366 c 0
 167 331 156 288 152 236 c 1
 165 236 175 236 184 237 c 0
 193 238 206 241 221 246 c 0
 236 251 249 257 258 265 c 0
 268 273 277 285 284 301 c 0
 292 317 296 336 296 358 c 0
355 531 m 0
 338 531 325 536 314 547 c 0
 304 558 299 573 299 592 c 0
 299 613 306 632 321 647 c 0
 336 662 353 670 372 670 c 0
 387 670 400 664 411 651 c 0
 422 639 428 624 428 606 c 0xf1
 428 585 420 568 404 553 c 0
 389 538 372 531 355 531 c 0
182 531 m 0
 165 531 152 536 141 548 c 0
 131 558 126 573 126 592 c 0
 126 613 133 632 148 647 c 0
 163 662 180 670 199 670 c 0
 214 670 227 664 238 651 c 0
 249 639 255 624 255 606 c 0xf4
 255 585 247 568 231 553 c 0
 216 538 199 531 182 531 c 0
EndSplineSet
Validated: 1
Substitution2: "'smcp' Lowercase to Small Capitals in Latin lookup 0 subtable" edieresis.sc
EndChar

StartChar: igrave
Encoding: 236 236 169
Width: 234
GlyphClass: 2
Flags: W
HStem: -10 21G<107.5 129.5> 464 20G<125.5 143.5> 710 20G<27.5 56>
VStem: 48 105<60.8735 251.731> 84 113<253.225 444.241>
LayerCount: 2
Fore
SplineSet
27 633 m 0xe0
 9 644 0 659 0 676 c 0
 0 700 14 718 41 730 c 1
 71 692 120 649 187 600 c 0
 200 591 206 580 206 566 c 0
 206 549 200 535 187 524 c 1
 178 532 154 549 113 575 c 0
 72 601 44 620 27 633 c 0xe0
84 366 m 0xe8
 84 391 75 408 57 417 c 1
 59 437 68 453 83 466 c 0
 98 478 116 484 135 484 c 0
 152 484 167 479 179 468 c 0
 191 457 197 442 197 421 c 0xe8
 197 396 190 339 175 252 c 0
 160 164 153 116 153 108 c 0
 153 81 165 63 190 52 c 1
 187 35 180 20 168 8 c 0
 155 -4 139 -10 120 -10 c 0
 95 -10 77 -1 66 17 c 0
 54 35 48 56 48 81 c 0xf0
 48 112 54 161 66 230 c 0
 78 298 84 343 84 366 c 0xe8
EndSplineSet
Validated: 1
Substitution2: "'smcp' Lowercase to Small Capitals in Latin lookup 0 subtable" igrave.sc
EndChar

StartChar: iacute
Encoding: 237 237 170
Width: 234
GlyphClass: 2
Flags: W
HStem: -10 21G<107.5 129.5> 464 20G<125.5 143.5>
VStem: 48 105<60.8735 251.731> 84 113<253.225 444.241>
LayerCount: 2
Fore
SplineSet
231 611 m 0xc0
 214 602 184 587 140 567 c 0
 97 547 70 533 60 525 c 1
 44 541 36 555 36 568 c 0
 36 581 44 592 59 600 c 0
 78 609 106 625 144 648 c 0
 181 671 210 692 229 709 c 1
 251 698 262 681 262 658 c 0
 262 639 252 623 231 611 c 0xc0
84 366 m 0xd0
 84 391 75 408 57 417 c 1
 59 437 68 453 83 466 c 0
 98 478 116 484 135 484 c 0
 152 484 167 479 179 468 c 0
 191 457 197 442 197 421 c 0xd0
 197 396 190 339 175 252 c 0
 160 164 153 116 153 108 c 0
 153 81 165 63 190 52 c 1
 187 35 180 20 168 8 c 0
 155 -4 139 -10 120 -10 c 0
 95 -10 77 -1 66 17 c 0
 54 35 48 56 48 81 c 0xe0
 48 112 54 161 66 230 c 0
 78 298 84 343 84 366 c 0xd0
EndSplineSet
Validated: 1
Substitution2: "'smcp' Lowercase to Small Capitals in Latin lookup 0 subtable" iacute.sc
EndChar

StartChar: icircumflex
Encoding: 238 238 171
Width: 234
GlyphClass: 2
Flags: W
HStem: -10 21G<107.5 129.5> 464 20G<125.5 143.5>
VStem: 48 105<60.8735 251.731> 84 113<253.225 444.241>
LayerCount: 2
Fore
SplineSet
274 568 m 0xc0
 274 547 260 531 231 519 c 1
 222 533 210 547 195 562 c 0
 180 576 167 587 157 594 c 2
 142 606 l 1
 77 556 36 531 17 531 c 0
 4 531 -6 540 -13 557 c 1
 51 622 107 671 156 702 c 1
 235 641 274 596 274 568 c 0xc0
84 366 m 0xd0
 84 391 75 408 57 417 c 1
 59 437 68 453 83 466 c 0
 98 478 116 484 135 484 c 0
 152 484 167 479 179 468 c 0
 191 457 197 442 197 421 c 0xd0
 197 396 190 339 175 252 c 0
 160 164 153 116 153 108 c 0
 153 81 165 63 190 52 c 1
 187 35 180 20 168 8 c 0
 155 -4 139 -10 120 -10 c 0
 95 -10 77 -1 66 17 c 0
 54 35 48 56 48 81 c 0xe0
 48 112 54 161 66 230 c 0
 78 298 84 343 84 366 c 0xd0
EndSplineSet
Validated: 1
Substitution2: "'smcp' Lowercase to Small Capitals in Latin lookup 0 subtable" icircumflex.sc
EndChar

StartChar: idieresis
Encoding: 239 239 172
Width: 232
GlyphClass: 2
Flags: W
HStem: -10 21G<99.5 121.5> 464 20G<128.5 146.5> 531 139<20.5385 102.942 193.539 275.942>
VStem: -3 129<554.517 646.394> 40 105<60.8735 220.716> 87 113<282.577 444.241> 170 129<554.517 646.394>
LayerCount: 2
Fore
SplineSet
87 366 m 0xe4
 87 391 78 408 60 417 c 1
 62 437 71 453 86 466 c 0
 101 478 119 484 138 484 c 0
 155 484 170 479 182 468 c 0
 194 457 200 442 200 421 c 0xe4
 200 396 191 339 172 252 c 0
 154 164 145 116 145 108 c 0
 145 81 157 63 182 52 c 1
 179 35 172 20 160 8 c 0
 147 -4 131 -10 112 -10 c 0
 87 -10 69 -1 58 17 c 0
 46 35 40 56 40 81 c 0xe8
 40 112 48 162 64 230 c 0
 79 298 87 343 87 366 c 0xe4
226 531 m 0
 209 531 196 537 186 548 c 0
 175 559 170 573 170 592 c 0
 170 613 177 632 192 647 c 0
 207 662 224 670 243 670 c 0
 258 670 272 664 283 652 c 0
 294 639 299 624 299 606 c 0xe2
 299 585 291 568 276 553 c 0
 260 538 243 531 226 531 c 0
53 531 m 0
 36 531 23 537 13 548 c 0
 2 559 -3 573 -3 592 c 0
 -3 613 4 632 19 647 c 0
 34 662 51 670 70 670 c 0
 85 670 99 664 110 652 c 0
 121 639 126 624 126 606 c 0xf0
 126 585 118 568 103 553 c 0
 87 538 70 531 53 531 c 0
EndSplineSet
Validated: 1
Substitution2: "'smcp' Lowercase to Small Capitals in Latin lookup 0 subtable" idieresis.sc
EndChar

StartChar: eth
Encoding: 240 240 173
Width: 553
GlyphClass: 2
Flags: W
HStem: -10 72<185.065 299.725> 413 71<214.156 328.677> 645 53<149.75 224.65> 729 20G<414 445.5>
VStem: 34 113<106.699 318.702> 366 119<199.361 368.063>
LayerCount: 2
Fore
SplineSet
277 413 m 0
 237 413 205 393 182 354 c 0
 159 314 147 266 147 211 c 0
 147 168 155 132 170 104 c 0
 186 76 208 62 237 62 c 0
 278 62 309 82 332 124 c 0
 355 164 366 213 366 270 c 0
 366 312 358 346 342 373 c 0
 327 400 305 413 277 413 c 0
447 670 m 2
 412 647 l 2
 395 636 383 627 375 621 c 1
 415 586 443 548 460 507 c 0
 477 466 485 416 485 359 c 0
 485 312 480 268 470 226 c 0
 461 184 446 145 426 108 c 0
 406 72 378 43 343 22 c 0
 308 1 268 -10 221 -10 c 0
 164 -10 118 8 84 44 c 0
 51 79 34 128 34 189 c 0
 34 278 58 349 107 403 c 0
 156 457 211 484 272 484 c 0
 291 484 307 482 320 476 c 0
 334 472 350 461 367 444 c 1
 356 499 335 541 305 572 c 1
 219 511 l 1
 195 521 183 534 183 551 c 0
 183 565 189 577 202 588 c 0
 215 596 228 605 243 615 c 1
 218 628 188 638 152 645 c 1
 150 651 149 658 149 667 c 0
 149 688 159 698 179 698 c 0
 217 698 262 686 313 661 c 1
 352 687 393 716 435 749 c 1
 456 734 466 719 466 702 c 0
 466 691 460 680 447 670 c 2
EndSplineSet
Validated: 1
Substitution2: "'smcp' Lowercase to Small Capitals in Latin lookup 0 subtable" eth.sc
EndChar

StartChar: ntilde
Encoding: 241 241 174
Width: 504
GlyphClass: 2
Flags: W
HStem: -4 21G<80.5 108 367 385.5> 407 77<274.849 364.5> 530 73<309.089 389.672> 574 73<184.54 258.858>
VStem: 44 118<1.00977 188.143> 61 140<396.125 461.311> 305 108<61.4454 243.784> 341 109<214.768 401.918>
LayerCount: 2
Fore
SplineSet
182 259 m 1xc1
 169 159 162 92 162 59 c 0
 162 40 163 22 165 5 c 1
 139 -1 117 -4 99 -4 c 0
 62 -4 44 8 44 31 c 0xc9
 44 40 51 92 66 190 c 0
 81 286 89 344 89 363 c 0
 89 391 80 409 61 417 c 1
 64 438 73 454 88 466 c 0
 103 478 120 484 139 484 c 0
 156 484 171 479 183 468 c 0
 195 457 201 442 201 422 c 0
 201 410 200 398 198 386 c 1
 217 417 241 442 268 458 c 0
 296 476 323 484 348 484 c 0
 381 484 406 472 423 449 c 0
 441 426 450 395 450 358 c 0xc5
 450 346 444 306 432 238 c 0
 421 170 414 127 413 108 c 0xc2
 413 82 425 63 450 52 c 1xc1
 447 33 439 18 424 7 c 0
 410 -4 394 -10 377 -10 c 0
 357 -10 340 -2 326 13 c 0
 312 28 305 51 305 80 c 0xc2
 305 108 311 156 323 222 c 0
 335 290 341 329 341 342 c 0
 341 385 328 407 301 407 c 0
 281 407 260 393 238 366 c 0
 217 338 198 302 182 259 c 1xc1
442 620 m 0
 442 598 428 578 401 558 c 0
 374 540 348 530 323 530 c 0xe0
 304 530 282 537 259 552 c 0
 236 567 223 574 218 574 c 0
 208 574 189 559 160 528 c 1
 141 537 132 550 132 566 c 0
 135 585 148 604 173 621 c 0
 198 638 224 647 251 647 c 0xd0
 267 647 286 640 309 625 c 0
 332 610 348 603 355 603 c 0xe0
 367 603 386 618 412 648 c 1
 432 643 442 633 442 620 c 0
EndSplineSet
Validated: 1
Substitution2: "'smcp' Lowercase to Small Capitals in Latin lookup 0 subtable" ntilde.sc
EndChar

StartChar: ograve
Encoding: 242 242 175
Width: 501
GlyphClass: 2
Flags: W
HStem: -10 66<185.799 286.501> 418 66<213.907 315.268> 710 20G<159.5 188>
VStem: 27 123<97.9731 311.394> 350 124<164.758 377.539>
LayerCount: 2
Fore
SplineSet
159 633 m 0
 141 644 132 659 132 676 c 0
 132 700 146 718 173 730 c 1
 203 692 252 649 319 600 c 0
 332 591 338 580 338 566 c 0
 338 549 332 535 319 524 c 1
 310 532 286 549 245 575 c 0
 204 601 176 620 159 633 c 0
213 -10 m 0
 154 -10 109 7 76 42 c 0
 43 76 27 124 27 185 c 0
 27 269 51 340 99 398 c 0
 147 455 208 484 283 484 c 0
 343 484 390 466 424 432 c 0
 457 396 474 348 474 287 c 0
 474 204 449 133 400 76 c 0
 350 19 288 -10 213 -10 c 0
269 418 m 0
 232 418 203 396 182 352 c 0
 161 309 150 258 150 201 c 0
 150 159 157 124 172 97 c 0
 186 70 206 56 232 56 c 0
 268 56 297 77 318 120 c 0
 339 163 350 212 350 269 c 0
 350 312 343 348 329 376 c 0
 314 404 294 418 269 418 c 0
EndSplineSet
Validated: 1
Substitution2: "'smcp' Lowercase to Small Capitals in Latin lookup 0 subtable" ograve.sc
EndChar

StartChar: oacute
Encoding: 243 243 176
Width: 501
GlyphClass: 2
Flags: W
HStem: -10 66<185.799 286.501> 418 66<213.907 315.268>
VStem: 27 123<97.9731 311.394> 350 124<164.758 377.539>
LayerCount: 2
Fore
SplineSet
412 611 m 0
 395 602 365 587 321 567 c 0
 278 547 251 533 241 525 c 1
 225 541 217 555 217 568 c 0
 217 581 225 592 240 600 c 0
 259 609 287 625 324 648 c 0
 362 671 391 692 410 709 c 1
 432 698 443 681 443 658 c 0
 443 639 433 623 412 611 c 0
213 -10 m 0
 154 -10 109 7 76 42 c 0
 43 76 27 124 27 185 c 0
 27 269 51 340 99 398 c 0
 147 455 208 484 283 484 c 0
 343 484 390 466 424 432 c 0
 457 396 474 348 474 287 c 0
 474 204 449 133 400 76 c 0
 350 19 288 -10 213 -10 c 0
269 418 m 0
 232 418 203 396 182 352 c 0
 161 309 150 258 150 201 c 0
 150 159 157 124 172 97 c 0
 186 70 206 56 232 56 c 0
 268 56 297 77 318 120 c 0
 339 163 350 212 350 269 c 0
 350 312 343 348 329 376 c 0
 314 404 294 418 269 418 c 0
EndSplineSet
Validated: 1
Substitution2: "'smcp' Lowercase to Small Capitals in Latin lookup 0 subtable" oacute.sc
EndChar

StartChar: ocircumflex
Encoding: 244 244 177
Width: 501
GlyphClass: 2
Flags: W
HStem: -10 66<185.799 286.501> 418 66<213.254 315.268>
VStem: 27 123<97.9731 311.568> 350 124<164.758 376.643>
LayerCount: 2
Fore
SplineSet
434 568 m 0
 434 547 420 531 391 519 c 1
 382 533 370 547 355 562 c 0
 340 576 327 587 317 594 c 2
 302 606 l 1
 237 556 196 531 177 531 c 0
 164 531 154 540 147 557 c 1
 211 622 267 671 316 702 c 1
 395 641 434 596 434 568 c 0
213 -10 m 0
 154 -10 109 7 76 42 c 0
 43 76 27 124 27 185 c 0
 27 269 51 340 99 398 c 0
 147 455 208 484 283 484 c 0
 343 484 390 467 424 432 c 0
 457 397 474 348 474 287 c 0
 474 204 449 133 400 76 c 0
 350 19 288 -10 213 -10 c 0
269 418 m 0
 232 418 203 396 182 353 c 0
 161 309 150 258 150 201 c 0
 150 159 157 124 172 97 c 0
 186 70 206 56 232 56 c 0
 268 56 297 77 318 120 c 0
 339 163 350 212 350 269 c 0
 350 312 343 348 329 376 c 0
 314 404 294 418 269 418 c 0
EndSplineSet
Validated: 1
Substitution2: "'smcp' Lowercase to Small Capitals in Latin lookup 0 subtable" ocircumflex.sc
EndChar

StartChar: otilde
Encoding: 245 245 178
Width: 501
GlyphClass: 2
Flags: W
HStem: -10 66<185.799 286.501> 418 66<213.907 313.786> 540 73<316.064 395.672> 584 73<190.54 264.86>
VStem: 27 123<97.9731 311.313> 350 124<164.758 375.703>
LayerCount: 2
Fore
SplineSet
448 630 m 0xec
 448 608 434 588 407 568 c 0
 380 550 354 540 329 540 c 0xec
 310 540 288 547 265 562 c 0
 242 577 229 584 224 584 c 0
 214 584 195 569 166 538 c 1
 147 547 138 560 138 576 c 0
 141 595 154 614 179 631 c 0
 204 648 230 657 257 657 c 0xdc
 273 657 292 650 316 635 c 0
 338 620 354 613 361 613 c 0
 373 613 392 628 418 658 c 1
 438 653 448 643 448 630 c 0xec
213 -10 m 0
 154 -10 109 7 76 42 c 0
 43 76 27 124 27 185 c 0
 27 269 51 340 99 397 c 0
 147 455 208 484 283 484 c 0
 343 484 390 466 424 431 c 0
 457 396 474 348 474 287 c 0
 474 204 449 133 400 76 c 0
 350 19 288 -10 213 -10 c 0
269 418 m 0
 232 418 203 396 182 352 c 0
 161 309 150 258 150 201 c 0
 150 159 157 124 172 97 c 0
 186 70 206 56 232 56 c 0
 268 56 297 77 318 120 c 0
 339 163 350 212 350 269 c 0
 350 312 343 348 328 376 c 0
 314 404 294 418 269 418 c 0
EndSplineSet
Validated: 1
Substitution2: "'smcp' Lowercase to Small Capitals in Latin lookup 0 subtable" otilde.sc
EndChar

StartChar: odieresis
Encoding: 246 246 179
Width: 501
GlyphClass: 2
Flags: W
HStem: -10 66<185.799 286.501> 418 66<213.907 315.268> 531 139<183.539 265.942 356.539 438.942>
VStem: 27 123<97.9731 311.313> 160 129<554.517 646.394> 333 129<554.517 646.394> 350 124<164.758 377.45>
LayerCount: 2
Fore
SplineSet
213 -10 m 0xfa
 154 -10 109 7 76 42 c 0
 43 76 27 124 27 185 c 0
 27 269 51 340 99 397 c 0
 147 455 208 484 283 484 c 0
 343 484 390 466 424 431 c 0
 457 396 474 348 474 287 c 0
 474 204 449 133 400 76 c 0
 350 19 288 -10 213 -10 c 0xfa
269 418 m 0
 232 418 203 396 182 352 c 0
 161 309 150 258 150 201 c 0
 150 159 157 124 172 97 c 0
 186 70 206 56 232 56 c 0
 268 56 297 77 318 120 c 0
 339 163 350 212 350 269 c 0
 350 312 343 348 329 376 c 0
 314 404 294 418 269 418 c 0
389 531 m 0
 372 531 359 537 349 548 c 0
 338 559 333 573 333 592 c 0
 333 613 340 632 355 647 c 0
 370 662 387 670 406 670 c 0
 421 670 435 664 446 652 c 0
 457 639 462 624 462 606 c 0xfc
 462 585 454 568 439 553 c 0
 423 538 406 531 389 531 c 0
216 531 m 0
 199 531 186 537 176 548 c 0
 165 559 160 573 160 592 c 0
 160 613 167 632 182 647 c 0
 197 662 214 670 233 670 c 0
 248 670 262 664 273 652 c 0
 284 639 289 624 289 606 c 0
 289 585 281 568 266 553 c 0
 250 538 233 531 216 531 c 0
EndSplineSet
Validated: 1
Substitution2: "'smcp' Lowercase to Small Capitals in Latin lookup 0 subtable" odieresis.sc
EndChar

